{"glyphs":{"0":{"ha":883,"x_min":51,"x_max":832,"o":"m 429 -17 q 148 102 244 -17 q 51 433 51 221 q 97 675 51 574 q 233 830 143 776 q 453 883 324 883 q 735 765 638 883 q 832 433 832 647 q 729 102 832 221 q 429 -17 626 -17 m 447 83 q 574 160 533 83 q 615 418 615 238 q 594 624 615 543 q 533 744 572 706 q 442 783 494 783 q 342 751 379 783 q 285 647 304 719 q 267 449 267 574 q 289 244 267 326 q 352 123 311 163 q 447 83 393 83 z "},"1":{"ha":540,"x_min":53,"x_max":507,"o":"m 390 114 q 424 107 399 113 q 474 97 449 101 l 507 92 l 507 0 l 58 0 l 58 92 q 96 99 68 93 q 150 108 124 104 q 186 114 176 113 l 186 650 l 53 650 l 53 722 q 206 792 119 744 q 344 878 292 839 l 390 878 l 390 114 z "},"2":{"ha":656,"x_min":44,"x_max":615,"o":"m 44 161 q 113 224 81 193 q 175 285 146 254 q 301 428 250 361 q 376 549 351 494 q 401 647 401 604 q 381 732 401 699 q 318 778 360 765 q 217 778 276 790 q 199 731 208 757 q 181 678 190 706 q 160 619 171 650 q 136 556 149 589 l 63 556 l 69 850 q 167 874 107 864 q 292 883 228 883 q 524 825 451 883 q 596 639 596 767 q 542 472 596 553 q 392 317 488 390 q 168 178 297 244 q 215 173 188 174 q 265 172 242 172 l 483 172 q 499 204 490 188 q 515 239 507 221 q 531 271 522 254 q 547 306 539 288 l 615 306 l 588 0 l 44 0 l 44 161 z "},"3":{"ha":668,"x_min":33,"x_max":624,"o":"m 107 311 q 120 274 114 292 q 133 242 126 257 q 164 160 150 197 q 192 89 178 124 q 314 84 267 74 q 383 124 361 94 q 404 200 404 154 q 335 336 404 286 q 156 394 265 386 l 150 450 q 256 517 203 474 q 344 611 310 560 q 379 710 379 663 q 359 759 379 740 q 301 783 339 778 q 211 778 264 788 l 200 754 q 188 729 193 742 q 164 672 176 703 q 138 606 151 642 l 64 606 l 69 850 q 174 874 110 864 q 313 883 238 883 q 517 843 446 883 q 589 728 589 803 q 551 626 589 675 q 443 540 513 578 q 361 504 406 519 q 464 472 418 493 q 582 384 540 439 q 624 256 624 329 q 583 114 624 175 q 466 18 543 53 q 282 -17 389 -17 q 149 -7 214 -17 q 46 17 83 3 l 33 311 l 107 311 z "},"4":{"ha":760,"x_min":15,"x_max":722,"o":"m 582 114 q 615 107 590 113 q 665 97 640 101 l 699 92 l 699 0 l 261 0 l 261 92 q 296 99 269 93 q 346 108 322 104 q 378 114 369 113 l 378 189 l 43 189 l 15 328 l 408 872 l 582 856 l 582 361 l 722 361 l 706 189 l 582 189 l 582 114 m 378 361 l 378 667 l 160 361 l 378 361 z "},"5":{"ha":663,"x_min":35,"x_max":625,"o":"m 108 222 q 135 171 119 201 q 153 136 143 156 q 175 90 163 117 q 348 102 286 65 q 410 219 410 139 q 372 331 410 294 q 261 367 333 367 q 173 358 215 367 q 93 333 131 350 l 75 333 l 115 867 l 596 867 l 581 700 l 558 678 l 304 678 q 246 677 275 678 q 199 672 217 676 l 188 528 q 266 553 224 544 q 361 561 308 561 q 488 528 426 561 q 587 434 549 496 q 625 289 625 372 q 576 115 625 183 q 452 15 528 46 q 292 -17 376 -17 q 153 -7 221 -17 q 46 17 85 3 l 35 222 l 108 222 z "},"6":{"ha":779,"x_min":51,"x_max":732,"o":"m 269 501 q 329 551 292 532 q 457 578 383 578 q 605 544 543 578 q 699 447 667 510 q 732 300 732 385 q 694 135 732 207 q 581 24 657 64 q 394 -17 504 -17 q 138 78 224 -17 q 51 363 51 172 q 93 654 53 540 q 224 826 133 768 q 468 883 315 883 q 578 874 519 883 q 682 850 638 864 l 688 619 l 614 619 l 585 688 q 564 736 574 713 q 546 779 554 760 q 381 774 440 796 q 297 686 322 751 q 269 501 271 621 m 267 299 q 284 185 267 236 q 333 106 301 135 q 407 78 365 78 q 490 122 463 78 q 518 249 518 165 q 499 362 518 311 q 449 441 481 413 q 382 469 418 469 q 294 426 321 469 q 267 313 269 388 l 267 299 z "},"7":{"ha":635,"x_min":46,"x_max":619,"o":"m 90 0 l 90 11 l 514 694 l 171 694 q 150 649 163 674 q 133 607 142 629 q 114 561 124 585 l 46 561 l 72 867 l 619 867 l 360 0 l 90 0 z "},"8":{"ha":779,"x_min":46,"x_max":733,"o":"m 231 407 q 190 431 208 418 q 101 517 138 461 q 64 661 64 574 q 102 774 64 724 q 217 854 140 825 q 401 883 293 883 q 632 831 554 883 q 710 689 710 779 q 647 556 710 611 q 526 489 597 513 q 607 449 572 468 q 696 360 658 417 q 733 217 733 304 q 694 97 733 150 q 574 14 654 44 q 378 -17 494 -17 q 129 41 213 -17 q 46 200 46 99 q 113 346 46 289 q 231 407 160 386 m 513 189 q 488 265 513 233 q 427 316 464 296 q 325 364 390 336 q 293 378 308 371 q 288 367 290 372 q 261 217 261 306 q 278 140 261 171 q 326 92 294 108 q 400 75 357 75 q 485 103 457 75 q 513 189 513 131 m 474 513 q 479 525 476 518 q 500 661 500 581 q 486 731 500 701 q 447 776 472 761 q 385 792 421 792 q 304 766 329 792 q 279 689 279 740 q 304 613 279 644 q 367 562 329 582 q 469 514 404 542 q 474 513 472 513 z "},"9":{"ha":788,"x_min":51,"x_max":732,"o":"m 514 365 q 454 317 492 335 q 326 289 400 289 q 178 323 240 289 q 84 419 117 357 q 51 567 51 482 q 89 731 51 660 q 203 843 126 803 q 389 883 279 883 q 646 789 560 883 q 732 504 732 694 q 690 213 731 326 q 559 41 650 99 q 315 -17 468 -17 q 205 -7 264 -17 q 101 17 146 3 l 96 247 l 169 247 l 199 179 q 219 131 210 154 q 238 88 229 107 q 402 93 343 71 q 488 181 461 115 q 514 365 513 246 m 517 568 q 499 681 517 631 q 450 760 482 732 q 376 789 418 789 q 293 745 321 789 q 265 618 265 701 q 284 505 265 556 q 334 426 303 454 q 401 397 365 397 q 490 440 463 397 q 517 554 514 479 l 517 568 z "},"\r":{"ha":833,"x_min":0,"x_max":0,"o":""}," ":{"ha":300,"x_min":0,"x_max":0,"o":""},"A":{"ha":907,"x_min":-1,"x_max":907,"o":"m 40 0 l -1 0 l -1 92 q 49 103 14 96 q 100 114 85 111 l 261 594 l 278 644 q 311 743 294 692 q 315 760 314 751 q 294 763 306 761 q 249 767 272 765 q 203 772 226 769 l 203 867 l 568 867 q 632 628 589 757 l 822 114 q 865 103 836 111 q 907 92 893 96 l 907 0 l 497 0 l 497 92 q 525 99 504 93 l 567 108 q 594 114 588 113 l 553 238 l 267 238 l 226 114 q 258 107 235 113 q 303 97 281 101 q 335 92 326 93 l 335 0 l 40 0 m 514 354 l 458 522 q 408 674 428 614 l 304 354 l 514 354 z "},"Á":{"ha":907,"x_min":-1,"x_max":907,"o":"m 40 0 l -1 0 l -1 92 q 49 103 14 96 q 100 114 85 111 l 261 594 l 278 644 q 311 743 294 692 q 315 760 314 751 q 294 763 306 761 q 249 767 272 765 q 203 772 226 769 l 203 867 l 568 867 q 632 628 589 757 l 822 114 q 865 103 836 111 q 907 92 893 96 l 907 0 l 497 0 l 497 92 q 525 99 504 93 l 567 108 q 594 114 588 113 l 553 238 l 267 238 l 226 114 q 258 107 235 113 q 303 97 281 101 q 335 92 326 93 l 335 0 l 40 0 m 393 961 l 490 1194 l 711 1194 l 711 1183 l 442 939 l 393 961 m 514 354 l 458 522 q 408 674 428 614 l 304 354 l 514 354 z "},"Ă":{"ha":907,"x_min":-1,"x_max":907,"o":"m 40 0 l -1 0 l -1 92 q 49 103 14 96 q 100 114 85 111 l 261 594 l 278 644 q 311 743 294 692 q 315 760 314 751 q 294 763 306 761 q 249 767 272 765 q 203 772 226 769 l 203 867 l 568 867 q 632 628 589 757 l 822 114 q 865 103 836 111 q 907 92 893 96 l 907 0 l 497 0 l 497 92 q 525 99 504 93 l 567 108 q 594 114 588 113 l 553 238 l 267 238 l 226 114 q 258 107 235 113 q 303 97 281 101 q 335 92 326 93 l 335 0 l 40 0 m 643 1172 q 588 1002 639 1065 q 447 939 538 939 q 308 1002 358 939 q 253 1172 257 1065 l 325 1183 q 369 1103 338 1128 q 447 1078 401 1078 q 526 1103 494 1078 q 569 1183 558 1128 l 643 1172 m 514 354 l 458 522 q 408 674 428 614 l 304 354 l 514 354 z "},"Ǎ":{"ha":907,"x_min":-1,"x_max":907,"o":"m 40 0 l -1 0 l -1 92 q 49 103 14 96 q 100 114 85 111 l 261 594 l 278 644 q 311 743 294 692 q 315 760 314 751 q 294 763 306 761 q 249 767 272 765 q 203 772 226 769 l 203 867 l 568 867 q 632 628 589 757 l 822 114 q 865 103 836 111 q 907 92 893 96 l 907 0 l 497 0 l 497 92 q 525 99 504 93 l 567 108 q 594 114 588 113 l 553 238 l 267 238 l 226 114 q 258 107 235 113 q 303 97 281 101 q 335 92 326 93 l 335 0 l 40 0 m 576 1217 l 656 1172 l 478 939 l 411 939 l 240 1172 l 314 1217 l 447 1100 l 576 1217 m 514 354 l 458 522 q 408 674 428 614 l 304 354 l 514 354 z "},"Â":{"ha":907,"x_min":-1,"x_max":907,"o":"m 40 0 l -1 0 l -1 92 q 49 103 14 96 q 100 114 85 111 l 261 594 l 278 644 q 311 743 294 692 q 315 760 314 751 q 294 763 306 761 q 249 767 272 765 q 203 772 226 769 l 203 867 l 568 867 q 632 628 589 757 l 822 114 q 865 103 836 111 q 907 92 893 96 l 907 0 l 497 0 l 497 92 q 525 99 504 93 l 567 108 q 594 114 588 113 l 553 238 l 267 238 l 226 114 q 258 107 235 113 q 303 97 281 101 q 335 92 326 93 l 335 0 l 40 0 m 575 928 l 447 1044 l 313 928 l 239 972 l 411 1206 l 478 1206 l 656 972 l 575 928 m 514 354 l 458 522 q 408 674 428 614 l 304 354 l 514 354 z "},"Ä":{"ha":907,"x_min":-1,"x_max":907,"o":"m 40 0 l -1 0 l -1 92 q 49 103 14 96 q 100 114 85 111 l 261 594 l 278 644 q 311 743 294 692 q 315 760 314 751 q 294 763 306 761 q 249 767 272 765 q 203 772 226 769 l 203 867 l 568 867 q 632 628 589 757 l 822 114 q 865 103 836 111 q 907 92 893 96 l 907 0 l 497 0 l 497 92 q 525 99 504 93 l 567 108 q 594 114 588 113 l 553 238 l 267 238 l 226 114 q 258 107 235 113 q 303 97 281 101 q 335 92 326 93 l 335 0 l 40 0 m 514 354 l 458 522 q 408 674 428 614 l 304 354 l 514 354 m 454 1056 q 509 1117 453 1061 q 569 1172 565 1172 q 639 1117 579 1172 q 699 1056 699 1061 q 639 990 699 1046 q 569 933 579 933 q 510 990 565 933 q 454 1056 456 1047 m 203 1056 q 258 1116 201 1060 q 319 1172 315 1172 q 389 1117 331 1172 q 447 1056 447 1061 q 389 990 447 1046 q 319 933 331 933 q 260 990 315 933 q 203 1056 206 1047 z "},"À":{"ha":907,"x_min":-1,"x_max":907,"o":"m 40 0 l -1 0 l -1 92 q 49 103 14 96 q 100 114 85 111 l 261 594 l 278 644 q 311 743 294 692 q 315 760 314 751 q 294 763 306 761 q 249 767 272 765 q 203 772 226 769 l 203 867 l 568 867 q 632 628 589 757 l 822 114 q 865 103 836 111 q 907 92 893 96 l 907 0 l 497 0 l 497 92 q 525 99 504 93 l 567 108 q 594 114 588 113 l 553 238 l 267 238 l 226 114 q 258 107 235 113 q 303 97 281 101 q 335 92 326 93 l 335 0 l 40 0 m 508 961 l 460 939 l 192 1183 l 192 1194 l 411 1194 l 508 961 m 514 354 l 458 522 q 408 674 428 614 l 304 354 l 514 354 z "},"Ā":{"ha":907,"x_min":-1,"x_max":907,"o":"m 40 0 l -1 0 l -1 92 q 49 103 14 96 q 100 114 85 111 l 261 594 l 278 644 q 311 743 294 692 q 315 760 314 751 q 294 763 306 761 q 249 767 272 765 q 203 772 226 769 l 203 867 l 568 867 q 632 628 589 757 l 822 114 q 865 103 836 111 q 907 92 893 96 l 907 0 l 497 0 l 497 92 q 525 99 504 93 l 567 108 q 594 114 588 113 l 553 238 l 267 238 l 226 114 q 258 107 235 113 q 303 97 281 101 q 335 92 326 93 l 335 0 l 40 0 m 256 1078 l 647 1078 l 647 961 l 256 961 l 256 1078 m 514 354 l 458 522 q 408 674 428 614 l 304 354 l 514 354 z "},"Ą":{"ha":907,"x_min":-1,"x_max":918,"o":"m 907 0 q 903 -4 906 -3 q 899 -7 901 -6 q 831 -84 856 -50 q 807 -150 807 -118 q 822 -192 807 -178 q 863 -206 836 -206 q 891 -202 876 -206 q 918 -194 906 -199 l 918 -250 q 868 -278 894 -268 q 807 -289 842 -289 q 706 -261 743 -289 q 668 -183 668 -233 q 728 -65 668 -128 q 808 0 765 -26 l 497 0 l 497 92 q 525 99 504 93 l 567 108 q 594 114 588 113 l 553 238 l 267 238 l 226 114 q 258 107 235 113 q 303 97 281 101 q 335 92 326 93 l 335 0 l -1 0 l -1 92 q 49 103 14 96 q 100 114 85 111 l 261 594 l 278 644 q 311 743 294 692 q 315 760 314 751 q 294 763 306 761 q 249 767 272 765 q 203 772 226 769 l 203 867 l 568 867 q 632 628 589 757 l 822 114 q 865 103 836 111 q 907 92 893 96 l 907 0 m 514 354 l 458 522 q 408 674 428 614 l 304 354 l 514 354 z "},"Å":{"ha":907,"x_min":-1,"x_max":907,"o":"m 40 0 l -1 0 l -1 92 q 49 103 14 96 q 100 114 85 111 l 261 594 l 278 644 q 311 743 294 692 q 315 760 314 751 q 294 763 306 761 q 249 767 272 765 q 203 772 226 769 l 203 867 l 568 867 q 632 628 589 757 l 822 114 q 865 103 836 111 q 907 92 893 96 l 907 0 l 497 0 l 497 92 q 525 99 504 93 l 567 108 q 594 114 588 113 l 553 238 l 267 238 l 226 114 q 258 107 235 113 q 303 97 281 101 q 335 92 326 93 l 335 0 l 40 0 m 450 922 q 335 963 381 922 q 289 1072 289 1003 q 335 1182 289 1142 q 450 1222 381 1222 q 565 1182 519 1222 q 611 1072 611 1142 q 565 963 611 1003 q 450 922 519 922 m 514 354 l 458 522 q 408 674 428 614 l 304 354 l 514 354 m 450 1017 q 489 1033 472 1017 q 506 1072 506 1049 q 489 1112 506 1096 q 450 1128 472 1128 q 411 1112 428 1128 q 394 1072 394 1096 q 411 1033 394 1049 q 450 1017 428 1017 z "},"Ǻ":{"ha":907,"x_min":-1,"x_max":907,"o":"m 40 0 l -1 0 l -1 92 q 49 103 14 96 q 100 114 85 111 l 261 594 l 278 644 q 311 743 294 692 q 315 760 314 751 q 294 763 306 761 q 249 767 272 765 q 203 772 226 769 l 203 867 l 568 867 q 632 628 589 757 l 822 114 q 865 103 836 111 q 907 92 893 96 l 907 0 l 497 0 l 497 92 q 525 99 504 93 l 567 108 q 594 114 588 113 l 553 238 l 267 238 l 226 114 q 258 107 235 113 q 303 97 281 101 q 335 92 326 93 l 335 0 l 40 0 m 450 922 q 335 963 381 922 q 289 1072 289 1003 q 335 1182 289 1142 q 422 1221 371 1214 l 490 1383 l 711 1383 l 711 1372 l 528 1206 q 565 1182 549 1197 q 611 1072 611 1142 q 565 963 611 1003 q 450 922 519 922 m 514 354 l 458 522 q 408 674 428 614 l 304 354 l 514 354 m 450 1017 q 489 1033 472 1017 q 506 1072 506 1049 q 489 1112 506 1096 q 450 1128 472 1128 q 411 1112 428 1128 q 394 1072 394 1096 q 411 1033 394 1049 q 450 1017 428 1017 z "},"Ã":{"ha":907,"x_min":-1,"x_max":907,"o":"m 40 0 l -1 0 l -1 92 q 49 103 14 96 q 100 114 85 111 l 261 594 l 278 644 q 311 743 294 692 q 315 760 314 751 q 294 763 306 761 q 249 767 272 765 q 203 772 226 769 l 203 867 l 568 867 q 632 628 589 757 l 822 114 q 865 103 836 111 q 907 92 893 96 l 907 0 l 497 0 l 497 92 q 525 99 504 93 l 567 108 q 594 114 588 113 l 553 238 l 267 238 l 226 114 q 258 107 235 113 q 303 97 281 101 q 335 92 326 93 l 335 0 l 40 0 m 364 1200 q 447 1174 417 1200 q 506 1104 476 1149 q 527 1072 518 1083 q 547 1061 536 1061 q 576 1089 565 1061 q 596 1183 586 1117 l 675 1178 q 647 997 675 1060 q 535 933 618 933 q 450 960 481 933 q 393 1031 419 986 q 372 1062 381 1051 q 351 1072 363 1072 q 327 1046 338 1072 q 303 950 317 1019 l 222 956 q 251 1138 222 1075 q 364 1200 279 1200 m 514 354 l 458 522 q 408 674 428 614 l 304 354 l 514 354 z "},"B":{"ha":849,"x_min":53,"x_max":808,"o":"m 115 0 l 53 0 l 53 92 q 87 99 61 93 q 137 108 113 104 q 169 114 161 113 l 169 753 q 135 759 161 754 q 85 769 110 764 q 53 775 61 774 l 53 867 l 433 867 q 688 814 610 867 q 767 661 767 761 q 693 518 767 579 q 568 454 644 478 q 732 393 672 438 q 808 239 808 335 q 768 112 808 165 q 651 29 728 58 q 468 0 574 0 l 115 0 m 374 389 l 374 193 q 394 122 374 142 q 468 103 415 103 l 474 103 q 558 143 528 103 q 589 247 589 183 q 546 351 589 313 q 415 389 503 389 l 374 389 m 421 489 q 517 528 485 489 q 550 625 550 568 q 535 698 550 667 q 492 747 521 729 q 422 764 464 764 l 411 764 q 374 758 388 764 l 374 489 l 421 489 z "},"C":{"ha":789,"x_min":54,"x_max":796,"o":"m 667 517 q 635 619 653 567 q 603 718 618 671 q 594 742 599 731 q 588 764 590 754 q 406 743 476 774 q 303 641 336 713 q 269 456 269 569 q 305 293 269 365 q 401 180 340 221 q 535 139 463 139 q 659 160 599 139 q 763 226 719 182 l 796 201 q 674 41 761 99 q 475 -17 586 -17 q 261 38 357 -17 q 110 197 165 93 q 54 444 54 301 q 115 676 54 576 q 281 829 176 775 q 510 883 385 883 q 657 873 589 883 q 757 850 725 863 l 763 517 l 667 517 z "},"Ć":{"ha":789,"x_min":54,"x_max":796,"o":"m 667 517 q 635 619 653 567 q 603 718 618 671 q 594 742 599 731 q 588 764 590 754 q 406 743 476 774 q 303 641 336 713 q 269 456 269 569 q 305 293 269 365 q 401 180 340 221 q 535 139 463 139 q 659 160 599 139 q 763 226 719 182 l 796 201 q 674 41 761 99 q 475 -17 586 -17 q 261 38 357 -17 q 110 197 165 93 q 54 444 54 301 q 115 676 54 576 q 281 829 176 775 q 510 883 385 883 q 657 873 589 883 q 757 850 725 863 l 763 517 l 667 517 m 433 961 l 531 1194 l 751 1194 l 751 1183 l 482 939 l 433 961 z "},"Č":{"ha":789,"x_min":54,"x_max":796,"o":"m 667 517 q 635 619 653 567 q 603 718 618 671 q 594 742 599 731 q 588 764 590 754 q 406 743 476 774 q 303 641 336 713 q 269 456 269 569 q 305 293 269 365 q 401 180 340 221 q 535 139 463 139 q 659 160 599 139 q 763 226 719 182 l 796 201 q 674 41 761 99 q 475 -17 586 -17 q 261 38 357 -17 q 110 197 165 93 q 54 444 54 301 q 115 676 54 576 q 281 829 176 775 q 510 883 385 883 q 657 873 589 883 q 757 850 725 863 l 763 517 l 667 517 m 617 1217 l 696 1172 l 518 939 l 451 939 l 281 1172 l 354 1217 l 488 1100 l 617 1217 z "},"Ç":{"ha":789,"x_min":54,"x_max":796,"o":"m 667 517 q 635 619 653 567 q 603 718 618 671 q 594 742 599 731 q 588 764 590 754 q 406 743 476 774 q 303 641 336 713 q 269 456 269 569 q 305 293 269 365 q 401 180 340 221 q 535 139 463 139 q 659 160 599 139 q 763 226 719 182 l 796 201 q 674 42 761 99 q 476 -17 586 -17 l 467 -68 q 543 -108 518 -85 q 569 -172 569 -133 q 519 -262 569 -229 q 392 -294 469 -294 q 303 -283 347 -294 l 314 -211 q 375 -228 347 -228 q 408 -219 396 -228 q 419 -189 419 -210 q 404 -158 419 -171 q 358 -139 389 -146 l 388 -8 q 261 39 319 4 q 110 197 165 93 q 54 444 54 301 q 115 676 54 576 q 281 829 176 775 q 510 883 385 883 q 657 873 589 883 q 757 850 725 863 l 763 517 l 667 517 z "},"Ĉ":{"ha":789,"x_min":54,"x_max":796,"o":"m 667 517 q 635 619 653 567 q 603 718 618 671 q 594 742 599 731 q 588 764 590 754 q 406 743 476 774 q 303 641 336 713 q 269 456 269 569 q 305 293 269 365 q 401 180 340 221 q 535 139 463 139 q 659 160 599 139 q 763 226 719 182 l 796 201 q 674 41 761 99 q 475 -17 586 -17 q 261 38 357 -17 q 110 197 165 93 q 54 444 54 301 q 115 676 54 576 q 281 829 176 775 q 510 883 385 883 q 657 873 589 883 q 757 850 725 863 l 763 517 l 667 517 m 615 928 l 488 1044 l 353 928 l 279 972 l 451 1206 l 518 1206 l 696 972 l 615 928 z "},"Ċ":{"ha":789,"x_min":54,"x_max":796,"o":"m 667 517 q 635 619 653 567 q 603 718 618 671 q 594 742 599 731 q 588 764 590 754 q 406 743 476 774 q 303 641 336 713 q 269 456 269 569 q 305 293 269 365 q 401 180 340 221 q 535 139 463 139 q 659 160 599 139 q 763 226 719 182 l 796 201 q 674 41 761 99 q 475 -17 586 -17 q 261 38 357 -17 q 110 197 165 93 q 54 444 54 301 q 115 676 54 576 q 281 829 176 775 q 510 883 385 883 q 657 873 589 883 q 757 850 725 863 l 763 517 l 667 517 m 342 1061 q 409 1128 342 1067 q 482 1189 476 1189 q 528 1160 492 1189 q 599 1098 564 1131 q 635 1061 635 1065 q 601 1018 635 1053 q 529 953 567 983 q 482 922 492 922 q 442 955 478 922 q 374 1020 406 988 q 342 1061 342 1053 z "},"D":{"ha":1043,"x_min":53,"x_max":989,"o":"m 115 0 l 53 0 l 53 92 q 87 99 61 93 q 137 108 113 104 q 169 114 161 113 l 169 753 q 135 759 161 754 q 85 769 110 764 q 53 775 61 774 l 53 867 l 479 867 q 860 760 732 867 q 989 450 989 654 q 929 208 989 310 q 756 53 869 107 q 485 0 643 0 l 115 0 m 374 757 l 374 199 q 385 140 374 161 q 421 111 397 119 q 485 103 444 103 l 492 103 q 701 181 632 103 q 769 413 769 258 q 733 606 769 528 q 624 724 696 685 q 451 764 553 764 l 446 764 q 389 760 418 764 q 374 757 381 758 z "},"Ð":{"ha":1043,"x_min":53,"x_max":989,"o":"m 75 389 l 75 483 l 169 483 l 169 753 q 135 759 161 754 q 85 769 110 764 q 53 775 61 774 l 53 867 l 479 867 q 860 760 732 867 q 989 450 989 654 q 929 208 989 310 q 756 53 869 107 q 485 0 643 0 l 53 0 l 53 92 q 87 99 61 93 q 137 108 113 104 q 169 114 161 113 l 169 389 l 75 389 m 374 483 l 553 483 l 553 389 l 374 389 l 374 199 q 385 140 374 161 q 421 111 397 119 q 485 103 444 103 l 492 103 q 701 181 632 103 q 769 413 769 258 q 733 606 769 528 q 624 724 696 685 q 451 764 553 764 l 446 764 q 389 760 418 764 q 374 757 381 758 l 374 483 z "},"Ď":{"ha":1043,"x_min":53,"x_max":989,"o":"m 115 0 l 53 0 l 53 92 q 87 99 61 93 q 137 108 113 104 q 169 114 161 113 l 169 753 q 135 759 161 754 q 85 769 110 764 q 53 775 61 774 l 53 867 l 479 867 q 860 760 732 867 q 989 450 989 654 q 929 208 989 310 q 756 53 869 107 q 485 0 643 0 l 115 0 m 374 757 l 374 199 q 385 140 374 161 q 421 111 397 119 q 485 103 444 103 l 492 103 q 701 181 632 103 q 769 413 769 258 q 733 606 769 528 q 624 724 696 685 q 451 764 553 764 l 446 764 q 389 760 418 764 q 374 757 381 758 m 651 1217 l 731 1172 l 553 939 l 486 939 l 315 1172 l 389 1217 l 522 1100 l 651 1217 z "},"Đ":{"ha":1043,"x_min":53,"x_max":989,"o":"m 75 389 l 75 483 l 169 483 l 169 753 q 135 759 161 754 q 85 769 110 764 q 53 775 61 774 l 53 867 l 479 867 q 860 760 732 867 q 989 450 989 654 q 929 208 989 310 q 756 53 869 107 q 485 0 643 0 l 53 0 l 53 92 q 87 99 61 93 q 137 108 113 104 q 169 114 161 113 l 169 389 l 75 389 m 374 483 l 553 483 l 553 389 l 374 389 l 374 199 q 385 140 374 161 q 421 111 397 119 q 485 103 444 103 l 492 103 q 701 181 632 103 q 769 413 769 258 q 733 606 769 528 q 624 724 696 685 q 451 764 553 764 l 446 764 q 389 760 418 764 q 374 757 381 758 l 374 483 z "},"E":{"ha":763,"x_min":53,"x_max":744,"o":"m 169 753 q 135 759 161 754 q 85 769 110 764 q 53 775 61 774 l 53 867 l 718 867 l 718 611 l 633 611 q 622 663 628 638 q 608 711 615 688 q 601 738 604 725 q 594 764 597 751 l 374 764 l 374 492 l 432 494 q 508 497 469 496 l 576 497 l 576 389 l 504 389 q 440 391 471 390 q 378 393 410 392 q 374 393 376 393 l 374 118 l 389 103 l 610 103 q 619 137 615 119 q 629 172 624 154 q 643 217 636 193 q 658 269 650 240 l 744 269 l 718 0 l 53 0 l 53 92 q 87 99 61 93 q 137 108 113 104 q 169 114 161 113 l 169 753 z "},"É":{"ha":763,"x_min":53,"x_max":744,"o":"m 169 753 q 135 759 161 754 q 85 769 110 764 q 53 775 61 774 l 53 867 l 718 867 l 718 611 l 633 611 q 622 663 628 638 q 608 711 615 688 q 601 738 604 725 q 594 764 597 751 l 374 764 l 374 492 l 432 494 q 508 497 469 496 l 576 497 l 576 389 l 504 389 q 440 391 471 390 q 378 393 410 392 q 374 393 376 393 l 374 118 l 389 103 l 610 103 q 619 137 615 119 q 629 172 624 154 q 643 217 636 193 q 658 269 650 240 l 744 269 l 718 0 l 53 0 l 53 92 q 87 99 61 93 q 137 108 113 104 q 169 114 161 113 l 169 753 m 335 961 l 432 1194 l 653 1194 l 653 1183 l 383 939 l 335 961 z "},"Ĕ":{"ha":763,"x_min":53,"x_max":744,"o":"m 169 753 q 135 759 161 754 q 85 769 110 764 q 53 775 61 774 l 53 867 l 718 867 l 718 611 l 633 611 q 622 663 628 638 q 608 711 615 688 q 601 738 604 725 q 594 764 597 751 l 374 764 l 374 492 l 432 494 q 508 497 469 496 l 576 497 l 576 389 l 504 389 q 440 391 471 390 q 378 393 410 392 q 374 393 376 393 l 374 118 l 389 103 l 610 103 q 619 137 615 119 q 629 172 624 154 q 643 217 636 193 q 658 269 650 240 l 744 269 l 718 0 l 53 0 l 53 92 q 87 99 61 93 q 137 108 113 104 q 169 114 161 113 l 169 753 m 585 1172 q 530 1002 581 1065 q 389 939 479 939 q 249 1002 300 939 q 194 1172 199 1065 l 267 1183 q 311 1103 279 1128 q 389 1078 343 1078 q 468 1103 436 1078 q 511 1183 500 1128 l 585 1172 z "},"Ě":{"ha":763,"x_min":53,"x_max":744,"o":"m 169 753 q 135 759 161 754 q 85 769 110 764 q 53 775 61 774 l 53 867 l 718 867 l 718 611 l 633 611 q 622 663 628 638 q 608 711 615 688 q 601 738 604 725 q 594 764 597 751 l 374 764 l 374 492 l 432 494 q 508 497 469 496 l 576 497 l 576 389 l 504 389 q 440 391 471 390 q 378 393 410 392 q 374 393 376 393 l 374 118 l 389 103 l 610 103 q 619 137 615 119 q 629 172 624 154 q 643 217 636 193 q 658 269 650 240 l 744 269 l 718 0 l 53 0 l 53 92 q 87 99 61 93 q 137 108 113 104 q 169 114 161 113 l 169 753 m 518 1217 l 597 1172 l 419 939 l 353 939 l 182 1172 l 256 1217 l 389 1100 l 518 1217 z "},"Ê":{"ha":763,"x_min":53,"x_max":744,"o":"m 169 753 q 135 759 161 754 q 85 769 110 764 q 53 775 61 774 l 53 867 l 718 867 l 718 611 l 633 611 q 622 663 628 638 q 608 711 615 688 q 601 738 604 725 q 594 764 597 751 l 374 764 l 374 492 l 432 494 q 508 497 469 496 l 576 497 l 576 389 l 504 389 q 440 391 471 390 q 378 393 410 392 q 374 393 376 393 l 374 118 l 389 103 l 610 103 q 619 137 615 119 q 629 172 624 154 q 643 217 636 193 q 658 269 650 240 l 744 269 l 718 0 l 53 0 l 53 92 q 87 99 61 93 q 137 108 113 104 q 169 114 161 113 l 169 753 m 517 928 l 389 1044 l 254 928 l 181 972 l 353 1206 l 419 1206 l 597 972 l 517 928 z "},"Ë":{"ha":763,"x_min":53,"x_max":744,"o":"m 169 753 q 135 759 161 754 q 85 769 110 764 q 53 775 61 774 l 53 867 l 718 867 l 718 611 l 633 611 q 622 663 628 638 q 608 711 615 688 q 601 738 604 725 q 594 764 597 751 l 374 764 l 374 492 l 432 494 q 508 497 469 496 l 576 497 l 576 389 l 504 389 q 440 391 471 390 q 378 393 410 392 q 374 393 376 393 l 374 118 l 389 103 l 610 103 q 619 137 615 119 q 629 172 624 154 q 643 217 636 193 q 658 269 650 240 l 744 269 l 718 0 l 53 0 l 53 92 q 87 99 61 93 q 137 108 113 104 q 169 114 161 113 l 169 753 m 396 1056 q 451 1117 394 1061 q 511 1172 507 1172 q 581 1117 521 1172 q 640 1056 640 1061 q 581 990 640 1046 q 511 933 521 933 q 452 990 507 933 q 396 1056 397 1047 m 144 1056 q 200 1116 143 1060 q 261 1172 257 1172 q 331 1117 272 1172 q 389 1056 389 1061 q 331 990 389 1046 q 261 933 272 933 q 202 990 257 933 q 144 1056 147 1047 z "},"Ė":{"ha":763,"x_min":53,"x_max":744,"o":"m 169 753 q 135 759 161 754 q 85 769 110 764 q 53 775 61 774 l 53 867 l 718 867 l 718 611 l 633 611 q 622 663 628 638 q 608 711 615 688 q 601 738 604 725 q 594 764 597 751 l 374 764 l 374 492 l 432 494 q 508 497 469 496 l 576 497 l 576 389 l 504 389 q 440 391 471 390 q 378 393 410 392 q 374 393 376 393 l 374 118 l 389 103 l 610 103 q 619 137 615 119 q 629 172 624 154 q 643 217 636 193 q 658 269 650 240 l 744 269 l 718 0 l 53 0 l 53 92 q 87 99 61 93 q 137 108 113 104 q 169 114 161 113 l 169 753 m 243 1061 q 310 1128 243 1067 q 383 1189 378 1189 q 429 1160 393 1189 q 501 1098 465 1131 q 536 1061 536 1065 q 502 1018 536 1053 q 431 953 468 983 q 383 922 393 922 q 343 955 379 922 q 275 1020 307 988 q 243 1061 243 1053 z "},"È":{"ha":763,"x_min":53,"x_max":744,"o":"m 169 753 q 135 759 161 754 q 85 769 110 764 q 53 775 61 774 l 53 867 l 718 867 l 718 611 l 633 611 q 622 663 628 638 q 608 711 615 688 q 601 738 604 725 q 594 764 597 751 l 374 764 l 374 492 l 432 494 q 508 497 469 496 l 576 497 l 576 389 l 504 389 q 440 391 471 390 q 378 393 410 392 q 374 393 376 393 l 374 118 l 389 103 l 610 103 q 619 137 615 119 q 629 172 624 154 q 643 217 636 193 q 658 269 650 240 l 744 269 l 718 0 l 53 0 l 53 92 q 87 99 61 93 q 137 108 113 104 q 169 114 161 113 l 169 753 m 450 961 l 401 939 l 133 1183 l 133 1194 l 353 1194 l 450 961 z "},"Ē":{"ha":763,"x_min":53,"x_max":744,"o":"m 169 753 q 135 759 161 754 q 85 769 110 764 q 53 775 61 774 l 53 867 l 718 867 l 718 611 l 633 611 q 622 663 628 638 q 608 711 615 688 q 601 738 604 725 q 594 764 597 751 l 374 764 l 374 492 l 432 494 q 508 497 469 496 l 576 497 l 576 389 l 504 389 q 440 391 471 390 q 378 393 410 392 q 374 393 376 393 l 374 118 l 389 103 l 610 103 q 619 137 615 119 q 629 172 624 154 q 643 217 636 193 q 658 269 650 240 l 744 269 l 718 0 l 53 0 l 53 92 q 87 99 61 93 q 137 108 113 104 q 169 114 161 113 l 169 753 m 197 1078 l 589 1078 l 589 961 l 197 961 l 197 1078 z "},"Ę":{"ha":763,"x_min":53,"x_max":744,"o":"m 169 753 q 135 759 161 754 q 85 769 110 764 q 53 775 61 774 l 53 867 l 718 867 l 718 611 l 633 611 q 622 663 628 638 q 608 711 615 688 q 601 738 604 725 q 594 764 597 751 l 374 764 l 374 492 l 432 494 q 508 497 469 496 l 576 497 l 576 389 l 504 389 q 440 391 471 390 q 378 393 410 392 q 374 393 376 393 l 374 118 l 389 103 l 610 103 q 619 137 615 119 q 629 172 624 154 q 643 217 636 193 q 658 269 650 240 l 744 269 l 718 0 q 715 -4 717 -3 q 710 -7 713 -6 q 642 -84 667 -50 q 618 -150 618 -118 q 633 -192 618 -178 q 674 -206 647 -206 q 702 -202 688 -206 q 729 -194 717 -199 l 729 -250 q 679 -278 706 -268 q 618 -289 653 -289 q 517 -261 554 -289 q 479 -183 479 -233 q 539 -65 479 -128 q 619 0 576 -26 l 53 0 l 53 92 q 87 99 61 93 q 137 108 113 104 q 169 114 161 113 l 169 753 z "},"F":{"ha":690,"x_min":53,"x_max":704,"o":"m 169 753 q 135 759 161 754 q 85 769 110 764 q 53 775 61 774 l 53 867 l 704 867 l 704 611 l 619 611 q 613 638 617 624 q 606 667 608 653 q 594 717 600 693 q 581 764 588 742 l 374 764 l 374 468 l 438 471 q 514 474 475 472 l 582 474 l 582 365 l 510 365 q 446 367 476 367 q 383 369 415 368 q 374 369 378 369 l 374 114 q 414 108 383 113 q 474 98 444 103 q 514 92 504 93 l 514 0 l 53 0 l 53 92 q 87 99 61 93 q 137 108 113 104 q 169 114 161 113 l 169 753 z "},"G":{"ha":875,"x_min":54,"x_max":863,"o":"m 54 456 q 115 685 54 589 q 287 833 176 782 q 540 883 397 883 q 677 873 614 883 q 786 850 740 863 l 792 561 l 694 561 q 660 658 681 601 q 636 723 646 696 q 621 763 626 750 q 422 749 499 779 q 309 644 344 718 q 274 456 274 571 q 309 258 274 340 q 408 132 344 175 q 551 89 471 89 q 604 94 581 89 l 604 281 q 570 287 596 282 q 520 297 544 292 q 488 303 496 301 l 488 394 l 863 394 l 863 303 q 844 296 858 301 q 819 286 831 290 q 804 281 808 282 l 804 28 q 672 -4 743 8 q 517 -17 600 -17 q 274 40 379 -17 q 112 204 169 97 q 54 456 54 311 z "},"Ǵ":{"ha":875,"x_min":54,"x_max":863,"o":"m 54 456 q 115 685 54 589 q 287 833 176 782 q 540 883 397 883 q 677 873 614 883 q 786 850 740 863 l 792 561 l 694 561 q 660 658 681 601 q 636 723 646 696 q 621 763 626 750 q 422 749 499 779 q 309 644 344 718 q 274 456 274 571 q 309 258 274 340 q 408 132 344 175 q 551 89 471 89 q 604 94 581 89 l 604 281 q 570 287 596 282 q 520 297 544 292 q 488 303 496 301 l 488 394 l 863 394 l 863 303 q 844 296 858 301 q 819 286 831 290 q 804 281 808 282 l 804 28 q 672 -4 743 8 q 517 -17 600 -17 q 274 40 379 -17 q 112 204 169 97 q 54 456 54 311 m 454 961 l 551 1194 l 772 1194 l 772 1183 l 503 939 l 454 961 z "},"Ğ":{"ha":875,"x_min":54,"x_max":863,"o":"m 54 456 q 115 685 54 589 q 287 833 176 782 q 540 883 397 883 q 677 873 614 883 q 786 850 740 863 l 792 561 l 694 561 q 660 658 681 601 q 636 723 646 696 q 621 763 626 750 q 422 749 499 779 q 309 644 344 718 q 274 456 274 571 q 309 258 274 340 q 408 132 344 175 q 551 89 471 89 q 604 94 581 89 l 604 281 q 570 287 596 282 q 520 297 544 292 q 488 303 496 301 l 488 394 l 863 394 l 863 303 q 844 296 858 301 q 819 286 831 290 q 804 281 808 282 l 804 28 q 672 -4 743 8 q 517 -17 600 -17 q 274 40 379 -17 q 112 204 169 97 q 54 456 54 311 m 704 1172 q 649 1002 700 1065 q 508 939 599 939 q 369 1002 419 939 q 314 1172 318 1065 l 386 1183 q 431 1103 399 1128 q 508 1078 463 1078 q 588 1103 556 1078 q 631 1183 619 1128 l 704 1172 z "},"Ǧ":{"ha":875,"x_min":54,"x_max":863,"o":"m 54 456 q 115 685 54 589 q 287 833 176 782 q 540 883 397 883 q 677 873 614 883 q 786 850 740 863 l 792 561 l 694 561 q 660 658 681 601 q 636 723 646 696 q 621 763 626 750 q 422 749 499 779 q 309 644 344 718 q 274 456 274 571 q 309 258 274 340 q 408 132 344 175 q 551 89 471 89 q 604 94 581 89 l 604 281 q 570 287 596 282 q 520 297 544 292 q 488 303 496 301 l 488 394 l 863 394 l 863 303 q 844 296 858 301 q 819 286 831 290 q 804 281 808 282 l 804 28 q 672 -4 743 8 q 517 -17 600 -17 q 274 40 379 -17 q 112 204 169 97 q 54 456 54 311 m 638 1217 l 717 1172 l 539 939 l 472 939 l 301 1172 l 375 1217 l 508 1100 l 638 1217 z "},"Ĝ":{"ha":875,"x_min":54,"x_max":863,"o":"m 54 456 q 115 685 54 589 q 287 833 176 782 q 540 883 397 883 q 677 873 614 883 q 786 850 740 863 l 792 561 l 694 561 q 660 658 681 601 q 636 723 646 696 q 621 763 626 750 q 422 749 499 779 q 309 644 344 718 q 274 456 274 571 q 309 258 274 340 q 408 132 344 175 q 551 89 471 89 q 604 94 581 89 l 604 281 q 570 287 596 282 q 520 297 544 292 q 488 303 496 301 l 488 394 l 863 394 l 863 303 q 844 296 858 301 q 819 286 831 290 q 804 281 808 282 l 804 28 q 672 -4 743 8 q 517 -17 600 -17 q 274 40 379 -17 q 112 204 169 97 q 54 456 54 311 m 636 928 l 508 1044 l 374 928 l 300 972 l 472 1206 l 539 1206 l 717 972 l 636 928 z "},"Ģ":{"ha":875,"x_min":54,"x_max":863,"o":"m 54 456 q 115 685 54 589 q 287 833 176 782 q 540 883 397 883 q 677 873 614 883 q 786 850 740 863 l 792 561 l 694 561 q 660 658 681 601 q 636 723 646 696 q 621 763 626 750 q 422 749 499 779 q 309 644 344 718 q 274 456 274 571 q 309 258 274 340 q 408 132 344 175 q 551 89 471 89 q 604 94 581 89 l 604 281 q 570 287 596 282 q 520 297 544 292 q 488 303 496 301 l 488 394 l 863 394 l 863 303 q 844 296 858 301 q 819 286 831 290 q 804 281 808 282 l 804 28 q 672 -4 743 8 q 517 -17 600 -17 q 274 40 379 -17 q 112 204 169 97 q 54 456 54 311 m 365 -389 q 393 -210 372 -339 q 421 -67 414 -81 q 517 -94 446 -72 q 599 -122 588 -115 q 558 -201 596 -131 q 482 -342 521 -272 q 438 -417 443 -411 q 404 -408 428 -417 q 365 -389 381 -400 z "},"Ġ":{"ha":875,"x_min":54,"x_max":863,"o":"m 54 456 q 115 685 54 589 q 287 833 176 782 q 540 883 397 883 q 677 873 614 883 q 786 850 740 863 l 792 561 l 694 561 q 660 658 681 601 q 636 723 646 696 q 621 763 626 750 q 422 749 499 779 q 309 644 344 718 q 274 456 274 571 q 309 258 274 340 q 408 132 344 175 q 551 89 471 89 q 604 94 581 89 l 604 281 q 570 287 596 282 q 520 297 544 292 q 488 303 496 301 l 488 394 l 863 394 l 863 303 q 844 296 858 301 q 819 286 831 290 q 804 281 808 282 l 804 28 q 672 -4 743 8 q 517 -17 600 -17 q 274 40 379 -17 q 112 204 169 97 q 54 456 54 311 m 363 1061 q 430 1128 363 1067 q 503 1189 497 1189 q 549 1160 513 1189 q 620 1098 585 1131 q 656 1061 656 1065 q 622 1018 656 1053 q 550 953 588 983 q 503 922 513 922 q 463 955 499 922 q 394 1020 426 988 q 363 1061 363 1053 z "},"H":{"ha":1075,"x_min":53,"x_max":1022,"o":"m 418 867 l 467 867 l 467 775 q 439 769 460 774 q 399 759 418 764 q 374 753 381 754 l 374 503 l 700 503 l 700 753 q 673 759 693 754 q 633 769 653 764 q 607 775 614 774 l 607 867 l 1022 867 l 1022 775 q 988 768 1014 774 q 938 758 961 763 q 906 753 914 754 l 906 114 q 939 107 914 113 q 989 97 964 101 l 1022 92 l 1022 0 l 607 0 l 607 92 q 634 98 614 93 q 674 108 654 103 q 700 114 693 113 l 700 386 l 374 386 l 374 114 q 400 108 381 113 q 440 98 419 103 q 467 92 460 93 l 467 0 l 53 0 l 53 92 q 87 99 61 93 q 137 108 113 104 q 169 114 161 113 l 169 753 q 135 759 161 754 q 85 769 110 764 q 53 775 61 774 l 53 867 l 418 867 z "},"Ħ":{"ha":1075,"x_min":53,"x_max":1022,"o":"m 88 594 l 88 689 l 169 689 l 169 753 q 135 759 161 754 q 85 769 110 764 q 53 775 61 774 l 53 867 l 467 867 l 467 775 q 439 769 460 774 q 399 759 418 764 q 374 753 381 754 l 374 689 l 700 689 l 700 753 q 673 759 693 754 q 633 769 653 764 q 607 775 614 774 l 607 867 l 1022 867 l 1022 775 q 988 768 1014 774 q 938 758 961 763 q 906 753 914 754 l 906 689 l 988 689 l 988 594 l 906 594 l 906 114 q 939 107 914 113 q 989 97 964 101 l 1022 92 l 1022 0 l 607 0 l 607 92 q 634 98 614 93 q 674 108 654 103 q 700 114 693 113 l 700 386 l 374 386 l 374 114 q 400 108 381 113 q 440 98 419 103 q 467 92 460 93 l 467 0 l 53 0 l 53 92 q 87 99 61 93 q 137 108 113 104 q 169 114 161 113 l 169 594 l 88 594 m 374 594 l 374 503 l 700 503 l 700 594 l 374 594 z "},"Ĥ":{"ha":1075,"x_min":53,"x_max":1022,"o":"m 418 867 l 467 867 l 467 775 q 439 769 460 774 q 399 759 418 764 q 374 753 381 754 l 374 503 l 700 503 l 700 753 q 673 759 693 754 q 633 769 653 764 q 607 775 614 774 l 607 867 l 1022 867 l 1022 775 q 988 768 1014 774 q 938 758 961 763 q 906 753 914 754 l 906 114 q 939 107 914 113 q 989 97 964 101 l 1022 92 l 1022 0 l 607 0 l 607 92 q 634 98 614 93 q 674 108 654 103 q 700 114 693 113 l 700 386 l 374 386 l 374 114 q 400 108 381 113 q 440 98 419 103 q 467 92 460 93 l 467 0 l 53 0 l 53 92 q 87 99 61 93 q 137 108 113 104 q 169 114 161 113 l 169 753 q 135 759 161 754 q 85 769 110 764 q 53 775 61 774 l 53 867 l 418 867 m 663 928 l 535 1044 l 400 928 l 326 972 l 499 1206 l 565 1206 l 743 972 l 663 928 z "},"I":{"ha":543,"x_min":53,"x_max":490,"o":"m 431 867 l 490 867 l 490 775 q 456 768 482 774 q 406 758 429 763 q 374 753 382 754 l 374 114 q 407 107 382 113 q 457 97 432 101 l 490 92 l 490 0 l 53 0 l 53 92 q 87 99 61 93 q 137 108 113 104 q 169 114 161 113 l 169 753 q 135 759 161 754 q 85 769 110 764 q 53 775 61 774 l 53 867 l 431 867 z "},"Ĳ":{"ha":1207,"x_min":53,"x_max":1182,"o":"m 726 -17 q 569 6 644 -17 l 564 278 l 651 278 q 679 192 661 244 q 713 99 697 140 q 718 86 715 92 q 726 86 722 86 q 850 138 817 86 q 883 292 883 189 l 883 753 q 839 759 872 754 q 774 769 806 764 q 732 775 743 774 l 732 867 l 1182 867 l 1182 775 q 1154 769 1175 774 q 1115 759 1133 764 q 1089 753 1096 754 l 1089 317 q 1057 132 1089 204 q 946 22 1025 60 q 726 -17 867 -17 m 431 867 l 490 867 l 490 775 q 456 768 482 774 q 406 758 429 763 q 374 753 382 754 l 374 114 q 407 107 382 113 q 457 97 432 101 l 490 92 l 490 0 l 53 0 l 53 92 q 87 99 61 93 q 137 108 113 104 q 169 114 161 113 l 169 753 q 135 759 161 754 q 85 769 110 764 q 53 775 61 774 l 53 867 l 431 867 z "},"Í":{"ha":543,"x_min":53,"x_max":536,"o":"m 431 867 l 490 867 l 490 775 q 456 768 482 774 q 406 758 429 763 q 374 753 382 754 l 374 114 q 407 107 382 113 q 457 97 432 101 l 490 92 l 490 0 l 53 0 l 53 92 q 87 99 61 93 q 137 108 113 104 q 169 114 161 113 l 169 753 q 135 759 161 754 q 85 769 110 764 q 53 775 61 774 l 53 867 l 431 867 m 218 961 l 315 1194 l 536 1194 l 536 1183 l 267 939 l 218 961 z "},"Ĭ":{"ha":543,"x_min":53,"x_max":490,"o":"m 431 867 l 490 867 l 490 775 q 456 768 482 774 q 406 758 429 763 q 374 753 382 754 l 374 114 q 407 107 382 113 q 457 97 432 101 l 490 92 l 490 0 l 53 0 l 53 92 q 87 99 61 93 q 137 108 113 104 q 169 114 161 113 l 169 753 q 135 759 161 754 q 85 769 110 764 q 53 775 61 774 l 53 867 l 431 867 m 468 1172 q 413 1002 464 1065 q 272 939 363 939 q 133 1002 183 939 q 78 1172 82 1065 l 150 1183 q 194 1103 163 1128 q 272 1078 226 1078 q 351 1103 319 1078 q 394 1183 383 1128 l 468 1172 z "},"Î":{"ha":543,"x_min":53,"x_max":490,"o":"m 431 867 l 490 867 l 490 775 q 456 768 482 774 q 406 758 429 763 q 374 753 382 754 l 374 114 q 407 107 382 113 q 457 97 432 101 l 490 92 l 490 0 l 53 0 l 53 92 q 87 99 61 93 q 137 108 113 104 q 169 114 161 113 l 169 753 q 135 759 161 754 q 85 769 110 764 q 53 775 61 774 l 53 867 l 431 867 m 400 928 l 272 1044 l 138 928 l 64 972 l 236 1206 l 303 1206 l 481 972 l 400 928 z "},"Ï":{"ha":543,"x_min":26,"x_max":524,"o":"m 431 867 l 490 867 l 490 775 q 456 768 482 774 q 406 758 429 763 q 374 753 382 754 l 374 114 q 407 107 382 113 q 457 97 432 101 l 490 92 l 490 0 l 53 0 l 53 92 q 87 99 61 93 q 137 108 113 104 q 169 114 161 113 l 169 753 q 135 759 161 754 q 85 769 110 764 q 53 775 61 774 l 53 867 l 431 867 m 279 1056 q 334 1117 278 1061 q 394 1172 390 1172 q 464 1117 404 1172 q 524 1056 524 1061 q 464 990 524 1046 q 394 933 404 933 q 335 990 390 933 q 279 1056 281 1047 m 28 1056 q 83 1116 26 1060 q 144 1172 140 1172 q 214 1117 156 1172 q 272 1056 272 1061 q 214 990 272 1046 q 144 933 156 933 q 85 990 140 933 q 28 1056 31 1047 z "},"İ":{"ha":543,"x_min":53,"x_max":490,"o":"m 431 867 l 490 867 l 490 775 q 456 768 482 774 q 406 758 429 763 q 374 753 382 754 l 374 114 q 407 107 382 113 q 457 97 432 101 l 490 92 l 490 0 l 53 0 l 53 92 q 87 99 61 93 q 137 108 113 104 q 169 114 161 113 l 169 753 q 135 759 161 754 q 85 769 110 764 q 53 775 61 774 l 53 867 l 431 867 m 126 1061 q 194 1128 126 1067 q 267 1189 261 1189 q 313 1160 276 1189 q 384 1098 349 1131 q 419 1061 419 1065 q 385 1018 419 1053 q 314 953 351 983 q 267 922 276 922 q 226 955 263 922 q 158 1020 190 988 q 126 1061 126 1053 z "},"Ì":{"ha":543,"x_min":17,"x_max":490,"o":"m 431 867 l 490 867 l 490 775 q 456 768 482 774 q 406 758 429 763 q 374 753 382 754 l 374 114 q 407 107 382 113 q 457 97 432 101 l 490 92 l 490 0 l 53 0 l 53 92 q 87 99 61 93 q 137 108 113 104 q 169 114 161 113 l 169 753 q 135 759 161 754 q 85 769 110 764 q 53 775 61 774 l 53 867 l 431 867 m 333 961 l 285 939 l 17 1183 l 17 1194 l 236 1194 l 333 961 z "},"Ī":{"ha":543,"x_min":53,"x_max":490,"o":"m 431 867 l 490 867 l 490 775 q 456 768 482 774 q 406 758 429 763 q 374 753 382 754 l 374 114 q 407 107 382 113 q 457 97 432 101 l 490 92 l 490 0 l 53 0 l 53 92 q 87 99 61 93 q 137 108 113 104 q 169 114 161 113 l 169 753 q 135 759 161 754 q 85 769 110 764 q 53 775 61 774 l 53 867 l 431 867 m 81 1078 l 472 1078 l 472 961 l 81 961 l 81 1078 z "},"Į":{"ha":543,"x_min":53,"x_max":501,"o":"m 490 0 q 487 -4 489 -3 q 482 -7 485 -6 q 415 -84 439 -50 q 390 -150 390 -118 q 405 -192 390 -178 q 446 -206 419 -206 q 474 -202 460 -206 q 501 -194 489 -199 l 501 -250 q 451 -278 478 -268 q 390 -289 425 -289 q 289 -261 326 -289 q 251 -183 251 -233 q 311 -65 251 -128 q 392 0 349 -26 l 53 0 l 53 92 q 87 99 61 93 q 137 108 113 104 q 169 114 161 113 l 169 753 q 135 759 161 754 q 85 769 110 764 q 53 775 61 774 l 53 867 l 490 867 l 490 775 q 456 768 482 774 q 406 758 429 763 q 374 753 382 754 l 374 114 q 407 107 382 113 q 457 97 432 101 l 490 92 l 490 0 z "},"Ĩ":{"ha":543,"x_min":47,"x_max":500,"o":"m 431 867 l 490 867 l 490 775 q 456 768 482 774 q 406 758 429 763 q 374 753 382 754 l 374 114 q 407 107 382 113 q 457 97 432 101 l 490 92 l 490 0 l 53 0 l 53 92 q 87 99 61 93 q 137 108 113 104 q 169 114 161 113 l 169 753 q 135 759 161 754 q 85 769 110 764 q 53 775 61 774 l 53 867 l 431 867 m 189 1200 q 272 1174 242 1200 q 331 1104 301 1149 q 352 1072 343 1083 q 372 1061 361 1061 q 401 1089 390 1061 q 421 1183 411 1117 l 500 1178 q 472 997 500 1060 q 360 933 443 933 q 275 960 306 933 q 218 1031 244 986 q 197 1062 206 1051 q 176 1072 188 1072 q 152 1046 163 1072 q 128 950 142 1019 l 47 956 q 76 1138 47 1075 q 189 1200 104 1200 z "},"J":{"ha":664,"x_min":21,"x_max":639,"o":"m 183 -17 q 26 6 101 -17 l 21 278 l 108 278 q 136 192 118 244 q 169 99 154 140 q 175 86 172 92 q 183 86 179 86 q 307 138 274 86 q 340 292 340 189 l 340 753 q 297 759 329 754 q 232 769 264 764 q 189 775 200 774 l 189 867 l 639 867 l 639 775 q 611 769 632 774 q 572 759 590 764 q 546 753 553 754 l 546 317 q 514 132 546 204 q 403 22 482 60 q 183 -17 324 -17 z "},"Ĵ":{"ha":664,"x_min":21,"x_max":639,"o":"m 183 -17 q 26 6 101 -17 l 21 278 l 108 278 q 136 192 118 244 q 169 99 154 140 q 175 86 172 92 q 183 86 179 86 q 307 138 274 86 q 340 292 340 189 l 340 753 q 297 759 329 754 q 232 769 264 764 q 189 775 200 774 l 189 867 l 639 867 l 639 775 q 611 769 632 774 q 572 759 590 764 q 546 753 553 754 l 546 317 q 514 132 546 204 q 403 22 482 60 q 183 -17 324 -17 m 557 928 l 429 1044 l 294 928 l 221 972 l 393 1206 l 460 1206 l 638 972 l 557 928 z "},"K":{"ha":988,"x_min":53,"x_max":956,"o":"m 692 764 q 671 770 686 765 q 641 779 656 775 q 621 785 626 783 l 621 867 l 951 867 l 951 775 q 908 765 929 771 q 877 759 893 763 q 847 753 861 756 l 599 511 l 863 103 q 909 92 876 100 q 956 82 942 85 l 956 0 l 671 0 l 453 369 l 374 293 l 374 114 q 407 107 382 113 q 457 97 432 101 l 490 92 l 490 0 l 53 0 l 53 92 q 87 99 61 93 q 137 108 113 104 q 169 114 161 113 l 169 753 q 135 759 161 754 q 85 769 110 764 q 53 775 61 774 l 53 867 l 472 867 l 472 775 q 443 769 465 774 q 401 759 421 764 q 374 753 381 754 l 374 443 l 692 764 z "},"Ķ":{"ha":988,"x_min":53,"x_max":956,"o":"m 692 764 q 671 770 686 765 q 641 779 656 775 q 621 785 626 783 l 621 867 l 951 867 l 951 775 q 908 765 929 771 q 877 759 893 763 q 847 753 861 756 l 599 511 l 863 103 q 909 92 876 100 q 956 82 942 85 l 956 0 l 671 0 l 453 369 l 374 293 l 374 114 q 407 107 382 113 q 457 97 432 101 l 490 92 l 490 0 l 53 0 l 53 92 q 87 99 61 93 q 137 108 113 104 q 169 114 161 113 l 169 753 q 135 759 161 754 q 85 769 110 764 q 53 775 61 774 l 53 867 l 472 867 l 472 775 q 443 769 465 774 q 401 759 421 764 q 374 753 381 754 l 374 443 l 692 764 m 386 -389 q 414 -210 393 -339 q 442 -67 435 -81 q 538 -94 467 -72 q 619 -122 608 -115 q 579 -201 617 -131 q 503 -342 542 -272 q 458 -417 464 -411 q 425 -408 449 -417 q 386 -389 401 -400 z "},"L":{"ha":739,"x_min":53,"x_max":728,"o":"m 169 753 q 135 759 161 754 q 85 769 110 764 q 53 775 61 774 l 53 867 l 514 867 l 514 775 q 474 769 504 774 q 413 759 443 764 q 374 753 383 754 l 374 117 q 378 113 375 115 q 382 110 381 111 l 389 103 l 583 103 q 594 142 589 122 q 604 181 599 161 q 622 244 613 210 q 642 321 631 278 l 728 321 l 701 0 l 53 0 l 53 92 q 87 99 61 93 q 137 108 113 104 q 169 114 161 113 l 169 753 z "},"Ĺ":{"ha":739,"x_min":53,"x_max":728,"o":"m 169 753 q 135 759 161 754 q 85 769 110 764 q 53 775 61 774 l 53 867 l 514 867 l 514 775 q 474 769 504 774 q 413 759 443 764 q 374 753 383 754 l 374 117 q 378 113 375 115 q 382 110 381 111 l 389 103 l 583 103 q 594 142 589 122 q 604 181 599 161 q 622 244 613 210 q 642 321 631 278 l 728 321 l 701 0 l 53 0 l 53 92 q 87 99 61 93 q 137 108 113 104 q 169 114 161 113 l 169 753 m 215 961 l 313 1194 l 533 1194 l 533 1183 l 264 939 l 215 961 z "},"Ľ":{"ha":739,"x_min":53,"x_max":799,"o":"m 169 753 q 135 759 161 754 q 85 769 110 764 q 53 775 61 774 l 53 867 l 514 867 l 514 775 q 474 769 504 774 q 413 759 443 764 q 374 753 383 754 l 374 117 q 378 113 375 115 q 382 110 381 111 l 389 103 l 583 103 q 594 142 589 122 q 604 181 599 161 q 622 244 613 210 q 642 321 631 278 l 728 321 l 701 0 l 53 0 l 53 92 q 87 99 61 93 q 137 108 113 104 q 169 114 161 113 l 169 753 m 565 589 q 593 768 572 639 q 621 911 614 897 q 717 884 646 906 q 799 856 788 863 q 758 776 796 847 q 682 636 721 706 q 638 561 643 567 q 604 569 628 561 q 565 589 581 578 z "},"Ļ":{"ha":739,"x_min":53,"x_max":728,"o":"m 169 753 q 135 759 161 754 q 85 769 110 764 q 53 775 61 774 l 53 867 l 514 867 l 514 775 q 474 769 504 774 q 413 759 443 764 q 374 753 383 754 l 374 117 q 378 113 375 115 q 382 110 381 111 l 389 103 l 583 103 q 594 142 589 122 q 604 181 599 161 q 622 244 613 210 q 642 321 631 278 l 728 321 l 701 0 l 53 0 l 53 92 q 87 99 61 93 q 137 108 113 104 q 169 114 161 113 l 169 753 m 258 -389 q 286 -210 265 -339 q 314 -67 307 -81 q 410 -94 339 -72 q 492 -122 481 -115 q 451 -201 489 -131 q 375 -342 414 -272 q 331 -417 336 -411 q 297 -408 321 -417 q 258 -389 274 -400 z "},"Ŀ":{"ha":672,"x_min":53,"x_max":728,"o":"m 169 753 q 135 759 161 754 q 85 769 110 764 q 53 775 61 774 l 53 867 l 514 867 l 514 775 q 474 769 504 774 q 413 759 443 764 q 374 753 383 754 l 374 117 q 378 113 375 115 q 382 110 381 111 l 389 103 l 583 103 q 594 142 589 122 q 604 181 599 161 q 622 244 613 210 q 642 321 631 278 l 728 321 l 701 0 l 53 0 l 53 92 q 87 99 61 93 q 137 108 113 104 q 169 114 161 113 l 169 753 m 450 494 q 511 561 450 500 q 578 622 572 622 q 619 593 586 622 q 684 531 651 564 q 717 494 717 499 q 654 418 717 481 q 578 356 592 356 q 541 388 574 356 q 479 453 508 421 q 450 494 450 486 z "},"Ł":{"ha":739,"x_min":53,"x_max":728,"o":"m 169 753 q 135 759 161 754 q 85 769 110 764 q 53 775 61 774 l 53 867 l 514 867 l 514 775 q 474 769 504 774 q 413 759 443 764 q 374 753 383 754 l 374 593 l 475 689 l 486 683 l 486 556 l 374 450 l 374 117 q 378 113 375 115 q 382 110 381 111 l 389 103 l 583 103 q 594 142 589 122 q 604 181 599 161 q 622 244 613 210 q 642 321 631 278 l 728 321 l 701 0 l 53 0 l 53 92 q 87 99 61 93 q 137 108 113 104 q 169 114 161 113 l 169 257 l 86 178 l 75 183 l 75 311 l 169 400 l 169 753 z "},"M":{"ha":1242,"x_min":14,"x_max":1226,"o":"m 442 867 q 527 611 481 746 q 615 368 574 476 q 624 350 619 358 q 624 349 624 350 l 825 867 l 1188 867 l 1188 775 q 1151 769 1178 774 q 1098 759 1124 764 q 1063 753 1072 754 l 1110 114 q 1143 107 1118 113 q 1193 97 1168 101 l 1226 92 l 1226 0 l 789 0 l 789 92 q 821 99 797 93 l 868 108 q 900 114 892 113 l 864 651 l 610 11 l 522 11 q 496 86 508 49 q 469 161 483 124 q 353 493 411 329 q 293 654 319 585 l 260 114 q 290 107 267 113 q 334 97 313 101 q 363 92 356 93 l 363 0 l 14 0 l 14 92 q 50 98 24 93 q 102 108 76 103 q 138 114 128 113 l 189 753 q 149 759 179 754 q 88 769 118 764 q 49 775 58 774 l 49 867 l 442 867 z "},"N":{"ha":986,"x_min":32,"x_max":975,"o":"m 379 867 q 509 676 443 767 q 681 446 575 585 q 731 382 706 414 q 743 364 736 372 l 743 753 q 708 759 735 754 q 656 769 682 764 q 622 775 631 774 l 622 867 l 975 867 l 975 775 q 942 769 967 774 q 895 759 918 764 q 864 753 872 754 l 864 -3 l 753 -3 q 653 133 703 65 q 556 267 604 200 q 399 481 478 374 q 281 636 340 557 l 281 114 q 320 108 290 113 q 381 98 350 103 q 421 92 411 93 l 421 0 l 43 0 l 43 92 q 77 99 51 93 q 127 108 103 104 q 160 114 151 113 l 160 753 q 122 759 150 754 q 68 769 94 764 q 32 775 42 774 l 32 867 l 379 867 z "},"Ń":{"ha":986,"x_min":32,"x_max":975,"o":"m 379 867 q 509 676 443 767 q 681 446 575 585 q 731 382 706 414 q 743 364 736 372 l 743 753 q 708 759 735 754 q 656 769 682 764 q 622 775 631 774 l 622 867 l 975 867 l 975 775 q 942 769 967 774 q 895 759 918 764 q 864 753 872 754 l 864 -3 l 753 -3 q 653 133 703 65 q 556 267 604 200 q 399 481 478 374 q 281 636 340 557 l 281 114 q 320 108 290 113 q 381 98 350 103 q 421 92 411 93 l 421 0 l 43 0 l 43 92 q 77 99 51 93 q 127 108 103 104 q 160 114 151 113 l 160 753 q 122 759 150 754 q 68 769 94 764 q 32 775 42 774 l 32 867 l 379 867 m 482 961 l 579 1194 l 800 1194 l 800 1183 l 531 939 l 482 961 z "},"Ň":{"ha":986,"x_min":32,"x_max":975,"o":"m 379 867 q 509 676 443 767 q 681 446 575 585 q 731 382 706 414 q 743 364 736 372 l 743 753 q 708 759 735 754 q 656 769 682 764 q 622 775 631 774 l 622 867 l 975 867 l 975 775 q 942 769 967 774 q 895 759 918 764 q 864 753 872 754 l 864 -3 l 753 -3 q 653 133 703 65 q 556 267 604 200 q 399 481 478 374 q 281 636 340 557 l 281 114 q 320 108 290 113 q 381 98 350 103 q 421 92 411 93 l 421 0 l 43 0 l 43 92 q 77 99 51 93 q 127 108 103 104 q 160 114 151 113 l 160 753 q 122 759 150 754 q 68 769 94 764 q 32 775 42 774 l 32 867 l 379 867 m 665 1217 l 744 1172 l 567 939 l 500 939 l 329 1172 l 403 1217 l 536 1100 l 665 1217 z "},"Ņ":{"ha":986,"x_min":32,"x_max":975,"o":"m 379 867 q 509 676 443 767 q 681 446 575 585 q 731 382 706 414 q 743 364 736 372 l 743 753 q 708 759 735 754 q 656 769 682 764 q 622 775 631 774 l 622 867 l 975 867 l 975 775 q 942 769 967 774 q 895 759 918 764 q 864 753 872 754 l 864 -3 l 753 -3 q 653 133 703 65 q 556 267 604 200 q 399 481 478 374 q 281 636 340 557 l 281 114 q 320 108 290 113 q 381 98 350 103 q 421 92 411 93 l 421 0 l 43 0 l 43 92 q 77 99 51 93 q 127 108 103 104 q 160 114 151 113 l 160 753 q 122 759 150 754 q 68 769 94 764 q 32 775 42 774 l 32 867 l 379 867 m 382 -389 q 410 -210 389 -339 q 438 -67 431 -81 q 533 -94 463 -72 q 615 -122 604 -115 q 575 -201 613 -131 q 499 -342 538 -272 q 454 -417 460 -411 q 421 -408 444 -417 q 382 -389 397 -400 z "},"Ŋ":{"ha":997,"x_min":19,"x_max":981,"o":"m 379 867 q 512 676 447 764 q 689 443 576 589 q 753 361 707 421 l 747 753 q 707 759 738 754 q 647 768 676 764 q 607 774 617 772 l 606 864 q 653 865 628 865 q 705 866 679 865 q 753 867 731 867 l 981 867 l 981 775 q 947 768 972 774 q 898 758 921 763 q 867 753 875 754 l 867 -94 q 821 -246 867 -192 q 679 -300 776 -299 l 679 -300 q 676 -300 678 -300 q 674 -300 675 -300 q 598 -294 633 -300 q 533 -278 563 -287 l 526 -100 l 614 -100 q 630 -146 622 -122 q 646 -192 638 -169 q 647 -196 647 -194 q 674 -197 660 -197 q 727 -173 708 -197 q 746 -103 746 -149 l 746 28 q 626 188 707 81 q 435 442 535 310 q 281 640 356 544 l 281 114 q 321 108 290 113 q 381 98 351 103 q 421 92 411 93 l 421 0 l 43 0 l 43 92 q 77 99 51 93 q 127 108 103 104 q 160 114 151 113 l 160 742 q 119 749 150 743 q 59 759 89 754 q 19 765 29 764 l 19 867 l 379 867 z "},"Ñ":{"ha":986,"x_min":32,"x_max":975,"o":"m 379 867 q 509 676 443 767 q 681 446 575 585 q 731 382 706 414 q 743 364 736 372 l 743 753 q 708 759 735 754 q 656 769 682 764 q 622 775 631 774 l 622 867 l 975 867 l 975 775 q 942 769 967 774 q 895 759 918 764 q 864 753 872 754 l 864 -3 l 753 -3 q 653 133 703 65 q 556 267 604 200 q 399 481 478 374 q 281 636 340 557 l 281 114 q 320 108 290 113 q 381 98 350 103 q 421 92 411 93 l 421 0 l 43 0 l 43 92 q 77 99 51 93 q 127 108 103 104 q 160 114 151 113 l 160 753 q 122 759 150 754 q 68 769 94 764 q 32 775 42 774 l 32 867 l 379 867 m 453 1200 q 535 1174 506 1200 q 594 1104 565 1149 q 616 1072 607 1083 q 636 1061 625 1061 q 665 1089 654 1061 q 685 1183 675 1117 l 764 1178 q 735 997 764 1060 q 624 933 707 933 q 539 960 569 933 q 482 1031 508 986 q 460 1062 469 1051 q 440 1072 451 1072 q 416 1046 426 1072 q 392 950 406 1019 l 311 956 q 340 1138 311 1075 q 453 1200 368 1200 z "},"O":{"ha":1018,"x_min":54,"x_max":964,"o":"m 500 -17 q 269 40 371 -17 q 111 198 168 96 q 54 433 54 300 q 113 665 54 563 q 276 826 171 768 q 513 883 381 883 q 741 827 638 883 q 904 669 844 771 q 964 433 964 567 q 902 203 964 306 q 734 42 840 100 q 500 -17 628 -17 m 514 107 q 636 144 585 107 q 716 251 688 181 q 744 422 744 322 q 714 604 744 528 q 629 721 683 681 q 506 760 575 761 q 383 724 435 758 q 302 619 331 689 q 274 450 274 550 q 303 265 274 342 q 388 147 333 188 q 514 107 442 107 z "},"Ó":{"ha":1018,"x_min":54,"x_max":964,"o":"m 500 -17 q 269 40 371 -17 q 111 198 168 96 q 54 433 54 300 q 113 665 54 563 q 276 826 171 768 q 513 883 381 883 q 741 827 638 883 q 904 669 844 771 q 964 433 964 567 q 902 203 964 306 q 734 42 840 100 q 500 -17 628 -17 m 514 107 q 636 144 585 107 q 716 251 688 181 q 744 422 744 322 q 714 604 744 528 q 629 721 683 681 q 506 760 575 761 q 383 724 435 758 q 302 619 331 689 q 274 450 274 550 q 303 265 274 342 q 388 147 333 188 q 514 107 442 107 m 456 961 l 553 1194 l 774 1194 l 774 1183 l 504 939 l 456 961 z "},"Ŏ":{"ha":1018,"x_min":54,"x_max":964,"o":"m 500 -17 q 269 40 371 -17 q 111 198 168 96 q 54 433 54 300 q 113 665 54 563 q 276 826 171 768 q 513 883 381 883 q 741 827 638 883 q 904 669 844 771 q 964 433 964 567 q 902 203 964 306 q 734 42 840 100 q 500 -17 628 -17 m 514 107 q 636 144 585 107 q 716 251 688 181 q 744 422 744 322 q 714 604 744 528 q 629 721 683 681 q 506 760 575 761 q 383 724 435 758 q 302 619 331 689 q 274 450 274 550 q 303 265 274 342 q 388 147 333 188 q 514 107 442 107 m 706 1172 q 651 1002 701 1065 q 510 939 600 939 q 370 1002 421 939 q 315 1172 319 1065 l 388 1183 q 432 1103 400 1128 q 510 1078 464 1078 q 589 1103 557 1078 q 632 1183 621 1128 l 706 1172 z "},"Ô":{"ha":1018,"x_min":54,"x_max":964,"o":"m 500 -17 q 269 40 371 -17 q 111 198 168 96 q 54 433 54 300 q 113 665 54 563 q 276 826 171 768 q 513 883 381 883 q 741 827 638 883 q 904 669 844 771 q 964 433 964 567 q 902 203 964 306 q 734 42 840 100 q 500 -17 628 -17 m 514 107 q 636 144 585 107 q 716 251 688 181 q 744 422 744 322 q 714 604 744 528 q 629 721 683 681 q 506 760 575 761 q 383 724 435 758 q 302 619 331 689 q 274 450 274 550 q 303 265 274 342 q 388 147 333 188 q 514 107 442 107 m 638 928 l 510 1044 l 375 928 l 301 972 l 474 1206 l 540 1206 l 718 972 l 638 928 z "},"Ö":{"ha":1018,"x_min":54,"x_max":964,"o":"m 500 -17 q 269 40 371 -17 q 111 198 168 96 q 54 433 54 300 q 113 665 54 563 q 276 826 171 768 q 513 883 381 883 q 741 827 638 883 q 904 669 844 771 q 964 433 964 567 q 902 203 964 306 q 734 42 840 100 q 500 -17 628 -17 m 514 107 q 636 144 585 107 q 716 251 688 181 q 744 422 744 322 q 714 604 744 528 q 629 721 683 681 q 506 760 575 761 q 383 724 435 758 q 302 619 331 689 q 274 450 274 550 q 303 265 274 342 q 388 147 333 188 q 514 107 442 107 m 265 1056 q 321 1116 264 1060 q 382 1172 378 1172 q 451 1117 393 1172 q 510 1056 510 1061 q 451 990 510 1046 q 382 933 393 933 q 323 990 378 933 q 265 1056 268 1047 m 517 1056 q 572 1117 515 1061 q 632 1172 628 1172 q 701 1117 642 1172 q 761 1056 761 1061 q 701 990 761 1046 q 632 933 642 933 q 573 990 628 933 q 517 1056 518 1047 z "},"Ò":{"ha":1018,"x_min":54,"x_max":964,"o":"m 500 -17 q 269 40 371 -17 q 111 198 168 96 q 54 433 54 300 q 113 665 54 563 q 276 826 171 768 q 513 883 381 883 q 741 827 638 883 q 904 669 844 771 q 964 433 964 567 q 902 203 964 306 q 734 42 840 100 q 500 -17 628 -17 m 514 107 q 636 144 585 107 q 716 251 688 181 q 744 422 744 322 q 714 604 744 528 q 629 721 683 681 q 506 760 575 761 q 383 724 435 758 q 302 619 331 689 q 274 450 274 550 q 303 265 274 342 q 388 147 333 188 q 514 107 442 107 m 571 961 l 522 939 l 254 1183 l 254 1194 l 474 1194 l 571 961 z "},"Ő":{"ha":1018,"x_min":54,"x_max":964,"o":"m 500 -17 q 269 40 371 -17 q 111 198 168 96 q 54 433 54 300 q 113 665 54 563 q 276 826 171 768 q 513 883 381 883 q 741 827 638 883 q 904 669 844 771 q 964 433 964 567 q 902 203 964 306 q 734 42 840 100 q 500 -17 628 -17 m 514 107 q 636 144 585 107 q 716 251 688 181 q 744 422 744 322 q 714 604 744 528 q 629 721 683 681 q 506 760 575 761 q 383 724 435 758 q 302 619 331 689 q 274 450 274 550 q 303 265 274 342 q 388 147 333 188 q 514 107 442 107 m 322 961 l 396 1194 l 592 1194 l 592 1183 l 371 939 l 322 961 m 579 961 l 683 1194 l 885 1194 l 885 1183 l 628 939 l 579 961 z "},"Ō":{"ha":1018,"x_min":54,"x_max":964,"o":"m 500 -17 q 269 40 371 -17 q 111 198 168 96 q 54 433 54 300 q 113 665 54 563 q 276 826 171 768 q 513 883 381 883 q 741 827 638 883 q 904 669 844 771 q 964 433 964 567 q 902 203 964 306 q 734 42 840 100 q 500 -17 628 -17 m 514 107 q 636 144 585 107 q 716 251 688 181 q 744 422 744 322 q 714 604 744 528 q 629 721 683 681 q 506 760 575 761 q 383 724 435 758 q 302 619 331 689 q 274 450 274 550 q 303 265 274 342 q 388 147 333 188 q 514 107 442 107 m 318 1078 l 710 1078 l 710 961 l 318 961 l 318 1078 z "},"Ø":{"ha":1018,"x_min":54,"x_max":964,"o":"m 199 0 l 65 0 l 168 119 q 111 199 136 154 q 54 433 54 300 q 113 665 54 563 q 276 826 171 768 q 513 883 381 883 q 742 828 638 883 q 768 811 754 819 l 815 867 l 949 867 l 846 747 q 904 669 879 713 q 964 433 964 567 q 902 203 964 306 q 734 42 840 100 q 500 -17 628 -17 q 269 40 371 -17 q 246 54 257 46 l 199 0 m 514 104 q 639 140 586 104 q 720 248 692 176 q 749 422 749 319 q 719 601 749 526 l 350 175 q 386 144 367 157 q 514 104 440 104 m 297 268 l 665 693 q 632 725 650 711 q 506 763 576 764 q 379 726 432 761 q 298 622 326 692 q 269 450 269 551 q 297 268 269 344 z "},"Ǿ":{"ha":1018,"x_min":54,"x_max":964,"o":"m 199 0 l 65 0 l 168 119 q 111 199 136 154 q 54 433 54 300 q 113 665 54 563 q 276 826 171 768 q 513 883 381 883 q 742 828 638 883 q 768 811 754 819 l 815 867 l 949 867 l 846 747 q 904 669 879 713 q 964 433 964 567 q 902 203 964 306 q 734 42 840 100 q 500 -17 628 -17 q 269 40 371 -17 q 246 54 257 46 l 199 0 m 514 104 q 639 140 586 104 q 720 248 692 176 q 749 422 749 319 q 719 601 749 526 l 350 175 q 386 144 367 157 q 514 104 440 104 m 297 268 l 665 693 q 632 725 650 711 q 506 763 576 764 q 379 726 432 761 q 298 622 326 692 q 269 450 269 551 q 297 268 269 344 m 456 961 l 553 1194 l 774 1194 l 774 1183 l 504 939 l 456 961 z "},"Õ":{"ha":1018,"x_min":54,"x_max":964,"o":"m 500 -17 q 269 40 371 -17 q 111 198 168 96 q 54 433 54 300 q 113 665 54 563 q 276 826 171 768 q 513 883 381 883 q 741 827 638 883 q 904 669 844 771 q 964 433 964 567 q 902 203 964 306 q 734 42 840 100 q 500 -17 628 -17 m 514 107 q 636 144 585 107 q 716 251 688 181 q 744 422 744 322 q 714 604 744 528 q 629 721 683 681 q 506 760 575 761 q 383 724 435 758 q 302 619 331 689 q 274 450 274 550 q 303 265 274 342 q 388 147 333 188 q 514 107 442 107 m 426 1200 q 509 1174 479 1200 q 568 1104 539 1149 q 590 1072 581 1083 q 610 1061 599 1061 q 638 1089 628 1061 q 658 1183 649 1117 l 738 1178 q 709 997 738 1060 q 597 933 681 933 q 513 960 543 933 q 456 1031 482 986 q 434 1062 443 1051 q 414 1072 425 1072 q 390 1046 400 1072 q 365 950 379 1019 l 285 956 q 313 1138 285 1075 q 426 1200 342 1200 z "},"Œ":{"ha":1213,"x_min":54,"x_max":1192,"o":"m 838 124 l 846 117 q 853 109 849 113 q 861 103 857 106 l 1019 103 q 1036 137 1028 119 q 1054 171 1044 154 q 1076 216 1064 192 q 1103 269 1088 240 l 1192 269 l 1165 0 l 633 0 q 506 -6 558 -6 q 274 49 376 -6 q 113 203 171 103 q 54 433 54 303 q 115 660 54 560 q 281 816 175 760 q 518 872 386 872 q 633 867 589 872 l 1142 867 l 1142 650 l 1054 650 q 1038 687 1046 668 q 1022 724 1029 706 l 1013 744 q 1003 764 1007 754 l 838 764 l 838 510 q 885 508 858 508 q 994 507 929 507 q 1002 524 997 514 q 1013 547 1007 535 q 1023 567 1018 558 q 1031 583 1028 576 l 1117 583 q 1110 514 1113 550 q 1106 443 1107 478 q 1104 376 1104 411 q 1106 308 1104 340 l 1024 308 q 1019 320 1022 313 q 1013 338 1017 328 q 999 374 1006 356 q 989 404 993 392 q 883 404 925 404 q 838 401 858 403 l 838 124 m 633 713 q 594 736 617 726 q 511 753 554 753 q 387 717 440 753 q 303 613 333 681 q 274 450 274 544 q 305 269 274 344 q 392 153 336 193 q 518 114 447 114 q 633 146 588 114 l 633 713 z "},"P":{"ha":807,"x_min":53,"x_max":783,"o":"m 374 114 q 414 108 383 113 q 474 98 444 103 q 514 92 504 93 l 514 0 l 53 0 l 53 92 q 87 99 61 93 q 137 108 113 104 q 169 114 161 113 l 169 753 q 135 759 161 754 q 85 769 110 764 q 53 775 61 774 l 53 867 l 443 867 q 700 805 617 867 q 783 608 783 743 q 738 456 783 522 q 610 353 693 389 q 421 317 528 317 q 374 319 396 317 l 374 114 m 374 428 q 426 425 397 425 q 536 468 506 425 q 567 586 567 511 q 552 680 567 640 q 504 742 538 719 q 417 764 471 764 l 410 764 q 374 760 392 764 l 374 428 z "},"Þ":{"ha":807,"x_min":53,"x_max":783,"o":"m 443 697 q 699 638 615 697 q 783 453 783 579 q 738 309 783 372 q 611 210 693 246 q 421 175 529 175 q 374 178 397 175 l 374 114 q 407 107 382 113 q 457 97 432 101 l 490 92 l 490 0 l 53 0 l 53 92 q 87 99 61 93 q 137 108 113 104 q 169 114 161 113 l 169 753 q 135 759 161 754 q 85 769 110 764 q 53 775 61 774 l 53 867 l 490 867 l 490 775 q 456 768 482 774 q 406 758 429 763 q 374 753 382 754 l 374 697 l 443 697 m 374 597 l 374 279 q 426 276 397 276 q 536 319 506 276 q 567 431 567 361 q 552 520 567 482 q 504 580 538 558 q 417 601 471 601 l 410 601 q 374 597 392 601 z "},"Q":{"ha":1018,"x_min":54,"x_max":986,"o":"m 58 -156 q 191 -136 139 -153 q 297 -67 243 -119 q 333 -26 319 -44 q 354 4 343 -14 q 269 40 310 17 q 111 198 168 96 q 54 433 54 300 q 113 665 54 563 q 276 826 171 768 q 513 883 381 883 q 741 827 638 883 q 904 669 844 771 q 964 433 964 567 q 902 203 964 306 q 734 42 840 100 q 500 -17 628 -17 q 479 -17 489 -17 q 443 -68 465 -42 q 440 -72 442 -71 q 444 -72 442 -72 q 472 -78 458 -75 l 685 -115 q 707 -118 694 -117 q 733 -122 719 -119 q 765 -126 750 -125 q 794 -128 781 -128 q 828 -124 811 -128 q 860 -114 844 -121 q 892 -94 878 -106 q 915 -68 906 -83 l 986 -100 q 936 -197 974 -150 q 851 -272 899 -243 q 763 -300 803 -300 q 703 -297 733 -300 q 650 -289 674 -293 l 425 -244 q 406 -241 415 -243 q 388 -236 397 -239 q 324 -218 346 -225 q 322 -219 322 -219 q 319 -221 321 -219 q 232 -264 281 -250 q 121 -278 183 -278 l 58 -278 l 58 -156 m 514 107 q 636 144 585 107 q 716 251 688 181 q 744 422 744 322 q 714 604 744 528 q 629 721 683 681 q 506 760 575 761 q 383 724 435 758 q 302 619 331 689 q 274 450 274 550 q 303 265 274 342 q 388 147 333 188 q 514 107 442 107 z "},"R":{"ha":911,"x_min":53,"x_max":876,"o":"m 632 0 l 403 386 l 403 456 q 517 510 472 463 q 561 628 561 557 q 522 728 561 693 q 415 764 483 764 l 410 764 q 374 760 392 764 l 374 114 q 399 108 381 113 q 436 98 418 103 q 461 92 454 93 l 461 0 l 53 0 l 53 92 q 87 99 61 93 q 137 108 113 104 q 169 114 161 113 l 169 753 q 135 759 161 754 q 85 769 110 764 q 53 775 61 774 l 53 867 l 444 867 q 635 840 561 867 q 742 763 708 814 q 776 639 776 713 q 728 517 776 571 q 606 429 679 464 l 806 114 q 841 103 817 111 q 876 92 865 96 l 876 0 l 632 0 z "},"Ŕ":{"ha":911,"x_min":53,"x_max":876,"o":"m 632 0 l 403 386 l 403 456 q 517 510 472 463 q 561 628 561 557 q 522 728 561 693 q 415 764 483 764 l 410 764 q 374 760 392 764 l 374 114 q 399 108 381 113 q 436 98 418 103 q 461 92 454 93 l 461 0 l 53 0 l 53 92 q 87 99 61 93 q 137 108 113 104 q 169 114 161 113 l 169 753 q 135 759 161 754 q 85 769 110 764 q 53 775 61 774 l 53 867 l 444 867 q 635 840 561 867 q 742 763 708 814 q 776 639 776 713 q 728 517 776 571 q 606 429 679 464 l 806 114 q 841 103 817 111 q 876 92 865 96 l 876 0 l 632 0 m 411 961 l 508 1194 l 729 1194 l 729 1183 l 460 939 l 411 961 z "},"Ř":{"ha":911,"x_min":53,"x_max":876,"o":"m 632 0 l 403 386 l 403 456 q 517 510 472 463 q 561 628 561 557 q 522 728 561 693 q 415 764 483 764 l 410 764 q 374 760 392 764 l 374 114 q 399 108 381 113 q 436 98 418 103 q 461 92 454 93 l 461 0 l 53 0 l 53 92 q 87 99 61 93 q 137 108 113 104 q 169 114 161 113 l 169 753 q 135 759 161 754 q 85 769 110 764 q 53 775 61 774 l 53 867 l 444 867 q 635 840 561 867 q 742 763 708 814 q 776 639 776 713 q 728 517 776 571 q 606 429 679 464 l 806 114 q 841 103 817 111 q 876 92 865 96 l 876 0 l 632 0 m 594 1217 l 674 1172 l 496 939 l 429 939 l 258 1172 l 332 1217 l 465 1100 l 594 1217 z "},"Ŗ":{"ha":911,"x_min":53,"x_max":876,"o":"m 632 0 l 403 386 l 403 456 q 517 510 472 463 q 561 628 561 557 q 522 728 561 693 q 415 764 483 764 l 410 764 q 374 760 392 764 l 374 114 q 399 108 381 113 q 436 98 418 103 q 461 92 454 93 l 461 0 l 53 0 l 53 92 q 87 99 61 93 q 137 108 113 104 q 169 114 161 113 l 169 753 q 135 759 161 754 q 85 769 110 764 q 53 775 61 774 l 53 867 l 444 867 q 635 840 561 867 q 742 763 708 814 q 776 639 776 713 q 728 517 776 571 q 606 429 679 464 l 806 114 q 841 103 817 111 q 876 92 865 96 l 876 0 l 632 0 m 375 -389 q 403 -210 382 -339 q 431 -67 424 -81 q 526 -94 456 -72 q 608 -122 597 -115 q 568 -201 606 -131 q 492 -342 531 -272 q 447 -417 453 -411 q 414 -408 438 -417 q 375 -389 390 -400 z "},"S":{"ha":682,"x_min":53,"x_max":638,"o":"m 297 -17 q 181 -9 240 -17 q 68 10 121 -1 q 67 11 67 11 l 64 11 l 58 293 l 146 293 q 181 194 164 242 q 213 106 197 146 q 408 113 351 89 q 464 207 464 136 q 442 279 464 251 q 387 322 419 307 q 297 356 354 338 q 172 405 221 379 q 88 486 122 431 q 53 636 53 542 q 124 824 53 764 q 358 883 196 883 q 490 874 428 883 q 592 850 553 864 l 597 606 l 510 606 q 474 692 504 618 q 458 730 465 713 q 444 761 450 747 q 275 758 324 776 q 226 682 226 740 q 247 617 226 642 q 299 580 268 593 q 385 550 331 567 q 515 502 464 528 q 601 418 565 476 q 638 258 638 360 q 552 53 638 124 q 297 -17 467 -17 z "},"Ś":{"ha":682,"x_min":53,"x_max":638,"o":"m 297 -17 q 181 -9 240 -17 q 68 10 121 -1 q 67 11 67 11 l 64 11 l 58 293 l 146 293 q 181 194 164 242 q 213 106 197 146 q 408 113 351 89 q 464 207 464 136 q 442 279 464 251 q 387 322 419 307 q 297 356 354 338 q 172 405 221 379 q 88 486 122 431 q 53 636 53 542 q 124 824 53 764 q 358 883 196 883 q 490 874 428 883 q 592 850 553 864 l 597 606 l 510 606 q 474 692 504 618 q 458 730 465 713 q 444 761 450 747 q 275 758 324 776 q 226 682 226 740 q 247 617 226 642 q 299 580 268 593 q 385 550 331 567 q 515 502 464 528 q 601 418 565 476 q 638 258 638 360 q 552 53 638 124 q 297 -17 467 -17 m 297 961 l 394 1194 l 615 1194 l 615 1183 l 346 939 l 297 961 z "},"Š":{"ha":682,"x_min":53,"x_max":638,"o":"m 297 -17 q 181 -9 240 -17 q 68 10 121 -1 q 67 11 67 11 l 64 11 l 58 293 l 146 293 q 181 194 164 242 q 213 106 197 146 q 408 113 351 89 q 464 207 464 136 q 442 279 464 251 q 387 322 419 307 q 297 356 354 338 q 172 405 221 379 q 88 486 122 431 q 53 636 53 542 q 124 824 53 764 q 358 883 196 883 q 490 874 428 883 q 592 850 553 864 l 597 606 l 510 606 q 474 692 504 618 q 458 730 465 713 q 444 761 450 747 q 275 758 324 776 q 226 682 226 740 q 247 617 226 642 q 299 580 268 593 q 385 550 331 567 q 515 502 464 528 q 601 418 565 476 q 638 258 638 360 q 552 53 638 124 q 297 -17 467 -17 m 481 1217 l 560 1172 l 382 939 l 315 939 l 144 1172 l 218 1217 l 351 1100 l 481 1217 z "},"Ş":{"ha":682,"x_min":53,"x_max":638,"o":"m 290 -294 q 201 -283 246 -294 l 213 -211 q 274 -228 246 -228 q 306 -219 294 -228 q 318 -189 318 -210 q 303 -158 318 -171 q 257 -139 288 -146 l 285 -17 q 181 -8 233 -15 q 68 10 121 -1 q 67 11 67 11 l 64 11 l 58 293 l 146 293 q 181 194 164 242 q 213 106 197 146 q 408 113 351 89 q 464 207 464 136 q 442 279 464 251 q 387 322 419 307 q 297 356 354 338 q 172 405 221 379 q 88 486 122 431 q 53 636 53 542 q 124 824 53 764 q 358 883 196 883 q 490 874 428 883 q 592 850 553 864 l 597 606 l 510 606 q 474 692 504 618 q 458 730 465 713 q 444 761 450 747 q 275 758 324 776 q 226 682 226 740 q 247 617 226 642 q 299 580 268 593 q 385 550 331 567 q 515 502 464 528 q 601 418 565 476 q 638 258 638 360 q 553 54 638 124 q 375 -12 488 0 l 365 -68 q 442 -108 417 -85 q 468 -172 468 -133 q 418 -262 468 -229 q 290 -294 368 -294 z "},"Ŝ":{"ha":682,"x_min":53,"x_max":638,"o":"m 297 -17 q 181 -9 240 -17 q 68 10 121 -1 q 67 11 67 11 l 64 11 l 58 293 l 146 293 q 181 194 164 242 q 213 106 197 146 q 408 113 351 89 q 464 207 464 136 q 442 279 464 251 q 387 322 419 307 q 297 356 354 338 q 172 405 221 379 q 88 486 122 431 q 53 636 53 542 q 124 824 53 764 q 358 883 196 883 q 490 874 428 883 q 592 850 553 864 l 597 606 l 510 606 q 474 692 504 618 q 458 730 465 713 q 444 761 450 747 q 275 758 324 776 q 226 682 226 740 q 247 617 226 642 q 299 580 268 593 q 385 550 331 567 q 515 502 464 528 q 601 418 565 476 q 638 258 638 360 q 552 53 638 124 q 297 -17 467 -17 m 479 928 l 351 1044 l 217 928 l 143 972 l 315 1206 l 382 1206 l 560 972 l 479 928 z "},"Ș":{"ha":682,"x_min":53,"x_max":638,"o":"m 297 -17 q 181 -9 240 -17 q 68 10 121 -1 q 67 11 67 11 l 64 11 l 58 293 l 146 293 q 181 194 164 242 q 213 106 197 146 q 408 113 351 89 q 464 207 464 136 q 442 279 464 251 q 387 322 419 307 q 297 356 354 338 q 172 405 221 379 q 88 486 122 431 q 53 636 53 542 q 124 824 53 764 q 358 883 196 883 q 490 874 428 883 q 592 850 553 864 l 597 606 l 510 606 q 474 692 504 618 q 458 730 465 713 q 444 761 450 747 q 275 758 324 776 q 226 682 226 740 q 247 617 226 642 q 299 580 268 593 q 385 550 331 567 q 515 502 464 528 q 601 418 565 476 q 638 258 638 360 q 552 53 638 124 q 297 -17 467 -17 m 218 -389 q 246 -210 225 -339 q 274 -67 267 -81 q 369 -94 299 -72 q 451 -122 440 -115 q 411 -201 449 -131 q 335 -342 374 -272 q 290 -417 296 -411 q 257 -408 281 -417 q 218 -389 233 -400 z "},"ẞ":{"ha":954,"x_min":26,"x_max":910,"o":"m 619 -11 q 479 0 531 -11 l 461 6 l 456 244 l 543 244 q 556 205 550 224 q 568 169 561 186 q 581 129 575 147 q 593 94 588 111 q 669 115 643 82 q 694 225 694 149 q 665 338 694 299 q 568 408 636 378 l 483 447 l 483 500 l 669 756 q 668 756 668 756 q 542 781 608 781 q 381 724 426 781 q 336 556 336 668 l 336 114 q 351 107 340 113 q 374 97 363 101 q 389 92 385 93 l 389 0 l 26 0 l 26 92 q 58 99 35 93 q 102 108 81 104 q 132 114 124 113 l 132 561 q 224 802 132 721 q 540 883 317 883 q 722 857 632 883 q 874 789 813 831 l 874 736 l 685 479 q 794 431 750 456 q 881 348 851 397 q 910 225 910 299 q 876 99 910 151 q 776 17 842 46 q 619 -11 711 -11 z "},"T":{"ha":811,"x_min":11,"x_max":800,"o":"m 507 114 q 540 107 515 113 q 590 97 565 101 q 622 90 614 92 l 622 -1 q 582 0 604 0 l 183 0 l 183 92 q 217 99 192 93 l 267 108 q 300 114 292 113 l 300 764 l 140 764 q 125 694 138 753 q 111 630 118 665 q 96 553 104 594 l 11 553 l 17 867 l 794 867 l 800 553 l 715 553 q 692 668 711 572 q 681 717 686 693 q 671 764 676 740 l 511 764 l 507 114 z "},"Ŧ":{"ha":811,"x_min":11,"x_max":800,"o":"m 507 114 q 540 107 515 113 q 590 97 565 101 q 622 90 614 92 l 622 -1 q 582 0 604 0 l 183 0 l 183 92 q 217 99 192 93 l 267 108 q 300 114 292 113 l 300 389 l 167 389 l 167 483 l 300 483 l 300 764 l 140 764 q 125 694 138 753 q 111 630 118 665 q 96 553 104 594 l 11 553 l 17 867 l 794 867 l 800 553 l 715 553 q 692 668 711 572 q 681 717 686 693 q 671 764 676 740 l 511 764 l 508 483 l 644 483 l 644 389 l 508 389 l 507 114 z "},"Ť":{"ha":811,"x_min":11,"x_max":800,"o":"m 507 114 q 540 107 515 113 q 590 97 565 101 q 622 90 614 92 l 622 -1 q 582 0 604 0 l 183 0 l 183 92 q 217 99 192 93 l 267 108 q 300 114 292 113 l 300 764 l 140 764 q 125 694 138 753 q 111 630 118 665 q 96 553 104 594 l 11 553 l 17 867 l 794 867 l 800 553 l 715 553 q 692 668 711 572 q 681 717 686 693 q 671 764 676 740 l 511 764 l 507 114 m 532 1217 l 611 1172 l 433 939 l 367 939 l 196 1172 l 269 1217 l 403 1100 l 532 1217 z "},"Ţ":{"ha":811,"x_min":11,"x_max":800,"o":"m 507 114 q 540 107 515 113 q 590 97 565 101 q 622 90 614 92 l 622 -1 q 582 0 604 0 l 500 0 l 449 0 l 436 -68 q 513 -108 488 -85 q 539 -172 539 -133 q 489 -262 539 -229 q 361 -294 439 -294 q 272 -283 317 -294 l 283 -211 q 344 -228 317 -228 q 377 -219 365 -228 q 389 -189 389 -210 q 374 -158 389 -171 q 328 -139 358 -146 l 358 0 l 183 0 l 183 92 q 217 99 192 93 l 267 108 q 300 114 292 113 l 300 764 l 140 764 q 125 694 138 753 q 111 630 118 665 q 96 553 104 594 l 11 553 l 17 867 l 794 867 l 800 553 l 715 553 q 692 668 711 572 q 681 717 686 693 q 671 764 676 740 l 511 764 l 507 114 z "},"Ț":{"ha":811,"x_min":11,"x_max":800,"o":"m 507 114 q 540 107 515 113 q 590 97 565 101 q 622 90 614 92 l 622 -1 q 582 0 604 0 l 183 0 l 183 92 q 217 99 192 93 l 267 108 q 300 114 292 113 l 300 764 l 140 764 q 125 694 138 753 q 111 630 118 665 q 96 553 104 594 l 11 553 l 17 867 l 794 867 l 800 553 l 715 553 q 692 668 711 572 q 681 717 686 693 q 671 764 676 740 l 511 764 l 507 114 m 289 -389 q 317 -210 296 -339 q 344 -67 338 -81 q 440 -94 369 -72 q 522 -122 511 -115 q 482 -201 519 -131 q 406 -342 444 -272 q 361 -417 367 -411 q 328 -408 351 -417 q 289 -389 304 -400 z "},"U":{"ha":931,"x_min":26,"x_max":906,"o":"m 693 753 q 668 760 686 754 l 631 769 q 604 775 611 774 l 604 867 l 906 867 l 906 775 q 877 768 899 774 q 837 758 856 763 q 811 753 818 754 l 811 278 q 772 121 811 188 q 662 19 733 54 q 493 -17 590 -17 q 222 63 307 -17 q 138 311 138 143 l 138 753 q 105 759 129 754 q 58 769 81 764 q 26 775 35 774 l 26 867 l 453 867 l 453 775 q 420 769 444 774 q 374 759 396 764 q 343 753 351 754 l 343 306 q 360 190 343 236 q 416 121 378 144 q 515 97 454 97 q 604 120 564 97 q 669 190 644 143 q 693 306 693 238 l 693 753 z "},"Ú":{"ha":931,"x_min":26,"x_max":906,"o":"m 693 753 q 668 760 686 754 l 631 769 q 604 775 611 774 l 604 867 l 906 867 l 906 775 q 877 768 899 774 q 837 758 856 763 q 811 753 818 754 l 811 278 q 772 121 811 188 q 662 19 733 54 q 493 -17 590 -17 q 222 63 307 -17 q 138 311 138 143 l 138 753 q 105 759 129 754 q 58 769 81 764 q 26 775 35 774 l 26 867 l 453 867 l 453 775 q 420 769 444 774 q 374 759 396 764 q 343 753 351 754 l 343 306 q 360 190 343 236 q 416 121 378 144 q 515 97 454 97 q 604 120 564 97 q 669 190 644 143 q 693 306 693 238 l 693 753 m 457 961 l 554 1194 l 775 1194 l 775 1183 l 506 939 l 457 961 z "},"Ŭ":{"ha":931,"x_min":26,"x_max":906,"o":"m 693 753 q 668 760 686 754 l 631 769 q 604 775 611 774 l 604 867 l 906 867 l 906 775 q 877 768 899 774 q 837 758 856 763 q 811 753 818 754 l 811 278 q 772 121 811 188 q 662 19 733 54 q 493 -17 590 -17 q 222 63 307 -17 q 138 311 138 143 l 138 753 q 105 759 129 754 q 58 769 81 764 q 26 775 35 774 l 26 867 l 453 867 l 453 775 q 420 769 444 774 q 374 759 396 764 q 343 753 351 754 l 343 306 q 360 190 343 236 q 416 121 378 144 q 515 97 454 97 q 604 120 564 97 q 669 190 644 143 q 693 306 693 238 l 693 753 m 707 1172 q 652 1002 703 1065 q 511 939 601 939 q 372 1002 422 939 q 317 1172 321 1065 l 389 1183 q 433 1103 401 1128 q 511 1078 465 1078 q 590 1103 558 1078 q 633 1183 622 1128 l 707 1172 z "},"Ǔ":{"ha":931,"x_min":26,"x_max":906,"o":"m 693 753 q 668 760 686 754 l 631 769 q 604 775 611 774 l 604 867 l 906 867 l 906 775 q 877 768 899 774 q 837 758 856 763 q 811 753 818 754 l 811 278 q 772 121 811 188 q 662 19 733 54 q 493 -17 590 -17 q 222 63 307 -17 q 138 311 138 143 l 138 753 q 105 759 129 754 q 58 769 81 764 q 26 775 35 774 l 26 867 l 453 867 l 453 775 q 420 769 444 774 q 374 759 396 764 q 343 753 351 754 l 343 306 q 360 190 343 236 q 416 121 378 144 q 515 97 454 97 q 604 120 564 97 q 669 190 644 143 q 693 306 693 238 l 693 753 m 640 1217 l 719 1172 l 542 939 l 475 939 l 304 1172 l 378 1217 l 511 1100 l 640 1217 z "},"Û":{"ha":931,"x_min":26,"x_max":906,"o":"m 693 753 q 668 760 686 754 l 631 769 q 604 775 611 774 l 604 867 l 906 867 l 906 775 q 877 768 899 774 q 837 758 856 763 q 811 753 818 754 l 811 278 q 772 121 811 188 q 662 19 733 54 q 493 -17 590 -17 q 222 63 307 -17 q 138 311 138 143 l 138 753 q 105 759 129 754 q 58 769 81 764 q 26 775 35 774 l 26 867 l 453 867 l 453 775 q 420 769 444 774 q 374 759 396 764 q 343 753 351 754 l 343 306 q 360 190 343 236 q 416 121 378 144 q 515 97 454 97 q 604 120 564 97 q 669 190 644 143 q 693 306 693 238 l 693 753 m 639 928 l 511 1044 l 376 928 l 303 972 l 475 1206 l 542 1206 l 719 972 l 639 928 z "},"Ü":{"ha":931,"x_min":26,"x_max":906,"o":"m 693 753 q 668 760 686 754 l 631 769 q 604 775 611 774 l 604 867 l 906 867 l 906 775 q 877 768 899 774 q 837 758 856 763 q 811 753 818 754 l 811 278 q 772 121 811 188 q 662 19 733 54 q 493 -17 590 -17 q 222 63 307 -17 q 138 311 138 143 l 138 753 q 105 759 129 754 q 58 769 81 764 q 26 775 35 774 l 26 867 l 453 867 l 453 775 q 420 769 444 774 q 374 759 396 764 q 343 753 351 754 l 343 306 q 360 190 343 236 q 416 121 378 144 q 515 97 454 97 q 604 120 564 97 q 669 190 644 143 q 693 306 693 238 l 693 753 m 518 1056 q 573 1117 517 1061 q 633 1172 629 1172 q 703 1117 643 1172 q 763 1056 763 1061 q 703 990 763 1046 q 633 933 643 933 q 574 990 629 933 q 518 1056 519 1047 m 267 1056 q 322 1116 265 1060 q 383 1172 379 1172 q 453 1117 394 1172 q 511 1056 511 1061 q 453 990 511 1046 q 383 933 394 933 q 324 990 379 933 q 267 1056 269 1047 z "},"Ù":{"ha":931,"x_min":26,"x_max":906,"o":"m 693 753 q 668 760 686 754 l 631 769 q 604 775 611 774 l 604 867 l 906 867 l 906 775 q 877 768 899 774 q 837 758 856 763 q 811 753 818 754 l 811 278 q 772 121 811 188 q 662 19 733 54 q 493 -17 590 -17 q 222 63 307 -17 q 138 311 138 143 l 138 753 q 105 759 129 754 q 58 769 81 764 q 26 775 35 774 l 26 867 l 453 867 l 453 775 q 420 769 444 774 q 374 759 396 764 q 343 753 351 754 l 343 306 q 360 190 343 236 q 416 121 378 144 q 515 97 454 97 q 604 120 564 97 q 669 190 644 143 q 693 306 693 238 l 693 753 m 572 961 l 524 939 l 256 1183 l 256 1194 l 475 1194 l 572 961 z "},"Ű":{"ha":931,"x_min":26,"x_max":906,"o":"m 693 753 q 668 760 686 754 l 631 769 q 604 775 611 774 l 604 867 l 906 867 l 906 775 q 877 768 899 774 q 837 758 856 763 q 811 753 818 754 l 811 278 q 772 121 811 188 q 662 19 733 54 q 493 -17 590 -17 q 222 63 307 -17 q 138 311 138 143 l 138 753 q 105 759 129 754 q 58 769 81 764 q 26 775 35 774 l 26 867 l 453 867 l 453 775 q 420 769 444 774 q 374 759 396 764 q 343 753 351 754 l 343 306 q 360 190 343 236 q 416 121 378 144 q 515 97 454 97 q 604 120 564 97 q 669 190 644 143 q 693 306 693 238 l 693 753 m 581 961 l 685 1194 l 886 1194 l 886 1183 l 629 939 l 581 961 m 324 961 l 397 1194 l 593 1194 l 593 1183 l 372 939 l 324 961 z "},"Ū":{"ha":931,"x_min":26,"x_max":906,"o":"m 693 753 q 668 760 686 754 l 631 769 q 604 775 611 774 l 604 867 l 906 867 l 906 775 q 877 768 899 774 q 837 758 856 763 q 811 753 818 754 l 811 278 q 772 121 811 188 q 662 19 733 54 q 493 -17 590 -17 q 222 63 307 -17 q 138 311 138 143 l 138 753 q 105 759 129 754 q 58 769 81 764 q 26 775 35 774 l 26 867 l 453 867 l 453 775 q 420 769 444 774 q 374 759 396 764 q 343 753 351 754 l 343 306 q 360 190 343 236 q 416 121 378 144 q 515 97 454 97 q 604 120 564 97 q 669 190 644 143 q 693 306 693 238 l 693 753 m 319 1078 l 711 1078 l 711 961 l 319 961 l 319 1078 z "},"Ų":{"ha":931,"x_min":26,"x_max":906,"o":"m 693 753 q 668 760 686 754 l 631 769 q 604 775 611 774 l 604 867 l 906 867 l 906 775 q 877 768 899 774 q 837 758 856 763 q 811 753 818 754 l 811 278 q 772 121 811 188 q 663 19 733 54 q 607 -3 636 6 q 606 -4 606 -3 q 600 -7 603 -6 q 533 -84 557 -50 q 508 -150 508 -118 q 523 -192 508 -178 q 564 -206 538 -206 q 592 -202 578 -206 q 619 -194 607 -199 l 619 -250 q 569 -278 596 -268 q 508 -289 543 -289 q 407 -261 444 -289 q 369 -183 369 -233 q 429 -65 369 -128 q 485 -17 456 -37 q 222 64 306 -15 q 138 311 138 143 l 138 753 q 105 759 129 754 q 58 769 81 764 q 26 775 35 774 l 26 867 l 453 867 l 453 775 q 420 769 444 774 q 374 759 396 764 q 343 753 351 754 l 343 306 q 360 190 343 236 q 416 121 378 144 q 515 97 454 97 q 604 120 564 97 q 669 190 644 143 q 693 306 693 238 l 693 753 z "},"Ů":{"ha":931,"x_min":26,"x_max":906,"o":"m 693 753 q 668 760 686 754 l 631 769 q 604 775 611 774 l 604 867 l 906 867 l 906 775 q 877 768 899 774 q 837 758 856 763 q 811 753 818 754 l 811 278 q 772 121 811 188 q 662 19 733 54 q 493 -17 590 -17 q 222 63 307 -17 q 138 311 138 143 l 138 753 q 105 759 129 754 q 58 769 81 764 q 26 775 35 774 l 26 867 l 453 867 l 453 775 q 420 769 444 774 q 374 759 396 764 q 343 753 351 754 l 343 306 q 360 190 343 236 q 416 121 378 144 q 515 97 454 97 q 604 120 564 97 q 669 190 644 143 q 693 306 693 238 l 693 753 m 514 922 q 399 963 444 922 q 353 1072 353 1003 q 399 1182 353 1142 q 514 1222 444 1222 q 629 1182 583 1222 q 675 1072 675 1142 q 629 963 675 1003 q 514 922 583 922 m 514 1017 q 553 1033 536 1017 q 569 1072 569 1049 q 553 1112 569 1096 q 514 1128 536 1128 q 475 1112 492 1128 q 458 1072 458 1096 q 475 1033 458 1049 q 514 1017 492 1017 z "},"Ũ":{"ha":931,"x_min":26,"x_max":906,"o":"m 693 753 q 668 760 686 754 l 631 769 q 604 775 611 774 l 604 867 l 906 867 l 906 775 q 877 768 899 774 q 837 758 856 763 q 811 753 818 754 l 811 278 q 772 121 811 188 q 662 19 733 54 q 493 -17 590 -17 q 222 63 307 -17 q 138 311 138 143 l 138 753 q 105 759 129 754 q 58 769 81 764 q 26 775 35 774 l 26 867 l 453 867 l 453 775 q 420 769 444 774 q 374 759 396 764 q 343 753 351 754 l 343 306 q 360 190 343 236 q 416 121 378 144 q 515 97 454 97 q 604 120 564 97 q 669 190 644 143 q 693 306 693 238 l 693 753 m 428 1200 q 510 1174 481 1200 q 569 1104 540 1149 q 591 1072 582 1083 q 611 1061 600 1061 q 640 1089 629 1061 q 660 1183 650 1117 l 739 1178 q 710 997 739 1060 q 599 933 682 933 q 514 960 544 933 q 457 1031 483 986 q 435 1062 444 1051 q 415 1072 426 1072 q 391 1046 401 1072 q 367 950 381 1019 l 286 956 q 315 1138 286 1075 q 428 1200 343 1200 z "},"V":{"ha":926,"x_min":18,"x_max":900,"o":"m 871 867 l 900 867 l 900 775 q 858 765 888 772 q 817 753 829 757 l 515 -11 l 418 -11 q 406 27 413 8 q 394 65 400 46 q 361 156 379 108 q 331 233 343 203 l 88 753 q 53 765 76 757 q 18 775 29 772 l 18 867 l 435 867 l 435 775 q 407 769 428 774 q 367 759 386 764 q 342 753 349 754 l 443 489 q 486 389 464 435 q 522 317 506 347 l 682 753 q 656 759 675 754 q 619 769 636 764 q 594 775 601 774 l 594 867 l 871 867 z "},"W":{"ha":1311,"x_min":29,"x_max":1271,"o":"m 588 667 l 556 756 q 552 766 554 758 q 549 776 550 774 l 549 867 l 833 867 l 833 775 q 816 769 829 774 q 790 759 803 764 q 774 753 778 754 l 868 489 q 888 433 879 458 q 906 386 897 407 q 919 349 913 365 q 919 347 919 347 l 1047 753 q 1027 760 1042 754 q 999 769 1013 765 q 981 775 986 774 l 981 867 l 1271 867 l 1271 775 q 1226 765 1257 772 q 1181 753 1194 757 l 924 -11 l 822 -11 q 781 113 801 50 q 743 233 761 176 l 647 500 l 481 -11 l 376 -11 q 353 64 365 26 q 328 136 340 101 q 310 191 318 165 q 294 239 301 217 l 111 753 q 70 765 99 757 q 29 775 42 772 l 29 867 l 397 867 l 397 775 q 376 769 392 774 q 348 759 361 764 q 329 753 335 754 l 421 489 q 426 474 424 482 q 432 460 429 467 q 465 369 451 406 q 476 336 471 351 l 588 667 z "},"Ẃ":{"ha":1311,"x_min":29,"x_max":1271,"o":"m 588 667 l 556 756 q 552 766 554 758 q 549 776 550 774 l 549 867 l 833 867 l 833 775 q 816 769 829 774 q 790 759 803 764 q 774 753 778 754 l 868 489 q 888 433 879 458 q 906 386 897 407 q 919 349 913 365 q 919 347 919 347 l 1047 753 q 1027 760 1042 754 q 999 769 1013 765 q 981 775 986 774 l 981 867 l 1271 867 l 1271 775 q 1226 765 1257 772 q 1181 753 1194 757 l 924 -11 l 822 -11 q 781 113 801 50 q 743 233 761 176 l 647 500 l 481 -11 l 376 -11 q 353 64 365 26 q 328 136 340 101 q 310 191 318 165 q 294 239 301 217 l 111 753 q 70 765 99 757 q 29 775 42 772 l 29 867 l 397 867 l 397 775 q 376 769 392 774 q 348 759 361 764 q 329 753 335 754 l 421 489 q 426 474 424 482 q 432 460 429 467 q 465 369 451 406 q 476 336 471 351 l 588 667 m 588 961 l 685 1194 l 906 1194 l 906 1183 l 636 939 l 588 961 z "},"Ŵ":{"ha":1311,"x_min":29,"x_max":1271,"o":"m 588 667 l 556 756 q 552 766 554 758 q 549 776 550 774 l 549 867 l 833 867 l 833 775 q 816 769 829 774 q 790 759 803 764 q 774 753 778 754 l 868 489 q 888 433 879 458 q 906 386 897 407 q 919 349 913 365 q 919 347 919 347 l 1047 753 q 1027 760 1042 754 q 999 769 1013 765 q 981 775 986 774 l 981 867 l 1271 867 l 1271 775 q 1226 765 1257 772 q 1181 753 1194 757 l 924 -11 l 822 -11 q 781 113 801 50 q 743 233 761 176 l 647 500 l 481 -11 l 376 -11 q 353 64 365 26 q 328 136 340 101 q 310 191 318 165 q 294 239 301 217 l 111 753 q 70 765 99 757 q 29 775 42 772 l 29 867 l 397 867 l 397 775 q 376 769 392 774 q 348 759 361 764 q 329 753 335 754 l 421 489 q 426 474 424 482 q 432 460 429 467 q 465 369 451 406 q 476 336 471 351 l 588 667 m 769 928 l 642 1044 l 507 928 l 433 972 l 606 1206 l 672 1206 l 850 972 l 769 928 z "},"Ẅ":{"ha":1311,"x_min":29,"x_max":1271,"o":"m 588 667 l 556 756 q 552 766 554 758 q 549 776 550 774 l 549 867 l 833 867 l 833 775 q 816 769 829 774 q 790 759 803 764 q 774 753 778 754 l 868 489 q 888 433 879 458 q 906 386 897 407 q 919 349 913 365 q 919 347 919 347 l 1047 753 q 1027 760 1042 754 q 999 769 1013 765 q 981 775 986 774 l 981 867 l 1271 867 l 1271 775 q 1226 765 1257 772 q 1181 753 1194 757 l 924 -11 l 822 -11 q 781 113 801 50 q 743 233 761 176 l 647 500 l 481 -11 l 376 -11 q 353 64 365 26 q 328 136 340 101 q 310 191 318 165 q 294 239 301 217 l 111 753 q 70 765 99 757 q 29 775 42 772 l 29 867 l 397 867 l 397 775 q 376 769 392 774 q 348 759 361 764 q 329 753 335 754 l 421 489 q 426 474 424 482 q 432 460 429 467 q 465 369 451 406 q 476 336 471 351 l 588 667 m 649 1056 q 703 1117 647 1061 q 764 1172 760 1172 q 833 1117 774 1172 q 893 1056 893 1061 q 833 990 893 1046 q 764 933 774 933 q 705 990 760 933 q 649 1056 650 1047 m 397 1056 q 453 1116 396 1060 q 514 1172 510 1172 q 583 1117 525 1172 q 642 1056 642 1061 q 583 990 642 1046 q 514 933 525 933 q 455 990 510 933 q 397 1056 400 1047 z "},"Ẁ":{"ha":1311,"x_min":29,"x_max":1271,"o":"m 588 667 l 556 756 q 552 766 554 758 q 549 776 550 774 l 549 867 l 833 867 l 833 775 q 816 769 829 774 q 790 759 803 764 q 774 753 778 754 l 868 489 q 888 433 879 458 q 906 386 897 407 q 919 349 913 365 q 919 347 919 347 l 1047 753 q 1027 760 1042 754 q 999 769 1013 765 q 981 775 986 774 l 981 867 l 1271 867 l 1271 775 q 1226 765 1257 772 q 1181 753 1194 757 l 924 -11 l 822 -11 q 781 113 801 50 q 743 233 761 176 l 647 500 l 481 -11 l 376 -11 q 353 64 365 26 q 328 136 340 101 q 310 191 318 165 q 294 239 301 217 l 111 753 q 70 765 99 757 q 29 775 42 772 l 29 867 l 397 867 l 397 775 q 376 769 392 774 q 348 759 361 764 q 329 753 335 754 l 421 489 q 426 474 424 482 q 432 460 429 467 q 465 369 451 406 q 476 336 471 351 l 588 667 m 703 961 l 654 939 l 386 1183 l 386 1194 l 606 1194 l 703 961 z "},"X":{"ha":871,"x_min":15,"x_max":856,"o":"m 46 0 l 15 0 l 15 92 q 19 92 17 92 q 24 93 21 93 q 65 103 40 97 q 118 114 90 108 l 315 424 l 92 753 q 56 765 81 757 q 21 775 32 772 l 21 867 l 401 867 l 401 775 q 385 769 397 774 q 360 759 372 764 q 344 753 349 754 l 486 546 l 603 753 q 587 759 599 754 q 564 769 575 764 q 549 775 553 774 l 549 867 l 856 867 l 856 775 q 852 774 854 775 q 847 774 850 774 q 806 764 831 769 q 753 753 781 758 l 556 443 l 779 114 q 815 103 790 111 q 850 92 839 96 l 850 0 l 469 0 l 469 92 q 486 98 474 93 q 510 108 499 103 q 526 114 522 113 l 385 321 l 268 114 q 284 108 272 113 q 307 98 296 103 q 322 92 318 93 l 322 0 l 46 0 z "},"Y":{"ha":847,"x_min":22,"x_max":817,"o":"m 544 114 q 578 107 553 113 q 628 97 603 101 l 661 92 l 661 0 l 222 0 l 222 92 q 256 99 231 93 q 306 108 282 104 q 339 114 331 113 l 339 324 q 321 360 331 342 q 311 379 315 369 q 301 399 307 389 l 88 753 q 55 765 78 757 q 22 775 32 772 l 22 867 l 393 867 l 393 775 q 376 769 389 774 q 353 759 364 764 q 338 753 342 754 l 428 572 q 433 564 431 568 q 436 556 435 560 q 469 493 453 521 q 471 490 469 492 l 597 753 q 582 759 593 754 q 560 769 571 764 q 546 775 550 774 l 546 867 l 817 867 l 817 775 l 815 775 q 783 766 804 772 q 736 753 763 760 l 544 385 l 544 114 z "},"Ý":{"ha":847,"x_min":22,"x_max":817,"o":"m 544 114 q 578 107 553 113 q 628 97 603 101 l 661 92 l 661 0 l 222 0 l 222 92 q 256 99 231 93 q 306 108 282 104 q 339 114 331 113 l 339 324 q 321 360 331 342 q 311 379 315 369 q 301 399 307 389 l 88 753 q 55 765 78 757 q 22 775 32 772 l 22 867 l 393 867 l 393 775 q 376 769 389 774 q 353 759 364 764 q 338 753 342 754 l 428 572 q 433 564 431 568 q 436 556 435 560 q 469 493 453 521 q 471 490 469 492 l 597 753 q 582 759 593 754 q 560 769 571 764 q 546 775 550 774 l 546 867 l 817 867 l 817 775 l 815 775 q 783 766 804 772 q 736 753 763 760 l 544 385 l 544 114 m 414 961 l 511 1194 l 732 1194 l 732 1183 l 463 939 l 414 961 z "},"Ŷ":{"ha":847,"x_min":22,"x_max":817,"o":"m 544 114 q 578 107 553 113 q 628 97 603 101 l 661 92 l 661 0 l 222 0 l 222 92 q 256 99 231 93 q 306 108 282 104 q 339 114 331 113 l 339 324 q 321 360 331 342 q 311 379 315 369 q 301 399 307 389 l 88 753 q 55 765 78 757 q 22 775 32 772 l 22 867 l 393 867 l 393 775 q 376 769 389 774 q 353 759 364 764 q 338 753 342 754 l 428 572 q 433 564 431 568 q 436 556 435 560 q 469 493 453 521 q 471 490 469 492 l 597 753 q 582 759 593 754 q 560 769 571 764 q 546 775 550 774 l 546 867 l 817 867 l 817 775 l 815 775 q 783 766 804 772 q 736 753 763 760 l 544 385 l 544 114 m 596 928 l 468 1044 l 333 928 l 260 972 l 432 1206 l 499 1206 l 676 972 l 596 928 z "},"Ÿ":{"ha":847,"x_min":22,"x_max":817,"o":"m 544 114 q 578 107 553 113 q 628 97 603 101 l 661 92 l 661 0 l 222 0 l 222 92 q 256 99 231 93 q 306 108 282 104 q 339 114 331 113 l 339 324 q 321 360 331 342 q 311 379 315 369 q 301 399 307 389 l 88 753 q 55 765 78 757 q 22 775 32 772 l 22 867 l 393 867 l 393 775 q 376 769 389 774 q 353 759 364 764 q 338 753 342 754 l 428 572 q 433 564 431 568 q 436 556 435 560 q 469 493 453 521 q 471 490 469 492 l 597 753 q 582 759 593 754 q 560 769 571 764 q 546 775 550 774 l 546 867 l 817 867 l 817 775 l 815 775 q 783 766 804 772 q 736 753 763 760 l 544 385 l 544 114 m 475 1056 q 530 1117 474 1061 q 590 1172 586 1172 q 660 1117 600 1172 q 719 1056 719 1061 q 660 990 719 1046 q 590 933 600 933 q 531 990 586 933 q 475 1056 476 1047 m 224 1056 q 279 1116 222 1060 q 340 1172 336 1172 q 410 1117 351 1172 q 468 1056 468 1061 q 410 990 468 1046 q 340 933 351 933 q 281 990 336 933 q 224 1056 226 1047 z "},"Ỳ":{"ha":847,"x_min":22,"x_max":817,"o":"m 544 114 q 578 107 553 113 q 628 97 603 101 l 661 92 l 661 0 l 222 0 l 222 92 q 256 99 231 93 q 306 108 282 104 q 339 114 331 113 l 339 324 q 321 360 331 342 q 311 379 315 369 q 301 399 307 389 l 88 753 q 55 765 78 757 q 22 775 32 772 l 22 867 l 393 867 l 393 775 q 376 769 389 774 q 353 759 364 764 q 338 753 342 754 l 428 572 q 433 564 431 568 q 436 556 435 560 q 469 493 453 521 q 471 490 469 492 l 597 753 q 582 759 593 754 q 560 769 571 764 q 546 775 550 774 l 546 867 l 817 867 l 817 775 l 815 775 q 783 766 804 772 q 736 753 763 760 l 544 385 l 544 114 m 529 961 l 481 939 l 213 1183 l 213 1194 l 432 1194 l 529 961 z "},"Z":{"ha":742,"x_min":35,"x_max":707,"o":"m 678 867 l 306 103 l 532 103 q 551 143 542 124 q 571 183 561 163 q 592 229 581 204 q 619 283 604 254 l 707 283 l 674 0 l 35 0 l 407 764 l 210 764 q 194 717 203 742 q 178 668 186 693 q 160 611 169 640 l 140 553 l 53 553 l 53 867 l 678 867 z "},"Ź":{"ha":742,"x_min":35,"x_max":707,"o":"m 678 867 l 306 103 l 532 103 q 551 143 542 124 q 571 183 561 163 q 592 229 581 204 q 619 283 604 254 l 707 283 l 674 0 l 35 0 l 407 764 l 210 764 q 194 717 203 742 q 178 668 186 693 q 160 611 169 640 l 140 553 l 53 553 l 53 867 l 678 867 m 311 961 l 408 1194 l 629 1194 l 629 1183 l 360 939 l 311 961 z "},"Ž":{"ha":742,"x_min":35,"x_max":707,"o":"m 678 867 l 306 103 l 532 103 q 551 143 542 124 q 571 183 561 163 q 592 229 581 204 q 619 283 604 254 l 707 283 l 674 0 l 35 0 l 407 764 l 210 764 q 194 717 203 742 q 178 668 186 693 q 160 611 169 640 l 140 553 l 53 553 l 53 867 l 678 867 m 494 1217 l 574 1172 l 396 939 l 329 939 l 158 1172 l 232 1217 l 365 1100 l 494 1217 z "},"Ż":{"ha":742,"x_min":35,"x_max":707,"o":"m 678 867 l 306 103 l 532 103 q 551 143 542 124 q 571 183 561 163 q 592 229 581 204 q 619 283 604 254 l 707 283 l 674 0 l 35 0 l 407 764 l 210 764 q 194 717 203 742 q 178 668 186 693 q 160 611 169 640 l 140 553 l 53 553 l 53 867 l 678 867 m 219 1061 q 287 1128 219 1067 q 360 1189 354 1189 q 406 1160 369 1189 q 477 1098 442 1131 q 513 1061 513 1065 q 478 1018 513 1053 q 407 953 444 983 q 360 922 369 922 q 319 955 356 922 q 251 1020 283 988 q 219 1061 219 1053 z "},"a":{"ha":689,"x_min":31,"x_max":674,"o":"m 383 397 q 353 478 383 456 q 251 501 324 501 q 159 492 207 501 q 88 471 111 482 l 58 561 q 165 633 99 606 q 336 661 232 661 q 531 603 472 661 q 589 422 589 546 l 589 103 q 628 95 606 99 q 674 89 650 92 l 674 11 q 614 2 646 7 q 551 -6 582 -3 q 515 -10 532 -8 q 486 -11 499 -11 q 408 10 433 -11 q 381 74 383 31 q 383 131 379 97 q 340 44 368 79 q 204 -17 293 -17 q 76 29 121 -17 q 31 157 31 75 q 80 283 31 232 q 215 358 129 335 q 383 378 292 379 l 383 397 m 383 294 q 285 274 318 294 q 246 200 246 249 q 265 153 246 167 q 313 139 283 139 q 347 145 331 139 q 373 166 363 151 q 383 206 383 181 l 383 294 z "},"á":{"ha":689,"x_min":31,"x_max":674,"o":"m 383 397 q 353 478 383 456 q 251 501 324 501 q 159 492 207 501 q 88 471 111 482 l 58 561 q 165 633 99 606 q 336 661 232 661 q 531 603 472 661 q 589 422 589 546 l 589 103 q 628 95 606 99 q 674 89 650 92 l 674 11 q 614 2 646 7 q 551 -6 582 -3 q 515 -10 532 -8 q 486 -11 499 -11 q 408 10 433 -11 q 381 74 383 31 q 383 131 379 97 q 340 44 368 79 q 204 -17 293 -17 q 76 29 121 -17 q 31 157 31 75 q 80 283 31 232 q 215 358 129 335 q 383 378 292 379 l 383 397 m 289 761 l 378 994 l 578 994 l 578 983 l 333 739 l 289 761 m 383 294 q 285 274 318 294 q 246 200 246 249 q 265 153 246 167 q 313 139 283 139 q 347 145 331 139 q 373 166 363 151 q 383 206 383 181 l 383 294 z "},"ă":{"ha":689,"x_min":31,"x_max":674,"o":"m 383 397 q 353 478 383 456 q 251 501 324 501 q 159 492 207 501 q 88 471 111 482 l 58 561 q 165 633 99 606 q 336 661 232 661 q 531 603 472 661 q 589 422 589 546 l 589 103 q 628 95 606 99 q 674 89 650 92 l 674 11 q 614 2 646 7 q 551 -6 582 -3 q 515 -10 532 -8 q 486 -11 499 -11 q 408 10 433 -11 q 381 74 383 31 q 383 131 379 97 q 340 44 368 79 q 204 -17 293 -17 q 76 29 121 -17 q 31 157 31 75 q 80 283 31 232 q 215 358 129 335 q 383 378 292 379 l 383 397 m 522 972 q 472 802 518 865 q 344 739 426 739 q 217 802 263 739 q 167 972 171 865 l 233 983 q 274 903 244 928 q 344 878 303 878 q 417 903 388 878 q 456 983 446 928 l 522 972 m 383 294 q 285 274 318 294 q 246 200 246 249 q 265 153 246 167 q 313 139 283 139 q 347 145 331 139 q 373 166 363 151 q 383 206 383 181 l 383 294 z "},"ǎ":{"ha":689,"x_min":31,"x_max":674,"o":"m 383 397 q 353 478 383 456 q 251 501 324 501 q 159 492 207 501 q 88 471 111 482 l 58 561 q 165 633 99 606 q 336 661 232 661 q 531 603 472 661 q 589 422 589 546 l 589 103 q 628 95 606 99 q 674 89 650 92 l 674 11 q 614 2 646 7 q 551 -6 582 -3 q 515 -10 532 -8 q 486 -11 499 -11 q 408 10 433 -11 q 381 74 383 31 q 383 131 379 97 q 340 44 368 79 q 204 -17 293 -17 q 76 29 121 -17 q 31 157 31 75 q 80 283 31 232 q 215 358 129 335 q 383 378 292 379 l 383 397 m 461 1017 l 533 972 l 372 739 l 311 739 l 156 972 l 222 1017 l 344 900 l 461 1017 m 383 294 q 285 274 318 294 q 246 200 246 249 q 265 153 246 167 q 313 139 283 139 q 347 145 331 139 q 373 166 363 151 q 383 206 383 181 l 383 294 z "},"â":{"ha":689,"x_min":31,"x_max":674,"o":"m 383 397 q 353 478 383 456 q 251 501 324 501 q 159 492 207 501 q 88 471 111 482 l 58 561 q 165 633 99 606 q 336 661 232 661 q 531 603 472 661 q 589 422 589 546 l 589 103 q 628 95 606 99 q 674 89 650 92 l 674 11 q 614 2 646 7 q 551 -6 582 -3 q 515 -10 532 -8 q 486 -11 499 -11 q 408 10 433 -11 q 381 74 383 31 q 383 131 379 97 q 340 44 368 79 q 204 -17 293 -17 q 76 29 121 -17 q 31 157 31 75 q 80 283 31 232 q 215 358 129 335 q 383 378 292 379 l 383 397 m 461 728 l 344 844 l 222 728 l 156 772 l 311 1006 l 372 1006 l 533 772 l 461 728 m 383 294 q 285 274 318 294 q 246 200 246 249 q 265 153 246 167 q 313 139 283 139 q 347 145 331 139 q 373 166 363 151 q 383 206 383 181 l 383 294 z "},"ä":{"ha":689,"x_min":31,"x_max":674,"o":"m 383 397 q 353 478 383 456 q 251 501 324 501 q 159 492 207 501 q 88 471 111 482 l 58 561 q 165 633 99 606 q 336 661 232 661 q 531 603 472 661 q 589 422 589 546 l 589 103 q 628 95 606 99 q 674 89 650 92 l 674 11 q 614 2 646 7 q 551 -6 582 -3 q 515 -10 532 -8 q 486 -11 499 -11 q 408 10 433 -11 q 381 74 383 31 q 383 131 379 97 q 340 44 368 79 q 204 -17 293 -17 q 76 29 121 -17 q 31 157 31 75 q 80 283 31 232 q 215 358 129 335 q 383 378 292 379 l 383 397 m 122 856 q 172 916 121 860 q 228 972 224 972 q 291 917 238 972 q 344 856 344 861 q 291 790 344 846 q 228 733 238 733 q 174 790 224 733 q 122 856 124 847 m 350 856 q 400 917 349 861 q 456 972 451 972 q 518 917 464 972 q 572 856 572 861 q 519 790 572 846 q 456 733 465 733 q 401 790 451 733 q 350 856 351 847 m 383 294 q 285 274 318 294 q 246 200 246 249 q 265 153 246 167 q 313 139 283 139 q 347 145 331 139 q 373 166 363 151 q 383 206 383 181 l 383 294 z "},"à":{"ha":689,"x_min":31,"x_max":674,"o":"m 383 397 q 353 478 383 456 q 251 501 324 501 q 159 492 207 501 q 88 471 111 482 l 58 561 q 165 633 99 606 q 336 661 232 661 q 531 603 472 661 q 589 422 589 546 l 589 103 q 628 95 606 99 q 674 89 650 92 l 674 11 q 614 2 646 7 q 551 -6 582 -3 q 515 -10 532 -8 q 486 -11 499 -11 q 408 10 433 -11 q 381 74 383 31 q 383 131 379 97 q 340 44 368 79 q 204 -17 293 -17 q 76 29 121 -17 q 31 157 31 75 q 80 283 31 232 q 215 358 129 335 q 383 378 292 379 l 383 397 m 400 761 l 356 739 l 111 983 l 111 994 l 311 994 l 400 761 m 383 294 q 285 274 318 294 q 246 200 246 249 q 265 153 246 167 q 313 139 283 139 q 347 145 331 139 q 373 166 363 151 q 383 206 383 181 l 383 294 z "},"ā":{"ha":689,"x_min":31,"x_max":674,"o":"m 383 397 q 353 478 383 456 q 251 501 324 501 q 159 492 207 501 q 88 471 111 482 l 58 561 q 165 633 99 606 q 336 661 232 661 q 531 603 472 661 q 589 422 589 546 l 589 103 q 628 95 606 99 q 674 89 650 92 l 674 11 q 614 2 646 7 q 551 -6 582 -3 q 515 -10 532 -8 q 486 -11 499 -11 q 408 10 433 -11 q 381 74 383 31 q 383 131 379 97 q 340 44 368 79 q 204 -17 293 -17 q 76 29 121 -17 q 31 157 31 75 q 80 283 31 232 q 215 358 129 335 q 383 378 292 379 l 383 397 m 167 878 l 522 878 l 522 761 l 167 761 l 167 878 m 383 294 q 285 274 318 294 q 246 200 246 249 q 265 153 246 167 q 313 139 283 139 q 347 145 331 139 q 373 166 363 151 q 383 206 383 181 l 383 294 z "},"ą":{"ha":689,"x_min":31,"x_max":685,"o":"m 383 397 q 353 478 383 456 q 251 501 324 501 q 159 492 207 501 q 88 471 111 482 l 58 561 q 165 633 99 606 q 336 661 232 661 q 531 603 472 661 q 589 422 589 546 l 589 103 q 628 95 606 99 q 674 89 650 92 l 674 11 l 657 -6 q 597 -82 619 -46 q 574 -150 574 -118 q 588 -192 574 -178 q 629 -206 603 -206 q 658 -202 643 -206 q 685 -194 672 -199 l 685 -250 q 635 -278 661 -268 q 574 -289 608 -289 q 472 -261 510 -289 q 435 -183 435 -233 q 493 -62 435 -126 q 557 -6 524 -29 q 551 -6 554 -6 q 515 -10 532 -8 q 486 -11 499 -11 q 408 10 433 -11 q 381 74 383 31 q 383 131 379 97 q 340 44 368 79 q 204 -17 293 -17 q 76 29 121 -17 q 31 157 31 75 q 80 283 31 232 q 215 358 129 335 q 383 378 292 379 l 383 397 m 383 294 q 285 274 318 294 q 246 200 246 249 q 265 153 246 167 q 313 139 283 139 q 347 145 331 139 q 373 166 363 151 q 383 206 383 181 l 383 294 z "},"å":{"ha":689,"x_min":31,"x_max":674,"o":"m 383 397 q 353 478 383 456 q 251 501 324 501 q 159 492 207 501 q 88 471 111 482 l 58 561 q 165 633 99 606 q 336 661 232 661 q 531 603 472 661 q 589 422 589 546 l 589 103 q 628 95 606 99 q 674 89 650 92 l 674 11 q 614 2 646 7 q 551 -6 582 -3 q 515 -10 532 -8 q 486 -11 499 -11 q 408 10 433 -11 q 381 74 383 31 q 383 131 379 97 q 340 44 368 79 q 204 -17 293 -17 q 76 29 121 -17 q 31 157 31 75 q 80 283 31 232 q 215 358 129 335 q 383 378 292 379 l 383 397 m 344 722 q 229 763 275 722 q 183 872 183 803 q 229 982 183 942 q 344 1022 275 1022 q 460 982 414 1022 q 506 872 506 942 q 460 763 506 803 q 344 722 414 722 m 383 294 q 285 274 318 294 q 246 200 246 249 q 265 153 246 167 q 313 139 283 139 q 347 145 331 139 q 373 166 363 151 q 383 206 383 181 l 383 294 m 344 817 q 383 833 367 817 q 400 872 400 849 q 383 912 400 896 q 344 928 367 928 q 306 912 322 928 q 289 872 289 896 q 306 833 289 849 q 344 817 322 817 z "},"ǻ":{"ha":689,"x_min":31,"x_max":674,"o":"m 383 397 q 353 478 383 456 q 251 501 324 501 q 159 492 207 501 q 88 471 111 482 l 58 561 q 165 633 99 606 q 336 661 232 661 q 531 603 472 661 q 589 422 589 546 l 589 103 q 628 95 606 99 q 674 89 650 92 l 674 11 q 614 2 646 7 q 551 -6 582 -3 q 515 -10 532 -8 q 486 -11 499 -11 q 408 10 433 -11 q 381 74 383 31 q 383 131 379 97 q 340 44 368 79 q 204 -17 293 -17 q 76 29 121 -17 q 31 157 31 75 q 80 283 31 232 q 215 358 129 335 q 383 378 292 379 l 383 397 m 344 722 q 229 763 275 722 q 183 872 183 803 q 229 982 183 942 q 315 1021 265 1014 l 378 1183 l 578 1183 l 578 1172 l 415 1010 q 460 982 440 1000 q 506 872 506 942 q 460 763 506 803 q 344 722 414 722 m 383 294 q 285 274 318 294 q 246 200 246 249 q 265 153 246 167 q 313 139 283 139 q 347 145 331 139 q 373 166 363 151 q 383 206 383 181 l 383 294 m 344 817 q 383 833 367 817 q 400 872 400 849 q 383 912 400 896 q 344 928 367 928 q 306 912 322 928 q 289 872 289 896 q 306 833 289 849 q 344 817 322 817 z "},"ã":{"ha":689,"x_min":31,"x_max":674,"o":"m 383 397 q 353 478 383 456 q 251 501 324 501 q 159 492 207 501 q 88 471 111 482 l 58 561 q 165 633 99 606 q 336 661 232 661 q 531 603 472 661 q 589 422 589 546 l 589 103 q 628 95 606 99 q 674 89 650 92 l 674 11 q 614 2 646 7 q 551 -6 582 -3 q 515 -10 532 -8 q 486 -11 499 -11 q 408 10 433 -11 q 381 74 383 31 q 383 131 379 97 q 340 44 368 79 q 204 -17 293 -17 q 76 29 121 -17 q 31 157 31 75 q 80 283 31 232 q 215 358 129 335 q 383 378 292 379 l 383 397 m 267 1000 q 343 974 315 1000 q 396 903 371 947 q 415 872 407 882 q 433 861 424 861 q 460 888 450 861 q 478 983 469 915 l 550 978 q 524 797 550 860 q 422 733 499 733 q 346 760 374 733 q 293 831 318 786 q 274 862 282 851 q 256 872 265 872 q 233 846 243 872 q 211 750 224 819 l 139 756 q 165 938 139 876 q 267 1000 190 1000 m 383 294 q 285 274 318 294 q 246 200 246 249 q 265 153 246 167 q 313 139 283 139 q 347 145 331 139 q 373 166 363 151 q 383 206 383 181 l 383 294 z "},"æ":{"ha":1024,"x_min":31,"x_max":1004,"o":"m 385 394 q 352 473 385 449 q 246 497 319 497 q 160 489 203 497 q 89 469 118 481 l 60 547 q 160 628 93 594 q 306 661 226 661 q 483 603 431 661 q 508 565 499 586 q 569 617 536 594 q 724 661 638 661 q 895 612 831 661 q 982 483 960 563 q 989 311 1004 403 l 592 311 q 618 231 597 265 q 687 158 644 183 q 774 133 729 133 q 881 148 832 133 q 964 189 931 163 l 996 169 q 943 74 982 117 q 847 8 904 32 q 724 -17 790 -17 q 569 22 636 -17 q 467 135 503 60 q 465 136 465 135 q 413 42 450 78 q 233 -17 353 -17 q 81 28 132 -17 q 31 160 31 72 q 80 290 31 236 q 215 368 129 343 q 385 388 292 389 l 385 394 m 596 414 l 779 414 q 781 458 782 438 q 760 525 778 500 q 713 550 743 550 q 624 490 656 550 q 596 414 604 456 m 385 288 q 286 268 321 288 q 246 197 246 243 q 265 153 246 167 q 314 139 283 139 q 363 158 340 139 q 385 222 385 176 l 385 288 z "},"ǽ":{"ha":1024,"x_min":31,"x_max":1004,"o":"m 385 394 q 352 473 385 449 q 246 497 319 497 q 160 489 203 497 q 89 469 118 481 l 60 547 q 160 628 93 594 q 306 661 226 661 q 483 603 431 661 q 508 565 499 586 q 569 617 536 594 q 724 661 638 661 q 895 612 831 661 q 982 483 960 563 q 989 311 1004 403 l 592 311 q 618 231 597 265 q 687 158 644 183 q 774 133 729 133 q 881 148 832 133 q 964 189 931 163 l 996 169 q 943 74 982 117 q 847 8 904 32 q 724 -17 790 -17 q 569 22 636 -17 q 467 135 503 60 q 465 136 465 135 q 413 42 450 78 q 233 -17 353 -17 q 81 28 132 -17 q 31 160 31 72 q 80 290 31 236 q 215 368 129 343 q 385 388 292 389 l 385 394 m 447 761 l 536 994 l 736 994 l 736 983 l 492 739 l 447 761 m 596 414 l 779 414 q 781 458 782 438 q 760 525 778 500 q 713 550 743 550 q 624 490 656 550 q 596 414 604 456 m 385 288 q 286 268 321 288 q 246 197 246 243 q 265 153 246 167 q 314 139 283 139 q 363 158 340 139 q 385 222 385 176 l 385 288 z "},"b":{"ha":826,"x_min":-24,"x_max":783,"o":"m 300 1017 l 300 510 q 310 536 304 524 q 387 627 335 593 q 513 661 439 661 q 653 622 592 661 q 749 510 715 583 q 783 339 783 438 q 740 153 783 235 q 617 28 697 72 q 433 -17 538 -17 q 296 3 360 -17 q 206 46 250 15 l 107 -6 l 96 0 l 100 897 q 66 902 92 899 q 15 908 40 906 q -18 913 -10 911 l -24 1004 q 6 1006 -10 1006 q 38 1008 21 1007 q 69 1010 54 1010 q 99 1011 85 1011 l 289 1022 l 300 1017 m 426 511 q 363 497 392 511 q 317 452 335 482 q 300 378 300 422 l 300 156 q 351 111 324 129 q 433 86 389 86 q 534 144 501 86 q 567 301 567 203 q 551 413 567 365 q 503 485 535 460 q 426 511 472 511 z "},"c":{"ha":668,"x_min":43,"x_max":642,"o":"m 535 369 l 493 469 q 476 508 483 489 q 461 543 468 526 q 338 529 382 550 q 276 468 293 508 q 258 369 260 428 q 285 245 258 299 q 360 163 313 192 q 468 133 408 133 q 544 147 504 133 q 611 186 585 161 l 642 158 q 545 33 617 82 q 378 -17 474 -17 q 210 21 286 -17 q 89 134 135 58 q 43 322 43 210 q 94 497 43 419 q 232 617 144 574 q 426 661 319 661 q 533 651 478 661 q 617 628 589 640 l 622 369 l 535 369 z "},"ć":{"ha":668,"x_min":43,"x_max":642,"o":"m 535 369 l 493 469 q 476 508 483 489 q 461 543 468 526 q 338 529 382 550 q 276 468 293 508 q 258 369 260 428 q 285 245 258 299 q 360 163 313 192 q 468 133 408 133 q 544 147 504 133 q 611 186 585 161 l 642 158 q 545 33 617 82 q 378 -17 474 -17 q 210 21 286 -17 q 89 134 135 58 q 43 322 43 210 q 94 497 43 419 q 232 617 144 574 q 426 661 319 661 q 533 651 478 661 q 617 628 589 640 l 622 369 l 535 369 m 332 761 l 421 994 l 621 994 l 621 983 l 376 739 l 332 761 z "},"č":{"ha":668,"x_min":43,"x_max":642,"o":"m 535 369 l 493 469 q 476 508 483 489 q 461 543 468 526 q 338 529 382 550 q 276 468 293 508 q 258 369 260 428 q 285 245 258 299 q 360 163 313 192 q 468 133 408 133 q 544 147 504 133 q 611 186 585 161 l 642 158 q 545 33 617 82 q 378 -17 474 -17 q 210 21 286 -17 q 89 134 135 58 q 43 322 43 210 q 94 497 43 419 q 232 617 144 574 q 426 661 319 661 q 533 651 478 661 q 617 628 589 640 l 622 369 l 535 369 m 504 1017 l 576 972 l 415 739 l 354 739 l 199 972 l 265 1017 l 388 900 l 504 1017 z "},"ç":{"ha":668,"x_min":43,"x_max":642,"o":"m 535 369 l 493 469 q 476 508 483 489 q 461 543 468 526 q 338 529 382 550 q 276 468 293 508 q 258 369 260 428 q 285 245 258 299 q 360 163 313 192 q 468 133 408 133 q 544 147 504 133 q 611 186 585 161 l 642 158 q 546 33 617 82 q 392 -17 479 -14 l 382 -68 q 458 -108 433 -85 q 485 -172 485 -133 q 435 -262 485 -229 q 307 -294 385 -294 q 218 -283 263 -294 l 229 -211 q 290 -228 263 -228 q 323 -219 311 -228 q 335 -189 335 -210 q 319 -158 335 -171 q 274 -139 304 -146 l 303 -10 q 211 21 254 0 q 89 134 135 58 q 43 322 43 210 q 94 497 43 419 q 232 617 144 574 q 426 661 319 661 q 533 651 478 661 q 617 628 589 640 l 622 369 l 535 369 z "},"ĉ":{"ha":668,"x_min":43,"x_max":642,"o":"m 535 369 l 493 469 q 476 508 483 489 q 461 543 468 526 q 338 529 382 550 q 276 468 293 508 q 258 369 260 428 q 285 245 258 299 q 360 163 313 192 q 468 133 408 133 q 544 147 504 133 q 611 186 585 161 l 642 158 q 545 33 617 82 q 378 -17 474 -17 q 210 21 286 -17 q 89 134 135 58 q 43 322 43 210 q 94 497 43 419 q 232 617 144 574 q 426 661 319 661 q 533 651 478 661 q 617 628 589 640 l 622 369 l 535 369 m 504 728 l 388 844 l 265 728 l 199 772 l 354 1006 l 415 1006 l 576 772 l 504 728 z "},"ċ":{"ha":668,"x_min":43,"x_max":642,"o":"m 535 369 l 493 469 q 476 508 483 489 q 461 543 468 526 q 338 529 382 550 q 276 468 293 508 q 258 369 260 428 q 285 245 258 299 q 360 163 313 192 q 468 133 408 133 q 544 147 504 133 q 611 186 585 161 l 642 158 q 545 33 617 82 q 378 -17 474 -17 q 210 21 286 -17 q 89 134 135 58 q 43 322 43 210 q 94 497 43 419 q 232 617 144 574 q 426 661 319 661 q 533 651 478 661 q 617 628 589 640 l 622 369 l 535 369 m 254 861 q 315 928 254 867 q 382 989 376 989 q 423 960 390 989 q 488 898 456 931 q 521 861 521 865 q 490 819 521 853 q 424 753 458 785 q 382 722 390 722 q 345 755 378 722 q 283 820 313 788 q 254 861 254 853 z "},"d":{"ha":838,"x_min":43,"x_max":836,"o":"m 529 897 q 485 901 518 899 q 421 907 453 904 q 378 911 389 910 l 372 1003 q 410 1005 390 1004 q 451 1007 431 1006 q 493 1009 474 1008 q 529 1011 513 1010 l 718 1022 l 731 1017 l 725 125 q 754 120 732 124 q 799 115 776 117 q 828 111 821 113 l 836 21 q 811 19 825 19 q 783 17 797 18 l 756 14 q 729 11 742 13 l 538 -6 l 525 0 l 525 133 q 515 107 521 119 q 440 17 490 50 q 319 -17 390 -17 q 169 24 231 -17 q 75 140 107 65 q 43 317 43 215 q 81 494 43 417 q 195 617 119 572 q 382 661 271 661 q 474 650 426 661 q 528 631 503 642 l 529 897 m 401 133 q 460 145 432 133 q 506 187 488 157 q 525 268 525 217 l 526 282 l 528 489 q 472 536 504 519 q 392 558 429 558 q 291 503 324 558 q 258 354 258 447 q 274 233 258 282 q 320 159 289 185 q 401 133 351 133 z "},"ð":{"ha":789,"x_min":43,"x_max":746,"o":"m 238 1022 q 536 932 421 1011 l 710 1031 l 717 1019 l 708 914 l 615 860 q 624 849 619 854 q 746 447 744 690 q 706 179 746 282 q 586 30 665 76 q 388 -17 507 -17 q 200 24 278 -17 q 83 135 122 64 q 43 300 43 207 q 80 462 43 393 q 187 568 117 531 q 353 606 257 606 q 474 581 424 606 q 533 533 508 563 q 515 656 528 599 q 471 775 500 722 l 279 663 l 269 672 l 282 708 q 307 801 296 751 l 408 858 q 207 936 333 929 l 207 947 l 238 1022 m 410 107 q 474 128 447 107 q 516 188 501 149 q 531 279 531 226 q 490 435 531 376 q 383 493 449 493 q 314 472 342 493 q 272 410 286 451 q 258 310 258 369 q 277 208 258 254 q 331 134 296 161 q 410 107 365 107 z "},"ď":{"ha":838,"x_min":43,"x_max":1035,"o":"m 529 897 q 485 901 518 899 q 421 907 453 904 q 378 911 389 910 l 372 1003 q 410 1005 390 1004 q 451 1007 431 1006 q 493 1009 474 1008 q 529 1011 513 1010 l 718 1022 l 731 1017 l 725 125 q 754 120 732 124 q 799 115 776 117 q 828 111 821 113 l 836 21 q 811 19 825 19 q 783 17 797 18 l 756 14 q 729 11 742 13 l 538 -6 l 525 0 l 525 133 q 515 107 521 119 q 440 17 490 50 q 319 -17 390 -17 q 169 24 231 -17 q 75 140 107 65 q 43 317 43 215 q 81 494 43 417 q 195 617 119 572 q 382 661 271 661 q 474 650 426 661 q 528 631 503 642 l 529 897 m 401 133 q 460 145 432 133 q 506 187 488 157 q 525 268 525 217 l 526 282 l 528 489 q 472 536 504 519 q 392 558 429 558 q 291 503 324 558 q 258 354 258 447 q 274 233 258 282 q 320 159 289 185 q 401 133 351 133 m 801 722 q 829 901 808 772 q 857 1044 850 1031 q 953 1017 882 1039 q 1035 989 1024 996 q 994 910 1032 981 q 918 769 957 839 q 874 694 879 700 q 840 703 864 694 q 801 722 817 711 z "},"đ":{"ha":838,"x_min":43,"x_max":836,"o":"m 529 897 q 485 901 518 899 q 421 907 453 904 q 378 911 389 910 l 372 1003 q 410 1005 390 1004 q 451 1007 431 1006 q 493 1009 474 1008 q 529 1011 513 1010 l 718 1022 l 731 1017 l 729 828 l 822 828 l 822 733 l 729 733 l 725 125 q 754 120 732 124 q 799 115 776 117 q 828 111 821 113 l 836 21 q 811 19 825 19 q 783 17 797 18 l 756 14 q 729 11 742 13 l 538 -6 l 525 0 l 525 133 q 515 107 521 119 q 440 17 490 50 q 319 -17 390 -17 q 169 24 231 -17 q 75 140 107 65 q 43 317 43 215 q 81 494 43 417 q 195 617 119 572 q 382 661 271 661 q 474 650 426 661 q 528 631 503 642 l 528 733 l 344 733 l 344 828 l 529 828 l 529 897 m 401 133 q 460 145 432 133 q 506 187 488 157 q 525 268 525 217 l 526 282 l 528 489 q 472 536 504 519 q 392 558 429 558 q 291 503 324 558 q 258 354 258 447 q 274 233 258 282 q 320 159 289 185 q 401 133 351 133 z "},"e":{"ha":703,"x_min":43,"x_max":683,"o":"m 668 315 l 258 315 q 319 186 264 235 q 464 133 378 133 q 562 149 514 133 q 642 189 610 164 l 674 169 q 570 33 647 82 q 379 -17 493 -17 q 207 22 283 -17 q 87 134 131 60 q 43 311 43 208 q 92 490 43 410 q 224 615 140 569 q 408 661 307 661 q 574 615 510 661 q 660 491 638 569 q 668 315 683 413 m 267 413 l 458 413 q 460 457 461 436 q 438 526 457 500 q 386 551 419 551 q 318 521 347 551 q 274 439 289 490 q 267 413 269 426 z "},"é":{"ha":703,"x_min":43,"x_max":683,"o":"m 668 315 l 258 315 q 319 186 264 235 q 464 133 378 133 q 562 149 514 133 q 642 189 610 164 l 674 169 q 570 33 647 82 q 379 -17 493 -17 q 207 22 283 -17 q 87 134 131 60 q 43 311 43 208 q 92 490 43 410 q 224 615 140 569 q 408 661 307 661 q 574 615 510 661 q 660 491 638 569 q 668 315 683 413 m 331 761 l 419 994 l 619 994 l 619 983 l 375 739 l 331 761 m 267 413 l 458 413 q 460 457 461 436 q 438 526 457 500 q 386 551 419 551 q 318 521 347 551 q 274 439 289 490 q 267 413 269 426 z "},"ĕ":{"ha":703,"x_min":43,"x_max":683,"o":"m 668 315 l 258 315 q 319 186 264 235 q 464 133 378 133 q 562 149 514 133 q 642 189 610 164 l 674 169 q 570 33 647 82 q 379 -17 493 -17 q 207 22 283 -17 q 87 134 131 60 q 43 311 43 208 q 92 490 43 410 q 224 615 140 569 q 408 661 307 661 q 574 615 510 661 q 660 491 638 569 q 668 315 683 413 m 564 972 q 514 802 560 865 q 386 739 468 739 q 258 802 304 739 q 208 972 213 865 l 275 983 q 315 903 286 928 q 386 878 344 878 q 458 903 429 878 q 497 983 488 928 l 564 972 m 267 413 l 458 413 q 460 457 461 436 q 438 526 457 500 q 386 551 419 551 q 318 521 347 551 q 274 439 289 490 q 267 413 269 426 z "},"ě":{"ha":703,"x_min":43,"x_max":683,"o":"m 668 315 l 258 315 q 319 186 264 235 q 464 133 378 133 q 562 149 514 133 q 642 189 610 164 l 674 169 q 570 33 647 82 q 379 -17 493 -17 q 207 22 283 -17 q 87 134 131 60 q 43 311 43 208 q 92 490 43 410 q 224 615 140 569 q 408 661 307 661 q 574 615 510 661 q 660 491 638 569 q 668 315 683 413 m 503 1017 l 575 972 l 414 739 l 353 739 l 197 972 l 264 1017 l 386 900 l 503 1017 m 267 413 l 458 413 q 460 457 461 436 q 438 526 457 500 q 386 551 419 551 q 318 521 347 551 q 274 439 289 490 q 267 413 269 426 z "},"ê":{"ha":703,"x_min":43,"x_max":683,"o":"m 668 315 l 258 315 q 319 186 264 235 q 464 133 378 133 q 562 149 514 133 q 642 189 610 164 l 674 169 q 570 33 647 82 q 379 -17 493 -17 q 207 22 283 -17 q 87 134 131 60 q 43 311 43 208 q 92 490 43 410 q 224 615 140 569 q 408 661 307 661 q 574 615 510 661 q 660 491 638 569 q 668 315 683 413 m 503 728 l 386 844 l 264 728 l 197 772 l 353 1006 l 414 1006 l 575 772 l 503 728 m 267 413 l 458 413 q 460 457 461 436 q 438 526 457 500 q 386 551 419 551 q 318 521 347 551 q 274 439 289 490 q 267 413 269 426 z "},"ë":{"ha":703,"x_min":43,"x_max":683,"o":"m 668 315 l 258 315 q 319 186 264 235 q 464 133 378 133 q 562 149 514 133 q 642 189 610 164 l 674 169 q 570 33 647 82 q 379 -17 493 -17 q 207 22 283 -17 q 87 134 131 60 q 43 311 43 208 q 92 490 43 410 q 224 615 140 569 q 408 661 307 661 q 574 615 510 661 q 660 491 638 569 q 668 315 683 413 m 164 856 q 214 916 163 860 q 269 972 265 972 q 333 917 279 972 q 386 856 386 861 q 333 790 386 846 q 269 733 279 733 q 215 790 265 733 q 164 856 165 847 m 392 856 q 442 917 390 861 q 497 972 493 972 q 560 917 506 972 q 614 856 614 861 q 560 790 614 846 q 497 733 507 733 q 443 790 493 733 q 392 856 393 847 m 267 413 l 458 413 q 460 457 461 436 q 438 526 457 500 q 386 551 419 551 q 318 521 347 551 q 274 439 289 490 q 267 413 269 426 z "},"ė":{"ha":703,"x_min":43,"x_max":683,"o":"m 668 315 l 258 315 q 319 186 264 235 q 464 133 378 133 q 562 149 514 133 q 642 189 610 164 l 674 169 q 570 33 647 82 q 379 -17 493 -17 q 207 22 283 -17 q 87 134 131 60 q 43 311 43 208 q 92 490 43 410 q 224 615 140 569 q 408 661 307 661 q 574 615 510 661 q 660 491 638 569 q 668 315 683 413 m 253 861 q 314 928 253 867 q 381 989 375 989 q 422 960 389 989 q 487 898 454 931 q 519 861 519 865 q 488 819 519 853 q 423 753 457 785 q 381 722 389 722 q 344 755 376 722 q 282 820 311 788 q 253 861 253 853 m 267 413 l 458 413 q 460 457 461 436 q 438 526 457 500 q 386 551 419 551 q 318 521 347 551 q 274 439 289 490 q 267 413 269 426 z "},"è":{"ha":703,"x_min":43,"x_max":683,"o":"m 668 315 l 258 315 q 319 186 264 235 q 464 133 378 133 q 562 149 514 133 q 642 189 610 164 l 674 169 q 570 33 647 82 q 379 -17 493 -17 q 207 22 283 -17 q 87 134 131 60 q 43 311 43 208 q 92 490 43 410 q 224 615 140 569 q 408 661 307 661 q 574 615 510 661 q 660 491 638 569 q 668 315 683 413 m 442 761 l 397 739 l 153 983 l 153 994 l 353 994 l 442 761 m 267 413 l 458 413 q 460 457 461 436 q 438 526 457 500 q 386 551 419 551 q 318 521 347 551 q 274 439 289 490 q 267 413 269 426 z "},"ē":{"ha":703,"x_min":43,"x_max":683,"o":"m 668 315 l 258 315 q 319 186 264 235 q 464 133 378 133 q 562 149 514 133 q 642 189 610 164 l 674 169 q 570 33 647 82 q 379 -17 493 -17 q 207 22 283 -17 q 87 134 131 60 q 43 311 43 208 q 92 490 43 410 q 224 615 140 569 q 408 661 307 661 q 574 615 510 661 q 660 491 638 569 q 668 315 683 413 m 208 878 l 564 878 l 564 761 l 208 761 l 208 878 m 267 413 l 458 413 q 460 457 461 436 q 438 526 457 500 q 386 551 419 551 q 318 521 347 551 q 274 439 289 490 q 267 413 269 426 z "},"ę":{"ha":703,"x_min":43,"x_max":683,"o":"m 528 -289 q 425 -258 461 -289 q 389 -164 389 -226 q 408 -88 389 -128 q 461 -17 428 -49 q 471 -7 465 -11 q 469 -7 469 -7 q 379 -17 426 -17 q 207 22 283 -17 q 87 134 131 60 q 43 311 43 208 q 92 490 43 410 q 224 615 140 569 q 408 661 307 661 q 574 615 510 661 q 660 491 638 569 q 668 315 683 413 l 258 315 q 288 224 261 263 q 362 156 315 179 q 464 133 408 133 q 562 149 514 133 q 642 189 610 164 l 674 169 q 650 119 665 144 q 606 60 635 94 l 604 58 q 548 -33 567 14 q 529 -128 529 -81 q 547 -187 529 -168 q 594 -206 564 -206 q 642 -196 615 -206 l 646 -194 l 646 -250 q 591 -280 618 -271 q 528 -289 564 -289 m 265 413 l 458 413 q 460 457 461 436 q 438 526 457 500 q 386 551 419 551 q 293 486 328 551 q 265 413 275 453 z "},"f":{"ha":549,"x_min":19,"x_max":554,"o":"m 401 928 q 345 903 361 928 q 329 833 329 878 l 329 644 l 531 644 l 531 633 l 514 547 l 329 547 l 329 108 q 369 102 339 107 q 430 93 400 97 q 469 88 460 89 l 469 0 l 19 0 l 19 88 q 50 94 28 89 q 94 103 72 99 q 125 108 117 107 l 125 547 l 19 547 l 19 622 q 41 626 31 624 q 60 631 51 628 q 92 636 76 633 q 125 644 108 639 l 125 822 q 191 973 125 918 q 403 1028 257 1028 q 549 1006 476 1028 l 554 796 l 467 796 l 438 875 q 424 913 431 894 q 418 928 421 919 q 401 928 410 928 z "},"g":{"ha":704,"x_min":15,"x_max":710,"o":"m 319 -300 q 88 -253 161 -300 q 15 -133 15 -207 q 67 -37 15 -76 q 164 -1 106 -7 q 44 117 44 24 q 86 214 44 174 q 185 260 122 247 q 169 265 178 261 q 64 338 101 290 q 26 450 26 386 q 66 556 26 508 q 176 633 106 604 q 336 661 247 661 l 408 661 q 486 663 446 661 q 579 666 532 664 q 674 672 626 668 l 674 556 l 646 556 q 614 557 631 556 q 592 557 603 557 q 597 551 594 554 q 635 439 635 501 q 597 334 635 379 q 488 264 558 289 q 325 239 418 239 q 218 250 267 239 q 208 231 213 242 q 201 200 201 214 q 224 169 201 178 q 301 161 247 161 l 468 161 q 648 112 586 161 q 710 -33 710 63 q 656 -172 710 -111 q 512 -267 601 -233 q 319 -300 422 -300 m 201 -7 q 185 -35 192 -17 q 178 -81 178 -54 q 202 -137 178 -111 q 269 -179 226 -164 q 361 -194 311 -194 q 478 -166 436 -194 q 521 -89 521 -137 q 492 -31 521 -50 q 406 -11 464 -11 l 272 -11 q 201 -7 233 -11 m 325 569 q 263 542 283 569 q 243 464 243 514 q 255 394 243 424 q 290 347 267 364 q 343 331 313 331 q 401 355 383 331 q 418 428 418 379 q 397 530 418 490 q 325 569 375 569 z "},"ǵ":{"ha":704,"x_min":15,"x_max":710,"o":"m 319 -300 q 88 -253 161 -300 q 15 -133 15 -207 q 67 -37 15 -76 q 164 -1 106 -7 q 44 117 44 24 q 86 214 44 174 q 185 260 122 247 q 169 265 178 261 q 64 338 101 290 q 26 450 26 386 q 66 556 26 508 q 176 633 106 604 q 336 661 247 661 l 408 661 q 486 663 446 661 q 579 666 532 664 q 674 672 626 668 l 674 556 l 646 556 q 614 557 631 556 q 592 557 603 557 q 597 551 594 554 q 635 439 635 501 q 597 334 635 379 q 488 264 558 289 q 325 239 418 239 q 218 250 267 239 q 208 231 213 242 q 201 200 201 214 q 224 169 201 178 q 301 161 247 161 l 468 161 q 648 112 586 161 q 710 -33 710 63 q 656 -172 710 -111 q 512 -267 601 -233 q 319 -300 422 -300 m 201 -7 q 185 -35 192 -17 q 178 -81 178 -54 q 202 -137 178 -111 q 269 -179 226 -164 q 361 -194 311 -194 q 478 -166 436 -194 q 521 -89 521 -137 q 492 -31 521 -50 q 406 -11 464 -11 l 272 -11 q 201 -7 233 -11 m 325 569 q 263 542 283 569 q 243 464 243 514 q 255 394 243 424 q 290 347 267 364 q 343 331 313 331 q 401 355 383 331 q 418 428 418 379 q 397 530 418 490 q 325 569 375 569 m 299 761 l 388 994 l 588 994 l 588 983 l 343 739 l 299 761 z "},"ğ":{"ha":704,"x_min":15,"x_max":710,"o":"m 319 -300 q 88 -253 161 -300 q 15 -133 15 -207 q 67 -37 15 -76 q 164 -1 106 -7 q 44 117 44 24 q 86 214 44 174 q 185 260 122 247 q 169 265 178 261 q 64 338 101 290 q 26 450 26 386 q 66 556 26 508 q 176 633 106 604 q 336 661 247 661 l 408 661 q 486 663 446 661 q 579 666 532 664 q 674 672 626 668 l 674 556 l 646 556 q 614 557 631 556 q 592 557 603 557 q 597 551 594 554 q 635 439 635 501 q 597 334 635 379 q 488 264 558 289 q 325 239 418 239 q 218 250 267 239 q 208 231 213 242 q 201 200 201 214 q 224 169 201 178 q 301 161 247 161 l 468 161 q 648 112 586 161 q 710 -33 710 63 q 656 -172 710 -111 q 512 -267 601 -233 q 319 -300 422 -300 m 201 -7 q 185 -35 192 -17 q 178 -81 178 -54 q 202 -137 178 -111 q 269 -179 226 -164 q 361 -194 311 -194 q 478 -166 436 -194 q 521 -89 521 -137 q 492 -31 521 -50 q 406 -11 464 -11 l 272 -11 q 201 -7 233 -11 m 532 972 q 482 802 528 865 q 354 739 436 739 q 226 802 272 739 q 176 972 181 865 l 243 983 q 283 903 254 928 q 354 878 313 878 q 426 903 397 878 q 465 983 456 928 l 532 972 m 325 569 q 263 542 283 569 q 243 464 243 514 q 255 394 243 424 q 290 347 267 364 q 343 331 313 331 q 401 355 383 331 q 418 428 418 379 q 397 530 418 490 q 325 569 375 569 z "},"ǧ":{"ha":704,"x_min":15,"x_max":710,"o":"m 319 -300 q 88 -253 161 -300 q 15 -133 15 -207 q 67 -37 15 -76 q 164 -1 106 -7 q 44 117 44 24 q 86 214 44 174 q 185 260 122 247 q 169 265 178 261 q 64 338 101 290 q 26 450 26 386 q 66 556 26 508 q 176 633 106 604 q 336 661 247 661 l 408 661 q 486 663 446 661 q 579 666 532 664 q 674 672 626 668 l 674 556 l 646 556 q 614 557 631 556 q 592 557 603 557 q 597 551 594 554 q 635 439 635 501 q 597 334 635 379 q 488 264 558 289 q 325 239 418 239 q 218 250 267 239 q 208 231 213 242 q 201 200 201 214 q 224 169 201 178 q 301 161 247 161 l 468 161 q 648 112 586 161 q 710 -33 710 63 q 656 -172 710 -111 q 512 -267 601 -233 q 319 -300 422 -300 m 201 -7 q 185 -35 192 -17 q 178 -81 178 -54 q 202 -137 178 -111 q 269 -179 226 -164 q 361 -194 311 -194 q 478 -166 436 -194 q 521 -89 521 -137 q 492 -31 521 -50 q 406 -11 464 -11 l 272 -11 q 201 -7 233 -11 m 471 1017 l 543 972 l 382 739 l 321 739 l 165 972 l 232 1017 l 354 900 l 471 1017 m 325 569 q 263 542 283 569 q 243 464 243 514 q 255 394 243 424 q 290 347 267 364 q 343 331 313 331 q 401 355 383 331 q 418 428 418 379 q 397 530 418 490 q 325 569 375 569 z "},"ĝ":{"ha":704,"x_min":15,"x_max":710,"o":"m 319 -300 q 88 -253 161 -300 q 15 -133 15 -207 q 67 -37 15 -76 q 164 -1 106 -7 q 44 117 44 24 q 86 214 44 174 q 185 260 122 247 q 169 265 178 261 q 64 338 101 290 q 26 450 26 386 q 66 556 26 508 q 176 633 106 604 q 336 661 247 661 l 408 661 q 486 663 446 661 q 579 666 532 664 q 674 672 626 668 l 674 556 l 646 556 q 614 557 631 556 q 592 557 603 557 q 597 551 594 554 q 635 439 635 501 q 597 334 635 379 q 488 264 558 289 q 325 239 418 239 q 218 250 267 239 q 208 231 213 242 q 201 200 201 214 q 224 169 201 178 q 301 161 247 161 l 468 161 q 648 112 586 161 q 710 -33 710 63 q 656 -172 710 -111 q 512 -267 601 -233 q 319 -300 422 -300 m 201 -7 q 185 -35 192 -17 q 178 -81 178 -54 q 202 -137 178 -111 q 269 -179 226 -164 q 361 -194 311 -194 q 478 -166 436 -194 q 521 -89 521 -137 q 492 -31 521 -50 q 406 -11 464 -11 l 272 -11 q 201 -7 233 -11 m 471 728 l 354 844 l 232 728 l 165 772 l 321 1006 l 382 1006 l 543 772 l 471 728 m 325 569 q 263 542 283 569 q 243 464 243 514 q 255 394 243 424 q 290 347 267 364 q 343 331 313 331 q 401 355 383 331 q 418 428 418 379 q 397 530 418 490 q 325 569 375 569 z "},"ģ":{"ha":704,"x_min":15,"x_max":710,"o":"m 319 -300 q 88 -253 161 -300 q 15 -133 15 -207 q 67 -37 15 -76 q 164 -1 106 -7 q 44 117 44 24 q 86 214 44 174 q 185 260 122 247 q 169 265 178 261 q 64 338 101 290 q 26 450 26 386 q 66 556 26 508 q 176 633 106 604 q 336 661 247 661 l 408 661 q 486 663 446 661 q 579 666 532 664 q 674 672 626 668 l 674 556 l 646 556 q 614 557 631 556 q 592 557 603 557 q 597 551 594 554 q 635 439 635 501 q 597 334 635 379 q 488 264 558 289 q 325 239 418 239 q 218 250 267 239 q 208 231 213 242 q 201 200 201 214 q 224 169 201 178 q 301 161 247 161 l 468 161 q 648 112 586 161 q 710 -33 710 63 q 656 -172 710 -111 q 512 -267 601 -233 q 319 -300 422 -300 m 201 -7 q 185 -35 192 -17 q 178 -81 178 -54 q 202 -137 178 -111 q 269 -179 226 -164 q 361 -194 311 -194 q 478 -166 436 -194 q 521 -89 521 -137 q 492 -31 521 -50 q 406 -11 464 -11 l 272 -11 q 201 -7 233 -11 m 471 1017 q 443 838 464 967 q 415 694 422 708 q 319 722 390 700 q 238 750 249 743 q 278 829 240 758 q 354 969 315 900 q 399 1044 393 1039 q 432 1036 408 1044 q 471 1017 456 1028 m 325 569 q 263 542 283 569 q 243 464 243 514 q 255 394 243 424 q 290 347 267 364 q 343 331 313 331 q 401 355 383 331 q 418 428 418 379 q 397 530 418 490 q 325 569 375 569 z "},"ġ":{"ha":704,"x_min":15,"x_max":710,"o":"m 319 -300 q 88 -253 161 -300 q 15 -133 15 -207 q 67 -37 15 -76 q 164 -1 106 -7 q 44 117 44 24 q 86 214 44 174 q 185 260 122 247 q 169 265 178 261 q 64 338 101 290 q 26 450 26 386 q 66 556 26 508 q 176 633 106 604 q 336 661 247 661 l 408 661 q 486 663 446 661 q 579 666 532 664 q 674 672 626 668 l 674 556 l 646 556 q 614 557 631 556 q 592 557 603 557 q 597 551 594 554 q 635 439 635 501 q 597 334 635 379 q 488 264 558 289 q 325 239 418 239 q 218 250 267 239 q 208 231 213 242 q 201 200 201 214 q 224 169 201 178 q 301 161 247 161 l 468 161 q 648 112 586 161 q 710 -33 710 63 q 656 -172 710 -111 q 512 -267 601 -233 q 319 -300 422 -300 m 201 -7 q 185 -35 192 -17 q 178 -81 178 -54 q 202 -137 178 -111 q 269 -179 226 -164 q 361 -194 311 -194 q 478 -166 436 -194 q 521 -89 521 -137 q 492 -31 521 -50 q 406 -11 464 -11 l 272 -11 q 201 -7 233 -11 m 221 861 q 282 928 221 867 q 349 989 343 989 q 390 960 357 989 q 455 898 422 931 q 488 861 488 865 q 456 819 488 853 q 391 753 425 785 q 349 722 357 722 q 312 755 344 722 q 250 820 279 788 q 221 861 221 853 m 325 569 q 263 542 283 569 q 243 464 243 514 q 255 394 243 424 q 290 347 267 364 q 343 331 313 331 q 401 355 383 331 q 418 428 418 379 q 397 530 418 490 q 325 569 375 569 z "},"h":{"ha":863,"x_min":15,"x_max":854,"o":"m 339 108 q 355 102 343 107 q 380 93 367 97 q 397 88 393 89 l 397 0 l 29 0 l 29 88 q 60 94 38 89 q 104 103 82 99 q 135 108 126 107 l 139 897 q 105 902 131 899 q 54 908 79 906 q 21 913 29 911 l 15 1004 q 44 1006 29 1006 q 76 1008 60 1007 q 108 1010 93 1010 q 138 1011 124 1011 l 328 1022 l 339 1017 l 339 526 q 379 581 356 556 q 468 640 415 618 q 589 661 521 661 q 722 603 683 661 q 761 439 761 544 l 761 108 q 788 102 768 107 q 827 93 807 97 q 854 88 847 89 l 854 0 l 499 0 l 499 88 q 515 94 503 89 q 540 103 528 99 l 557 108 l 557 378 q 528 474 557 443 q 449 506 500 506 q 381 500 418 506 q 339 493 354 496 l 339 108 z "},"ħ":{"ha":863,"x_min":15,"x_max":854,"o":"m 339 108 q 355 102 343 107 q 380 93 367 97 q 397 88 393 89 l 397 0 l 29 0 l 29 88 q 60 94 38 89 q 104 103 82 99 q 135 108 126 107 l 138 744 l 39 744 l 39 839 l 139 839 l 139 897 q 105 902 131 899 q 54 908 79 906 q 21 913 29 911 l 15 1004 q 44 1006 29 1006 q 76 1008 60 1007 q 108 1010 93 1010 q 138 1011 124 1011 l 328 1022 l 339 1017 l 339 839 l 517 839 l 517 744 l 339 744 l 339 526 q 379 581 356 556 q 468 640 415 618 q 589 661 521 661 q 722 603 683 661 q 761 439 761 544 l 761 108 q 788 102 768 107 q 827 93 807 97 q 854 88 847 89 l 854 0 l 499 0 l 499 88 q 515 94 503 89 q 540 103 528 99 l 557 108 l 557 378 q 528 474 557 443 q 449 506 500 506 q 381 500 418 506 q 339 493 354 496 l 339 108 z "},"ĥ":{"ha":863,"x_min":10,"x_max":854,"o":"m 339 108 q 355 102 343 107 q 380 93 367 97 q 397 88 393 89 l 397 0 l 29 0 l 29 88 q 60 94 38 89 q 104 103 82 99 q 135 108 126 107 l 139 897 q 105 902 131 899 q 54 908 79 906 q 21 913 29 911 l 15 1004 q 44 1006 29 1006 q 76 1008 60 1007 q 108 1010 93 1010 q 138 1011 124 1011 l 328 1022 l 339 1017 l 339 526 q 379 581 356 556 q 468 640 415 618 q 589 661 521 661 q 722 603 683 661 q 761 439 761 544 l 761 108 q 788 102 768 107 q 827 93 807 97 q 854 88 847 89 l 854 0 l 499 0 l 499 88 q 515 94 503 89 q 540 103 528 99 l 557 108 l 557 378 q 528 474 557 443 q 449 506 500 506 q 381 500 418 506 q 339 493 354 496 l 339 108 m 346 1061 l 218 1178 l 83 1061 l 10 1106 l 182 1339 l 249 1339 l 426 1106 l 346 1061 z "},"i":{"ha":460,"x_min":24,"x_max":456,"o":"m 349 108 q 379 102 357 107 q 424 93 401 97 q 456 88 447 89 l 456 0 l 38 0 l 38 88 q 68 94 46 89 q 113 103 90 99 q 143 108 135 107 l 147 531 q 113 535 139 532 q 63 542 88 539 q 29 546 38 544 l 24 638 q 53 640 38 639 q 85 642 68 640 q 117 644 101 643 q 146 644 132 644 l 336 656 l 349 650 l 349 108 m 101 861 q 164 928 101 867 q 231 989 226 989 q 272 960 239 989 q 338 898 306 931 q 371 861 371 865 q 308 785 371 847 q 231 722 244 722 q 194 755 228 722 q 131 820 160 788 q 101 861 101 853 z "},"ı":{"ha":460,"x_min":24,"x_max":456,"o":"m 349 108 q 379 102 357 107 q 424 93 401 97 q 456 88 447 89 l 456 0 l 38 0 l 38 88 q 68 94 46 89 q 113 103 90 99 q 143 108 135 107 l 147 531 q 113 535 139 532 q 63 542 88 539 q 29 546 38 544 l 24 638 q 53 640 38 639 q 85 642 68 640 q 117 644 101 643 q 146 644 132 644 l 336 656 l 349 650 l 349 108 z "},"í":{"ha":460,"x_min":24,"x_max":472,"o":"m 349 108 q 379 102 357 107 q 424 93 401 97 q 456 88 447 89 l 456 0 l 38 0 l 38 88 q 68 94 46 89 q 113 103 90 99 q 143 108 135 107 l 147 531 q 113 535 139 532 q 63 542 88 539 q 29 546 38 544 l 24 638 q 53 640 38 639 q 85 642 68 640 q 117 644 101 643 q 146 644 132 644 l 336 656 l 349 650 l 349 108 m 183 761 l 272 994 l 472 994 l 472 983 l 228 739 l 183 761 z "},"ĭ":{"ha":460,"x_min":24,"x_max":456,"o":"m 349 108 q 379 102 357 107 q 424 93 401 97 q 456 88 447 89 l 456 0 l 38 0 l 38 88 q 68 94 46 89 q 113 103 90 99 q 143 108 135 107 l 147 531 q 113 535 139 532 q 63 542 88 539 q 29 546 38 544 l 24 638 q 53 640 38 639 q 85 642 68 640 q 117 644 101 643 q 146 644 132 644 l 336 656 l 349 650 l 349 108 m 417 972 q 367 802 413 865 q 239 739 321 739 q 111 802 157 739 q 61 972 65 865 l 128 983 q 168 903 139 928 q 239 878 197 878 q 311 903 282 878 q 350 983 340 928 l 417 972 z "},"î":{"ha":460,"x_min":24,"x_max":456,"o":"m 349 108 q 379 102 357 107 q 424 93 401 97 q 456 88 447 89 l 456 0 l 38 0 l 38 88 q 68 94 46 89 q 113 103 90 99 q 143 108 135 107 l 147 531 q 113 535 139 532 q 63 542 88 539 q 29 546 38 544 l 24 638 q 53 640 38 639 q 85 642 68 640 q 117 644 101 643 q 146 644 132 644 l 336 656 l 349 650 l 349 108 m 356 728 l 239 844 l 117 728 l 50 772 l 206 1006 l 267 1006 l 428 772 l 356 728 z "},"ï":{"ha":460,"x_min":15,"x_max":467,"o":"m 349 108 q 379 102 357 107 q 424 93 401 97 q 456 88 447 89 l 456 0 l 38 0 l 38 88 q 68 94 46 89 q 113 103 90 99 q 143 108 135 107 l 147 531 q 113 535 139 532 q 63 542 88 539 q 29 546 38 544 l 24 638 q 53 640 38 639 q 85 642 68 640 q 117 644 101 643 q 146 644 132 644 l 336 656 l 349 650 l 349 108 m 17 856 q 67 916 15 860 q 122 972 118 972 q 185 917 132 972 q 239 856 239 861 q 185 790 239 846 q 122 733 132 733 q 68 790 118 733 q 17 856 18 847 m 244 856 q 294 917 243 861 q 350 972 346 972 q 413 917 358 972 q 467 856 467 861 q 413 790 467 846 q 350 733 360 733 q 296 790 346 733 q 244 856 246 847 z "},"ì":{"ha":460,"x_min":6,"x_max":456,"o":"m 349 108 q 379 102 357 107 q 424 93 401 97 q 456 88 447 89 l 456 0 l 38 0 l 38 88 q 68 94 46 89 q 113 103 90 99 q 143 108 135 107 l 147 531 q 113 535 139 532 q 63 542 88 539 q 29 546 38 544 l 24 638 q 53 640 38 639 q 85 642 68 640 q 117 644 101 643 q 146 644 132 644 l 336 656 l 349 650 l 349 108 m 294 761 l 250 739 l 6 983 l 6 994 l 206 994 l 294 761 z "},"ĳ":{"ha":879,"x_min":24,"x_max":810,"o":"m 515 -203 q 572 -179 554 -203 q 593 -108 590 -156 l 597 531 q 563 535 589 532 q 513 542 538 539 q 479 546 488 544 l 474 638 q 503 640 488 639 q 535 642 518 640 q 567 644 551 643 q 596 644 582 644 l 786 656 l 797 650 l 797 -94 q 728 -244 794 -190 q 519 -300 661 -299 l 519 -300 q 517 -300 518 -300 q 514 -300 515 -300 q 374 -278 446 -300 l 368 -76 l 456 -76 q 470 -116 463 -96 q 485 -156 478 -136 q 499 -192 492 -175 q 503 -203 500 -197 q 515 -203 508 -203 m 349 108 q 379 102 357 107 q 424 93 401 97 q 456 88 447 89 l 456 0 l 38 0 l 38 88 q 68 94 46 89 q 113 103 90 99 q 143 108 135 107 l 147 531 q 113 535 139 532 q 63 542 88 539 q 29 546 38 544 l 24 638 q 53 640 38 639 q 85 642 68 640 q 117 644 101 643 q 146 644 132 644 l 336 656 l 349 650 l 349 108 m 101 861 q 164 928 101 867 q 231 989 226 989 q 272 960 239 989 q 338 898 306 931 q 371 861 371 865 q 308 785 371 847 q 231 722 244 722 q 194 755 228 722 q 131 820 160 788 q 101 861 101 853 m 540 861 q 602 928 540 867 q 669 989 664 989 q 711 960 678 989 q 777 898 744 931 q 810 861 810 865 q 778 819 810 853 q 713 753 747 785 q 669 722 678 722 q 632 755 665 722 q 569 820 599 788 q 540 861 540 853 z "},"ī":{"ha":460,"x_min":24,"x_max":456,"o":"m 349 108 q 379 102 357 107 q 424 93 401 97 q 456 88 447 89 l 456 0 l 38 0 l 38 88 q 68 94 46 89 q 113 103 90 99 q 143 108 135 107 l 147 531 q 113 535 139 532 q 63 542 88 539 q 29 546 38 544 l 24 638 q 53 640 38 639 q 85 642 68 640 q 117 644 101 643 q 146 644 132 644 l 336 656 l 349 650 l 349 108 m 61 878 l 417 878 l 417 761 l 61 761 l 61 878 z "},"į":{"ha":460,"x_min":24,"x_max":467,"o":"m 349 108 q 379 102 357 107 q 424 93 401 97 q 456 88 447 89 l 456 0 q 452 -4 454 -3 q 447 -7 450 -6 q 380 -84 404 -50 q 356 -150 356 -118 q 370 -192 356 -178 q 411 -206 385 -206 q 440 -202 425 -206 q 467 -194 454 -199 l 467 -250 q 417 -278 443 -268 q 356 -289 390 -289 q 254 -261 292 -289 q 217 -183 217 -233 q 276 -65 217 -128 q 357 0 314 -26 l 38 0 l 38 88 q 68 94 46 89 q 113 103 90 99 q 143 108 135 107 l 147 531 q 113 535 139 532 q 63 542 88 539 q 29 546 38 544 l 24 638 q 53 640 38 639 q 85 642 68 640 q 117 644 101 643 q 146 644 132 644 l 336 656 l 349 650 l 349 108 m 106 861 q 167 928 106 867 q 233 989 228 989 q 274 960 242 989 q 340 898 307 931 q 372 861 372 865 q 341 819 372 853 q 276 753 310 785 q 233 722 242 722 q 197 755 229 722 q 135 820 164 788 q 106 861 106 853 z "},"ĩ":{"ha":460,"x_min":24,"x_max":456,"o":"m 349 108 q 379 102 357 107 q 424 93 401 97 q 456 88 447 89 l 456 0 l 38 0 l 38 88 q 68 94 46 89 q 113 103 90 99 q 143 108 135 107 l 147 531 q 113 535 139 532 q 63 542 88 539 q 29 546 38 544 l 24 638 q 53 640 38 639 q 85 642 68 640 q 117 644 101 643 q 146 644 132 644 l 336 656 l 349 650 l 349 108 m 161 1000 q 238 974 210 1000 q 290 903 265 947 q 310 872 301 882 q 328 861 318 861 q 354 888 344 861 q 372 983 364 915 l 444 978 q 419 797 444 860 q 317 733 393 733 q 240 760 268 733 q 188 831 213 786 q 168 862 176 851 q 150 872 160 872 q 128 846 138 872 q 106 750 118 819 l 33 756 q 59 938 33 876 q 161 1000 85 1000 z "},"j":{"ha":419,"x_min":-92,"x_max":350,"o":"m 56 -203 q 113 -179 94 -203 q 133 -108 131 -156 l 138 531 q 103 535 129 532 q 53 542 78 539 q 19 546 28 544 l 14 638 q 43 640 28 639 q 75 642 58 640 q 107 644 92 643 q 136 644 122 644 l 326 656 l 338 650 l 338 -94 q 268 -244 335 -190 q 60 -300 201 -299 l 60 -300 q 57 -300 58 -300 q 54 -300 56 -300 q -86 -278 -14 -300 l -92 -76 l -4 -76 q 10 -116 3 -96 q 25 -156 18 -136 q 39 -192 32 -175 q 43 -203 40 -197 q 56 -203 49 -203 m 81 861 q 142 928 81 867 q 210 989 204 989 q 251 960 218 989 q 317 898 285 931 q 350 861 350 865 q 319 819 350 853 q 253 753 288 785 q 210 722 218 722 q 172 755 206 722 q 110 820 139 788 q 81 861 81 853 z "},"ȷ":{"ha":419,"x_min":-92,"x_max":338,"o":"m 56 -203 q 113 -179 94 -203 q 133 -108 131 -156 l 138 531 q 103 535 129 532 q 53 542 78 539 q 19 546 28 544 l 14 638 q 43 640 28 639 q 75 642 58 640 q 107 644 92 643 q 136 644 122 644 l 326 656 l 338 650 l 338 -94 q 268 -244 335 -190 q 60 -300 201 -299 l 60 -300 q 57 -300 58 -300 q 54 -300 56 -300 q -86 -278 -14 -300 l -92 -76 l -4 -76 q 10 -116 3 -96 q 25 -156 18 -136 q 39 -192 32 -175 q 43 -203 40 -197 q 56 -203 49 -203 z "},"ĵ":{"ha":419,"x_min":-92,"x_max":426,"o":"m 56 -203 q 113 -179 94 -203 q 133 -108 131 -156 l 138 531 q 103 535 129 532 q 53 542 78 539 q 19 546 28 544 l 14 638 q 43 640 28 639 q 75 642 58 640 q 107 644 92 643 q 136 644 122 644 l 326 656 l 338 650 l 338 -94 q 268 -244 335 -190 q 60 -300 201 -299 l 60 -300 q 57 -300 58 -300 q 54 -300 56 -300 q -86 -278 -14 -300 l -92 -76 l -4 -76 q 10 -116 3 -96 q 25 -156 18 -136 q 39 -192 32 -175 q 43 -203 40 -197 q 56 -203 49 -203 m 354 728 l 238 844 l 115 728 l 49 772 l 204 1006 l 265 1006 l 426 772 l 354 728 z "},"k":{"ha":828,"x_min":10,"x_max":828,"o":"m 535 531 q 493 542 522 535 q 451 553 464 550 l 451 644 l 821 644 l 821 553 q 788 546 804 550 q 750 538 769 542 q 713 531 731 533 l 553 414 l 758 108 q 793 98 769 106 q 828 88 817 90 l 828 0 l 571 0 l 394 297 l 333 253 l 333 108 q 350 102 338 107 q 375 93 363 97 l 392 88 l 392 0 l 31 0 l 31 88 q 59 94 38 89 q 101 103 81 99 l 129 108 l 133 897 q 99 902 125 899 q 49 908 74 906 q 15 913 24 911 l 10 1004 q 39 1006 24 1006 q 71 1008 54 1007 q 103 1010 88 1010 q 132 1011 118 1011 l 322 1022 l 333 1017 l 333 375 l 535 531 z "},"ķ":{"ha":828,"x_min":10,"x_max":828,"o":"m 535 531 q 493 542 522 535 q 451 553 464 550 l 451 644 l 821 644 l 821 553 q 788 546 804 550 q 750 538 769 542 q 713 531 731 533 l 553 414 l 758 108 q 793 98 769 106 q 828 88 817 90 l 828 0 l 571 0 l 394 297 l 333 253 l 333 108 q 350 102 338 107 q 375 93 363 97 l 392 88 l 392 0 l 31 0 l 31 88 q 59 94 38 89 q 101 103 81 99 l 129 108 l 133 897 q 99 902 125 899 q 49 908 74 906 q 15 913 24 911 l 10 1004 q 39 1006 24 1006 q 71 1008 54 1007 q 103 1010 88 1010 q 132 1011 118 1011 l 322 1022 l 333 1017 l 333 375 l 535 531 m 297 -389 q 325 -210 304 -339 q 353 -67 346 -81 q 449 -94 378 -72 q 531 -122 519 -115 q 490 -201 528 -131 q 414 -342 453 -272 q 369 -417 375 -411 q 336 -408 360 -417 q 297 -389 313 -400 z "},"ĸ":{"ha":843,"x_min":24,"x_max":843,"o":"m 553 531 q 511 542 540 535 q 469 553 482 550 l 469 644 l 838 644 l 838 553 l 810 547 q 773 539 792 543 q 736 531 754 535 l 581 408 l 772 108 q 808 98 783 106 q 843 88 832 90 l 843 0 l 585 0 l 425 288 l 347 226 l 347 108 q 364 102 351 107 q 389 93 376 97 l 406 88 l 406 0 l 38 0 l 38 88 q 68 94 46 89 q 113 103 90 99 q 143 108 135 107 l 147 531 q 113 535 139 532 q 63 542 88 539 q 29 546 38 544 l 24 638 q 53 640 38 639 q 85 642 68 640 q 117 644 101 643 q 146 644 132 644 l 336 656 l 347 650 l 347 350 l 553 531 z "},"l":{"ha":444,"x_min":15,"x_max":432,"o":"m 339 108 q 365 102 346 107 q 405 93 385 97 q 432 88 425 89 l 432 0 l 29 0 l 29 88 q 60 94 38 89 q 104 103 82 99 q 135 108 126 107 l 139 897 q 105 902 131 899 q 54 908 79 906 q 21 913 29 911 l 15 1004 q 44 1006 29 1006 q 76 1008 60 1007 q 108 1010 93 1010 q 138 1011 124 1011 l 328 1022 l 339 1017 l 339 108 z "},"ĺ":{"ha":444,"x_min":15,"x_max":485,"o":"m 339 108 q 365 102 346 107 q 405 93 385 97 q 432 88 425 89 l 432 0 l 29 0 l 29 88 q 60 94 38 89 q 104 103 82 99 q 135 108 126 107 l 139 897 q 105 902 131 899 q 54 908 79 906 q 21 913 29 911 l 15 1004 q 44 1006 29 1006 q 76 1008 60 1007 q 108 1010 93 1010 q 138 1011 124 1011 l 328 1022 l 339 1017 l 339 108 m 167 1094 l 264 1328 l 485 1328 l 485 1317 l 215 1072 l 167 1094 z "},"ľ":{"ha":444,"x_min":15,"x_max":644,"o":"m 339 108 q 365 102 346 107 q 405 93 385 97 q 432 88 425 89 l 432 0 l 29 0 l 29 88 q 60 94 38 89 q 104 103 82 99 q 135 108 126 107 l 139 897 q 105 902 131 899 q 54 908 79 906 q 21 913 29 911 l 15 1004 q 44 1006 29 1006 q 76 1008 60 1007 q 108 1010 93 1010 q 138 1011 124 1011 l 328 1022 l 339 1017 l 339 108 m 411 722 q 439 901 418 772 q 467 1044 460 1031 q 563 1017 492 1039 q 644 989 633 996 q 604 910 642 981 q 528 769 567 839 q 483 694 489 700 q 450 703 474 694 q 411 722 426 711 z "},"ļ":{"ha":444,"x_min":15,"x_max":432,"o":"m 339 108 q 365 102 346 107 q 405 93 385 97 q 432 88 425 89 l 432 0 l 29 0 l 29 88 q 60 94 38 89 q 104 103 82 99 q 135 108 126 107 l 139 897 q 105 902 131 899 q 54 908 79 906 q 21 913 29 911 l 15 1004 q 44 1006 29 1006 q 76 1008 60 1007 q 108 1010 93 1010 q 138 1011 124 1011 l 328 1022 l 339 1017 l 339 108 m 107 -389 q 135 -210 114 -339 q 163 -67 156 -81 q 258 -94 188 -72 q 340 -122 329 -115 q 300 -201 338 -131 q 224 -342 263 -272 q 179 -417 185 -411 q 146 -408 169 -417 q 107 -389 122 -400 z "},"ŀ":{"ha":383,"x_min":15,"x_max":658,"o":"m 339 108 q 365 102 346 107 q 405 93 385 97 q 432 88 425 89 l 432 0 l 29 0 l 29 88 q 60 94 38 89 q 104 103 82 99 q 135 108 126 107 l 139 897 q 105 902 131 899 q 54 908 79 906 q 21 913 29 911 l 15 1004 q 44 1006 29 1006 q 76 1008 60 1007 q 108 1010 93 1010 q 138 1011 124 1011 l 328 1022 l 339 1017 l 339 108 m 392 539 q 453 606 392 544 q 519 667 514 667 q 560 638 528 667 q 626 576 593 608 q 658 539 658 543 q 596 463 658 525 q 519 400 533 400 q 483 433 515 400 q 421 498 450 465 q 392 539 392 531 z "},"ł":{"ha":444,"x_min":15,"x_max":440,"o":"m 339 108 q 365 102 346 107 q 405 93 385 97 q 432 88 425 89 l 432 0 l 29 0 l 29 88 q 60 94 38 89 q 104 103 82 99 q 135 108 126 107 l 136 390 l 40 300 l 29 306 l 29 433 l 138 535 l 139 897 q 105 902 131 899 q 54 908 79 906 q 21 913 29 911 l 15 1004 q 44 1006 29 1006 q 76 1008 60 1007 q 108 1010 93 1010 q 138 1011 124 1011 l 328 1022 l 339 1017 l 339 726 l 429 811 l 440 806 l 440 678 l 339 582 l 339 108 z "},"m":{"ha":1290,"x_min":19,"x_max":1282,"o":"m 563 378 q 534 474 563 443 q 454 506 506 506 q 386 500 424 506 q 344 493 360 496 l 344 108 q 360 102 349 107 q 385 93 372 97 q 403 88 399 89 l 403 0 l 35 0 l 35 88 q 65 94 43 89 q 110 103 88 99 q 140 108 132 107 l 149 514 q 114 517 140 514 q 63 521 88 519 q 29 522 38 522 l 19 614 q 49 618 33 617 q 81 621 64 619 q 111 625 96 624 q 140 628 126 626 l 333 650 l 344 644 l 344 525 q 386 582 363 557 q 473 640 421 619 q 594 661 525 661 q 728 603 688 661 q 757 531 747 574 q 797 582 774 558 q 889 640 835 619 q 1011 661 943 661 q 1149 603 1108 661 q 1189 439 1189 546 l 1189 108 q 1215 102 1196 107 q 1255 93 1235 97 q 1282 88 1275 89 l 1282 0 l 925 0 l 925 88 q 942 94 929 89 q 967 103 954 99 l 983 108 l 983 378 q 953 474 983 442 q 871 506 922 506 q 799 500 836 506 q 764 494 778 497 q 767 439 767 468 l 767 108 q 783 102 771 107 q 808 93 794 97 q 825 88 821 89 l 825 0 l 504 0 l 504 88 q 521 94 508 89 q 546 103 533 99 l 563 108 l 563 378 z "},"n":{"ha":869,"x_min":19,"x_max":861,"o":"m 564 378 q 536 474 564 443 q 454 506 508 506 q 390 500 426 506 q 344 492 364 496 l 344 108 q 360 102 349 107 q 385 93 372 97 q 403 88 399 89 l 403 0 l 35 0 l 35 88 q 65 94 43 89 q 110 103 88 99 q 140 108 132 107 l 149 514 q 114 517 140 514 q 63 521 88 519 q 29 522 38 522 l 19 614 q 49 618 33 617 q 81 621 64 619 q 111 625 96 624 q 140 628 126 626 l 333 650 l 344 644 l 344 524 q 388 581 363 556 q 476 640 424 618 q 594 661 528 661 q 731 603 693 661 q 768 439 768 546 l 768 108 q 794 102 775 107 q 834 93 814 97 q 861 88 854 89 l 861 0 l 506 0 l 506 88 q 522 94 510 89 q 547 103 535 99 l 564 108 l 564 378 z "},"ń":{"ha":869,"x_min":19,"x_max":861,"o":"m 564 378 q 536 474 564 443 q 454 506 508 506 q 390 500 426 506 q 344 492 364 496 l 344 108 q 360 102 349 107 q 385 93 372 97 q 403 88 399 89 l 403 0 l 35 0 l 35 88 q 65 94 43 89 q 110 103 88 99 q 140 108 132 107 l 149 514 q 114 517 140 514 q 63 521 88 519 q 29 522 38 522 l 19 614 q 49 618 33 617 q 81 621 64 619 q 111 625 96 624 q 140 628 126 626 l 333 650 l 344 644 l 344 524 q 388 581 363 556 q 476 640 424 618 q 594 661 528 661 q 731 603 693 661 q 768 439 768 546 l 768 108 q 794 102 775 107 q 834 93 814 97 q 861 88 854 89 l 861 0 l 506 0 l 506 88 q 522 94 510 89 q 547 103 535 99 l 564 108 l 564 378 m 379 761 l 468 994 l 668 994 l 668 983 l 424 739 l 379 761 z "},"ň":{"ha":869,"x_min":19,"x_max":861,"o":"m 564 378 q 536 474 564 443 q 454 506 508 506 q 390 500 426 506 q 344 492 364 496 l 344 108 q 360 102 349 107 q 385 93 372 97 q 403 88 399 89 l 403 0 l 35 0 l 35 88 q 65 94 43 89 q 110 103 88 99 q 140 108 132 107 l 149 514 q 114 517 140 514 q 63 521 88 519 q 29 522 38 522 l 19 614 q 49 618 33 617 q 81 621 64 619 q 111 625 96 624 q 140 628 126 626 l 333 650 l 344 644 l 344 524 q 388 581 363 556 q 476 640 424 618 q 594 661 528 661 q 731 603 693 661 q 768 439 768 546 l 768 108 q 794 102 775 107 q 834 93 814 97 q 861 88 854 89 l 861 0 l 506 0 l 506 88 q 522 94 510 89 q 547 103 535 99 l 564 108 l 564 378 m 551 1017 l 624 972 l 463 739 l 401 739 l 246 972 l 313 1017 l 435 900 l 551 1017 z "},"ņ":{"ha":869,"x_min":19,"x_max":861,"o":"m 564 378 q 536 474 564 443 q 454 506 508 506 q 390 500 426 506 q 344 492 364 496 l 344 108 q 360 102 349 107 q 385 93 372 97 q 403 88 399 89 l 403 0 l 35 0 l 35 88 q 65 94 43 89 q 110 103 88 99 q 140 108 132 107 l 149 514 q 114 517 140 514 q 63 521 88 519 q 29 522 38 522 l 19 614 q 49 618 33 617 q 81 621 64 619 q 111 625 96 624 q 140 628 126 626 l 333 650 l 344 644 l 344 524 q 388 581 363 556 q 476 640 424 618 q 594 661 528 661 q 731 603 693 661 q 768 439 768 546 l 768 108 q 794 102 775 107 q 834 93 814 97 q 861 88 854 89 l 861 0 l 506 0 l 506 88 q 522 94 510 89 q 547 103 535 99 l 564 108 l 564 378 m 318 -389 q 346 -210 325 -339 q 374 -67 367 -81 q 469 -94 399 -72 q 551 -122 540 -115 q 511 -201 549 -131 q 435 -342 474 -272 q 390 -417 396 -411 q 357 -408 381 -417 q 318 -389 333 -400 z "},"ŋ":{"ha":849,"x_min":19,"x_max":767,"o":"m 565 378 q 538 474 565 443 q 454 506 510 506 q 392 500 428 506 q 344 492 364 496 l 344 108 q 367 102 350 107 q 403 93 385 97 q 426 88 421 89 l 426 0 l 35 0 l 35 88 q 65 94 43 89 q 110 103 88 99 q 140 108 132 107 l 149 514 q 114 517 140 514 q 63 521 88 519 q 29 522 38 522 l 19 614 q 49 618 33 617 q 81 621 64 619 q 111 625 96 624 q 140 628 126 626 l 333 650 l 344 644 l 344 526 q 386 582 363 557 q 476 640 424 619 q 594 661 528 661 q 728 607 690 661 q 767 439 767 553 l 767 -94 q 700 -246 767 -192 q 489 -300 635 -299 l 489 -300 q 486 -300 488 -300 q 483 -300 485 -300 q 408 -294 443 -300 q 343 -278 374 -287 l 338 -82 l 425 -82 q 456 -151 454 -149 q 481 -211 458 -157 q 485 -211 482 -211 q 547 -187 528 -211 q 565 -117 565 -164 l 565 378 z "},"ñ":{"ha":869,"x_min":19,"x_max":861,"o":"m 564 378 q 536 474 564 443 q 454 506 508 506 q 390 500 426 506 q 344 492 364 496 l 344 108 q 360 102 349 107 q 385 93 372 97 q 403 88 399 89 l 403 0 l 35 0 l 35 88 q 65 94 43 89 q 110 103 88 99 q 140 108 132 107 l 149 514 q 114 517 140 514 q 63 521 88 519 q 29 522 38 522 l 19 614 q 49 618 33 617 q 81 621 64 619 q 111 625 96 624 q 140 628 126 626 l 333 650 l 344 644 l 344 524 q 388 581 363 556 q 476 640 424 618 q 594 661 528 661 q 731 603 693 661 q 768 439 768 546 l 768 108 q 794 102 775 107 q 834 93 814 97 q 861 88 854 89 l 861 0 l 506 0 l 506 88 q 522 94 510 89 q 547 103 535 99 l 564 108 l 564 378 m 357 1000 q 433 974 406 1000 q 486 903 461 947 q 506 872 497 882 q 524 861 514 861 q 550 888 540 861 q 568 983 560 915 l 640 978 q 615 797 640 860 q 513 733 589 733 q 436 760 464 733 q 383 831 408 786 q 364 862 372 851 q 346 872 356 872 q 324 846 333 872 q 301 750 314 819 l 229 756 q 255 938 229 876 q 357 1000 281 1000 z "},"o":{"ha":814,"x_min":43,"x_max":771,"o":"m 396 -17 q 203 26 282 -17 q 83 146 124 69 q 43 322 43 222 q 86 498 43 421 q 214 618 129 575 q 418 661 299 661 q 611 618 532 661 q 731 499 690 575 q 771 322 771 422 q 728 147 771 224 q 601 27 686 71 q 396 -17 517 -17 m 418 94 q 519 149 485 94 q 554 306 554 204 q 535 436 554 381 q 481 521 515 492 q 400 550 446 550 q 294 494 331 550 q 258 339 258 439 q 278 208 258 263 q 335 124 299 153 q 418 94 371 94 z "},"ó":{"ha":814,"x_min":43,"x_max":771,"o":"m 396 -17 q 203 26 282 -17 q 83 146 124 69 q 43 322 43 222 q 86 498 43 421 q 214 618 129 575 q 418 661 299 661 q 611 618 532 661 q 731 499 690 575 q 771 322 771 422 q 728 147 771 224 q 601 27 686 71 q 396 -17 517 -17 m 418 94 q 519 149 485 94 q 554 306 554 204 q 535 436 554 381 q 481 521 515 492 q 400 550 446 550 q 294 494 331 550 q 258 339 258 439 q 278 208 258 263 q 335 124 299 153 q 418 94 371 94 m 351 761 l 440 994 l 640 994 l 640 983 l 396 739 l 351 761 z "},"ŏ":{"ha":814,"x_min":43,"x_max":771,"o":"m 396 -17 q 203 26 282 -17 q 83 146 124 69 q 43 322 43 222 q 86 498 43 421 q 214 618 129 575 q 418 661 299 661 q 611 618 532 661 q 731 499 690 575 q 771 322 771 422 q 728 147 771 224 q 601 27 686 71 q 396 -17 517 -17 m 418 94 q 519 149 485 94 q 554 306 554 204 q 535 436 554 381 q 481 521 515 492 q 400 550 446 550 q 294 494 331 550 q 258 339 258 439 q 278 208 258 263 q 335 124 299 153 q 418 94 371 94 m 585 972 q 535 802 581 865 q 407 739 489 739 q 279 802 325 739 q 229 972 233 865 l 296 983 q 336 903 307 928 q 407 878 365 878 q 479 903 450 878 q 518 983 508 928 l 585 972 z "},"ô":{"ha":814,"x_min":43,"x_max":771,"o":"m 396 -17 q 203 26 282 -17 q 83 146 124 69 q 43 322 43 222 q 86 498 43 421 q 214 618 129 575 q 418 661 299 661 q 611 618 532 661 q 731 499 690 575 q 771 322 771 422 q 728 147 771 224 q 601 27 686 71 q 396 -17 517 -17 m 418 94 q 519 149 485 94 q 554 306 554 204 q 535 436 554 381 q 481 521 515 492 q 400 550 446 550 q 294 494 331 550 q 258 339 258 439 q 278 208 258 263 q 335 124 299 153 q 418 94 371 94 m 524 728 l 407 844 l 285 728 l 218 772 l 374 1006 l 435 1006 l 596 772 l 524 728 z "},"ö":{"ha":814,"x_min":43,"x_max":771,"o":"m 396 -17 q 203 26 282 -17 q 83 146 124 69 q 43 322 43 222 q 86 498 43 421 q 214 618 129 575 q 418 661 299 661 q 611 618 532 661 q 731 499 690 575 q 771 322 771 422 q 728 147 771 224 q 601 27 686 71 q 396 -17 517 -17 m 418 94 q 519 149 485 94 q 554 306 554 204 q 535 436 554 381 q 481 521 515 492 q 400 550 446 550 q 294 494 331 550 q 258 339 258 439 q 278 208 258 263 q 335 124 299 153 q 418 94 371 94 m 185 856 q 235 916 183 860 q 290 972 286 972 q 353 917 300 972 q 407 856 407 861 q 353 790 407 846 q 290 733 300 733 q 236 790 286 733 q 185 856 186 847 m 413 856 q 463 917 411 861 q 518 972 514 972 q 581 917 526 972 q 635 856 635 861 q 581 790 635 846 q 518 733 528 733 q 464 790 514 733 q 413 856 414 847 z "},"ò":{"ha":814,"x_min":43,"x_max":771,"o":"m 396 -17 q 203 26 282 -17 q 83 146 124 69 q 43 322 43 222 q 86 498 43 421 q 214 618 129 575 q 418 661 299 661 q 611 618 532 661 q 731 499 690 575 q 771 322 771 422 q 728 147 771 224 q 601 27 686 71 q 396 -17 517 -17 m 418 94 q 519 149 485 94 q 554 306 554 204 q 535 436 554 381 q 481 521 515 492 q 400 550 446 550 q 294 494 331 550 q 258 339 258 439 q 278 208 258 263 q 335 124 299 153 q 418 94 371 94 m 463 761 l 418 739 l 174 983 l 174 994 l 374 994 l 463 761 z "},"ő":{"ha":814,"x_min":43,"x_max":771,"o":"m 396 -17 q 203 26 282 -17 q 83 146 124 69 q 43 322 43 222 q 86 498 43 421 q 214 618 129 575 q 418 661 299 661 q 611 618 532 661 q 731 499 690 575 q 771 322 771 422 q 728 147 771 224 q 601 27 686 71 q 396 -17 517 -17 m 418 94 q 519 149 485 94 q 554 306 554 204 q 535 436 554 381 q 481 521 515 492 q 400 550 446 550 q 294 494 331 550 q 258 339 258 439 q 278 208 258 263 q 335 124 299 153 q 418 94 371 94 m 229 761 l 296 994 l 474 994 l 474 983 l 274 739 l 229 761 m 463 761 l 557 994 l 740 994 l 740 983 l 507 739 l 463 761 z "},"ō":{"ha":814,"x_min":43,"x_max":771,"o":"m 396 -17 q 203 26 282 -17 q 83 146 124 69 q 43 322 43 222 q 86 498 43 421 q 214 618 129 575 q 418 661 299 661 q 611 618 532 661 q 731 499 690 575 q 771 322 771 422 q 728 147 771 224 q 601 27 686 71 q 396 -17 517 -17 m 418 94 q 519 149 485 94 q 554 306 554 204 q 535 436 554 381 q 481 521 515 492 q 400 550 446 550 q 294 494 331 550 q 258 339 258 439 q 278 208 258 263 q 335 124 299 153 q 418 94 371 94 m 229 878 l 585 878 l 585 761 l 229 761 l 229 878 z "},"ø":{"ha":814,"x_min":43,"x_max":771,"o":"m 150 0 l 43 0 l 125 86 q 83 146 101 113 q 43 322 43 222 q 86 498 43 421 q 214 618 129 575 q 418 661 299 661 q 611 618 532 661 q 629 608 619 613 l 664 644 l 771 644 l 689 558 q 731 499 713 532 q 771 322 771 422 q 728 147 771 224 q 601 27 686 71 q 396 -17 517 -17 q 203 26 282 -17 q 185 36 194 32 l 150 0 m 268 233 l 518 493 q 481 550 503 528 q 400 583 444 583 q 294 518 331 583 q 258 339 258 453 q 268 233 258 281 m 418 61 q 519 126 485 61 q 554 306 554 190 q 544 410 554 363 l 294 150 q 335 96 311 117 q 418 61 371 61 z "},"ǿ":{"ha":814,"x_min":43,"x_max":771,"o":"m 150 0 l 43 0 l 125 86 q 83 146 101 113 q 43 322 43 222 q 86 498 43 421 q 214 618 129 575 q 418 661 299 661 q 611 618 532 661 q 629 608 619 613 l 664 644 l 771 644 l 689 558 q 731 499 713 532 q 771 322 771 422 q 728 147 771 224 q 601 27 686 71 q 396 -17 517 -17 q 203 26 282 -17 q 185 36 194 32 l 150 0 m 268 233 l 518 493 q 481 550 503 528 q 400 583 444 583 q 294 518 331 583 q 258 339 258 453 q 268 233 258 281 m 418 61 q 519 126 485 61 q 554 306 554 190 q 544 410 554 363 l 294 150 q 335 96 311 117 q 418 61 371 61 m 351 761 l 440 994 l 640 994 l 640 983 l 396 739 l 351 761 z "},"õ":{"ha":814,"x_min":43,"x_max":771,"o":"m 396 -17 q 203 26 282 -17 q 83 146 124 69 q 43 322 43 222 q 86 498 43 421 q 214 618 129 575 q 418 661 299 661 q 611 618 532 661 q 731 499 690 575 q 771 322 771 422 q 728 147 771 224 q 601 27 686 71 q 396 -17 517 -17 m 418 94 q 519 149 485 94 q 554 306 554 204 q 535 436 554 381 q 481 521 515 492 q 400 550 446 550 q 294 494 331 550 q 258 339 258 439 q 278 208 258 263 q 335 124 299 153 q 418 94 371 94 m 329 1000 q 406 974 378 1000 q 458 903 433 947 q 478 872 469 882 q 496 861 486 861 q 522 888 513 861 q 540 983 532 915 l 613 978 q 587 797 613 860 q 485 733 561 733 q 408 760 436 733 q 356 831 381 786 q 336 862 344 851 q 318 872 328 872 q 296 846 306 872 q 274 750 286 819 l 201 756 q 227 938 201 876 q 329 1000 253 1000 z "},"œ":{"ha":1158,"x_min":43,"x_max":1139,"o":"m 365 -17 q 190 27 263 -17 q 81 147 118 71 q 43 322 43 224 q 83 497 43 419 q 198 617 122 574 q 378 661 274 661 q 547 618 476 661 q 628 540 596 586 q 704 614 660 583 q 858 661 774 661 q 1030 612 965 661 q 1117 483 1094 563 q 1124 311 1139 403 l 726 311 q 753 231 732 265 q 822 158 779 183 q 908 133 864 133 q 994 154 956 133 q 1061 213 1033 175 l 1131 169 q 1078 74 1117 117 q 982 8 1039 32 q 858 -17 925 -17 q 697 21 764 -17 q 617 94 650 47 q 540 28 586 54 q 365 -17 468 -17 m 399 81 q 486 141 457 81 q 515 306 515 201 q 499 443 515 385 q 451 533 482 501 q 381 564 421 564 q 288 505 318 564 q 258 339 258 446 q 276 203 258 261 q 325 113 293 144 q 399 81 357 81 m 731 414 l 914 414 q 915 458 917 438 q 895 525 913 500 q 847 550 878 550 q 758 490 790 550 q 731 414 739 456 z "},"p":{"ha":860,"x_min":11,"x_max":817,"o":"m 333 -169 q 376 -176 344 -171 q 440 -185 407 -181 q 483 -190 472 -189 l 483 -278 l 24 -278 l 24 -190 q 54 -184 32 -189 q 99 -175 76 -179 q 129 -169 121 -171 l 131 531 q 97 537 122 532 q 47 545 71 542 q 14 550 22 549 l 11 642 l 40 642 q 72 643 56 642 q 104 644 89 643 q 133 644 119 644 l 322 650 l 333 644 l 333 510 q 343 536 338 524 q 420 627 368 593 q 546 661 472 661 q 687 622 625 661 q 783 510 749 583 q 817 339 817 438 q 774 153 817 235 q 651 28 731 72 q 467 -17 571 -17 q 379 -8 418 -17 q 333 7 356 -3 l 333 -169 m 458 511 q 396 497 424 511 q 351 453 368 483 q 333 378 333 424 l 333 156 q 383 111 356 129 q 467 86 422 86 q 567 144 535 86 q 600 301 600 203 q 584 413 600 365 q 536 485 568 460 q 458 511 504 511 z "},"þ":{"ha":806,"x_min":-44,"x_max":763,"o":"m 279 -169 q 322 -176 290 -171 q 386 -185 354 -181 q 429 -190 418 -189 l 429 -278 l -31 -278 l -31 -190 q 1 -184 -22 -189 q 45 -175 24 -179 q 75 -169 67 -171 l 75 0 l 79 897 q 45 902 71 899 q -6 908 19 906 q -39 913 -31 911 l -44 1004 q -15 1006 -31 1006 q 17 1008 0 1007 q 49 1010 33 1010 q 78 1011 64 1011 l 268 1022 l 279 1017 l 279 506 q 290 536 283 521 q 367 627 315 593 q 492 661 418 661 q 632 622 571 661 q 728 510 693 583 q 763 339 763 438 q 719 153 763 233 q 597 28 676 72 q 413 -17 518 -17 q 325 -8 363 -17 q 279 6 301 -4 l 279 -169 m 404 517 q 341 501 369 517 q 296 449 313 485 q 279 361 279 414 l 279 151 q 331 107 301 125 q 413 81 369 81 q 513 142 481 81 q 546 311 546 204 q 531 421 546 375 q 483 492 515 467 q 404 517 451 517 z "},"q":{"ha":800,"x_min":43,"x_max":824,"o":"m 319 -17 q 169 24 231 -17 q 75 139 107 64 q 43 317 43 214 q 83 499 43 422 q 201 619 122 576 q 393 661 279 661 q 542 640 471 661 q 628 603 586 625 l 718 650 l 731 644 l 731 -169 q 758 -176 738 -171 q 797 -185 778 -181 q 824 -190 817 -189 l 824 -278 l 374 -278 l 374 -190 q 417 -184 385 -189 q 482 -175 450 -179 q 525 -169 514 -171 l 525 132 q 515 107 521 118 q 440 17 490 50 q 319 -17 390 -17 m 401 133 q 460 145 432 133 q 506 187 488 157 q 525 268 525 217 l 525 511 q 474 543 501 531 q 392 558 432 558 q 292 502 326 558 q 258 354 258 446 q 274 233 258 282 q 320 159 289 185 q 401 133 351 133 z "},"r":{"ha":576,"x_min":19,"x_max":560,"o":"m 343 108 q 383 102 353 107 q 444 93 414 97 q 483 88 474 89 l 483 0 l 33 0 l 33 88 q 64 94 42 89 q 108 103 86 99 q 139 108 131 107 l 143 531 q 109 535 135 532 q 58 542 83 539 q 25 546 33 544 l 19 638 q 49 640 33 639 q 81 642 64 640 q 113 644 97 643 q 142 644 128 644 l 332 656 l 343 650 l 343 483 q 371 571 354 536 q 424 639 390 617 q 507 661 457 661 q 560 656 536 661 l 547 426 q 490 444 525 436 q 428 453 456 453 q 369 449 392 453 q 343 442 353 446 l 343 108 z "},"ŕ":{"ha":576,"x_min":19,"x_max":560,"o":"m 343 108 q 383 102 353 107 q 444 93 414 97 q 483 88 474 89 l 483 0 l 33 0 l 33 88 q 64 94 42 89 q 108 103 86 99 q 139 108 131 107 l 143 531 q 109 535 135 532 q 58 542 83 539 q 25 546 33 544 l 19 638 q 49 640 33 639 q 81 642 64 640 q 113 644 97 643 q 142 644 128 644 l 332 656 l 343 650 l 343 483 q 371 571 354 536 q 424 639 390 617 q 507 661 457 661 q 560 656 536 661 l 547 426 q 490 444 525 436 q 428 453 456 453 q 369 449 392 453 q 343 442 353 446 l 343 108 m 235 761 l 324 994 l 524 994 l 524 983 l 279 739 l 235 761 z "},"ř":{"ha":576,"x_min":19,"x_max":560,"o":"m 343 108 q 383 102 353 107 q 444 93 414 97 q 483 88 474 89 l 483 0 l 33 0 l 33 88 q 64 94 42 89 q 108 103 86 99 q 139 108 131 107 l 143 531 q 109 535 135 532 q 58 542 83 539 q 25 546 33 544 l 19 638 q 49 640 33 639 q 81 642 64 640 q 113 644 97 643 q 142 644 128 644 l 332 656 l 343 650 l 343 483 q 371 571 354 536 q 424 639 390 617 q 507 661 457 661 q 560 656 536 661 l 547 426 q 490 444 525 436 q 428 453 456 453 q 369 449 392 453 q 343 442 353 446 l 343 108 m 407 1017 l 479 972 l 318 739 l 257 739 l 101 972 l 168 1017 l 290 900 l 407 1017 z "},"ŗ":{"ha":576,"x_min":19,"x_max":560,"o":"m 343 108 q 383 102 353 107 q 444 93 414 97 q 483 88 474 89 l 483 0 l 33 0 l 33 88 q 64 94 42 89 q 108 103 86 99 q 139 108 131 107 l 143 531 q 109 535 135 532 q 58 542 83 539 q 25 546 33 544 l 19 638 q 49 640 33 639 q 81 642 64 640 q 113 644 97 643 q 142 644 128 644 l 332 656 l 343 650 l 343 483 q 371 571 354 536 q 424 639 390 617 q 507 661 457 661 q 560 656 536 661 l 547 426 q 490 444 525 436 q 428 453 456 453 q 369 449 392 453 q 343 442 353 446 l 343 108 m 174 -389 q 201 -210 181 -339 q 229 -67 222 -81 q 325 -94 254 -72 q 407 -122 396 -115 q 367 -201 404 -131 q 290 -342 329 -272 q 246 -417 251 -411 q 213 -408 236 -417 q 174 -389 189 -400 z "},"s":{"ha":576,"x_min":51,"x_max":536,"o":"m 238 -17 q 141 -10 188 -17 q 57 6 94 -4 l 51 199 l 132 199 q 153 153 142 176 l 171 108 q 176 97 174 101 q 179 89 179 92 q 299 91 256 72 q 343 147 343 110 q 330 182 343 167 q 298 208 317 197 q 242 236 279 218 q 144 290 182 265 q 79 360 107 315 q 51 472 51 404 q 119 612 51 563 q 328 661 186 661 q 411 654 364 661 q 490 639 458 647 l 496 446 l 415 446 q 407 467 411 457 q 399 488 403 478 l 385 521 q 369 556 378 538 q 283 553 319 565 q 246 514 246 540 q 260 473 246 490 q 297 444 275 456 q 357 415 318 432 q 449 368 414 390 q 510 306 485 346 q 536 206 536 267 q 457 42 536 101 q 238 -17 378 -17 z "},"ś":{"ha":576,"x_min":51,"x_max":536,"o":"m 238 -17 q 141 -10 188 -17 q 57 6 94 -4 l 51 199 l 132 199 q 153 153 142 176 l 171 108 q 176 97 174 101 q 179 89 179 92 q 299 91 256 72 q 343 147 343 110 q 330 182 343 167 q 298 208 317 197 q 242 236 279 218 q 144 290 182 265 q 79 360 107 315 q 51 472 51 404 q 119 612 51 563 q 328 661 186 661 q 411 654 364 661 q 490 639 458 647 l 496 446 l 415 446 q 407 467 411 457 q 399 488 403 478 l 385 521 q 369 556 378 538 q 283 553 319 565 q 246 514 246 540 q 260 473 246 490 q 297 444 275 456 q 357 415 318 432 q 449 368 414 390 q 510 306 485 346 q 536 206 536 267 q 457 42 536 101 q 238 -17 378 -17 m 238 761 l 326 994 l 526 994 l 526 983 l 282 739 l 238 761 z "},"š":{"ha":576,"x_min":51,"x_max":536,"o":"m 238 -17 q 141 -10 188 -17 q 57 6 94 -4 l 51 199 l 132 199 q 153 153 142 176 l 171 108 q 176 97 174 101 q 179 89 179 92 q 299 91 256 72 q 343 147 343 110 q 330 182 343 167 q 298 208 317 197 q 242 236 279 218 q 144 290 182 265 q 79 360 107 315 q 51 472 51 404 q 119 612 51 563 q 328 661 186 661 q 411 654 364 661 q 490 639 458 647 l 496 446 l 415 446 q 407 467 411 457 q 399 488 403 478 l 385 521 q 369 556 378 538 q 283 553 319 565 q 246 514 246 540 q 260 473 246 490 q 297 444 275 456 q 357 415 318 432 q 449 368 414 390 q 510 306 485 346 q 536 206 536 267 q 457 42 536 101 q 238 -17 378 -17 m 410 1017 l 482 972 l 321 739 l 260 739 l 104 972 l 171 1017 l 293 900 l 410 1017 z "},"ş":{"ha":576,"x_min":51,"x_max":536,"o":"m 235 -294 q 146 -283 190 -294 l 157 -211 q 218 -228 190 -228 q 251 -219 239 -228 q 263 -189 263 -210 q 247 -158 263 -171 q 201 -139 232 -146 l 229 -17 q 142 -10 183 -17 q 57 6 94 -4 l 51 199 l 132 199 q 153 153 142 176 l 171 108 q 176 97 174 101 q 179 89 179 92 q 299 91 256 72 q 343 147 343 110 q 330 182 343 167 q 298 208 317 197 q 242 236 279 218 q 144 290 182 265 q 79 360 107 315 q 51 472 51 404 q 119 612 51 563 q 328 661 186 661 q 411 654 364 661 q 490 639 458 647 l 496 446 l 415 446 q 407 467 411 457 q 399 488 403 478 l 385 521 q 369 556 378 538 q 283 553 319 565 q 246 514 246 540 q 260 473 246 490 q 297 444 275 456 q 357 415 318 432 q 449 368 414 390 q 510 306 485 346 q 536 206 536 267 q 457 43 536 101 q 319 -11 403 1 l 310 -68 q 386 -108 361 -85 q 413 -172 413 -133 q 363 -262 413 -229 q 235 -294 313 -294 z "},"ŝ":{"ha":576,"x_min":51,"x_max":536,"o":"m 238 -17 q 141 -10 188 -17 q 57 6 94 -4 l 51 199 l 132 199 q 153 153 142 176 l 171 108 q 176 97 174 101 q 179 89 179 92 q 299 91 256 72 q 343 147 343 110 q 330 182 343 167 q 298 208 317 197 q 242 236 279 218 q 144 290 182 265 q 79 360 107 315 q 51 472 51 404 q 119 612 51 563 q 328 661 186 661 q 411 654 364 661 q 490 639 458 647 l 496 446 l 415 446 q 407 467 411 457 q 399 488 403 478 l 385 521 q 369 556 378 538 q 283 553 319 565 q 246 514 246 540 q 260 473 246 490 q 297 444 275 456 q 357 415 318 432 q 449 368 414 390 q 510 306 485 346 q 536 206 536 267 q 457 42 536 101 q 238 -17 378 -17 m 410 728 l 293 844 l 171 728 l 104 772 l 260 1006 l 321 1006 l 482 772 l 410 728 z "},"ș":{"ha":576,"x_min":51,"x_max":536,"o":"m 238 -17 q 141 -10 188 -17 q 57 6 94 -4 l 51 199 l 132 199 q 153 153 142 176 l 171 108 q 176 97 174 101 q 179 89 179 92 q 299 91 256 72 q 343 147 343 110 q 330 182 343 167 q 298 208 317 197 q 242 236 279 218 q 144 290 182 265 q 79 360 107 315 q 51 472 51 404 q 119 612 51 563 q 328 661 186 661 q 411 654 364 661 q 490 639 458 647 l 496 446 l 415 446 q 407 467 411 457 q 399 488 403 478 l 385 521 q 369 556 378 538 q 283 553 319 565 q 246 514 246 540 q 260 473 246 490 q 297 444 275 456 q 357 415 318 432 q 449 368 414 390 q 510 306 485 346 q 536 206 536 267 q 457 42 536 101 q 238 -17 378 -17 m 163 -389 q 190 -210 169 -339 q 218 -67 211 -81 q 314 -94 243 -72 q 396 -122 385 -115 q 356 -201 393 -131 q 279 -342 318 -272 q 235 -417 240 -411 q 201 -408 225 -417 q 163 -389 178 -400 z "},"ß":{"ha":878,"x_min":19,"x_max":838,"o":"m 542 701 q 549 792 550 749 q 513 907 544 864 q 426 950 481 950 q 353 924 378 950 q 329 850 329 897 l 329 108 q 340 102 332 107 q 358 93 349 97 q 371 88 368 89 l 371 0 l 19 0 l 19 88 q 50 94 28 89 q 94 103 72 99 q 125 108 117 107 l 125 529 l 25 529 l 25 622 q 46 626 36 624 q 64 631 56 628 q 125 644 106 639 l 125 822 q 146 924 125 881 q 233 998 167 968 q 428 1028 300 1028 q 623 985 546 1028 q 724 861 700 943 q 713 665 749 779 q 622 640 654 658 q 590 588 590 621 q 611 536 590 558 q 679 479 632 514 q 760 412 729 442 q 815 336 792 382 q 838 228 838 290 q 772 46 838 108 q 585 -17 706 -17 q 501 -10 544 -17 q 431 6 458 -4 l 431 10 q 429 11 431 11 l 429 213 l 511 213 q 515 203 513 207 q 518 193 517 199 q 550 114 535 153 q 561 86 556 100 q 571 86 565 86 q 623 102 603 86 q 643 150 643 118 q 631 201 643 178 q 601 244 619 225 q 551 292 583 264 q 486 357 511 328 q 443 427 461 386 q 425 522 425 468 q 450 625 425 585 q 528 694 475 665 q 542 701 533 697 z "},"t":{"ha":510,"x_min":1,"x_max":515,"o":"m 1 622 q 141 699 71 647 q 260 817 211 751 l 322 811 l 322 644 l 515 644 l 515 633 l 499 547 l 322 547 l 322 201 q 344 128 322 150 q 411 107 365 107 q 490 113 440 107 l 507 50 q 426 1 479 19 q 296 -17 372 -17 q 155 29 192 -17 q 118 161 118 75 l 118 547 l 1 547 l 1 622 z "},"ŧ":{"ha":510,"x_min":1,"x_max":515,"o":"m 1 622 q 141 699 71 647 q 260 817 211 751 l 322 811 l 322 644 l 515 644 l 515 633 l 499 547 l 322 547 l 322 372 l 500 372 l 500 278 l 322 278 l 322 201 q 344 128 322 150 q 411 107 365 107 q 490 113 440 107 l 507 50 q 426 1 479 19 q 296 -17 372 -17 q 155 29 192 -17 q 118 161 118 75 l 118 278 l 22 278 l 22 372 l 118 372 l 118 547 l 1 547 l 1 622 z "},"ť":{"ha":510,"x_min":1,"x_max":668,"o":"m 1 622 q 141 699 71 647 q 260 817 211 751 l 322 811 l 322 644 l 515 644 l 515 633 l 499 547 l 322 547 l 322 201 q 344 128 322 150 q 411 107 365 107 q 490 113 440 107 l 507 50 q 426 1 479 19 q 296 -17 372 -17 q 155 29 192 -17 q 118 161 118 75 l 118 547 l 1 547 l 1 622 m 435 750 q 463 929 442 800 q 490 1072 483 1058 q 586 1045 515 1067 q 668 1017 657 1024 q 628 938 665 1008 q 551 797 590 867 q 507 722 513 728 q 474 731 497 722 q 435 750 450 739 z "},"ţ":{"ha":510,"x_min":1,"x_max":515,"o":"m 1 622 q 141 699 71 647 q 260 817 211 751 l 322 811 l 322 644 l 515 644 l 515 633 l 499 547 l 322 547 l 322 201 q 344 128 322 150 q 411 107 365 107 q 490 113 440 107 l 507 50 q 426 1 479 19 q 296 -17 372 -17 q 285 -17 290 -17 l 275 -68 q 351 -108 326 -85 q 378 -172 378 -133 q 328 -262 378 -229 q 200 -294 278 -294 q 111 -283 156 -294 l 122 -211 q 183 -228 156 -228 q 216 -219 204 -228 q 228 -189 228 -210 q 213 -158 228 -171 q 167 -139 197 -146 l 197 -1 q 156 29 171 10 q 118 161 118 75 l 118 547 l 1 547 l 1 622 z "},"ț":{"ha":510,"x_min":1,"x_max":515,"o":"m 1 622 q 141 699 71 647 q 260 817 211 751 l 322 811 l 322 644 l 515 644 l 515 633 l 499 547 l 322 547 l 322 201 q 344 128 322 150 q 411 107 365 107 q 490 113 440 107 l 507 50 q 426 1 479 19 q 296 -17 372 -17 q 155 29 192 -17 q 118 161 118 75 l 118 547 l 1 547 l 1 622 m 128 -389 q 156 -210 135 -339 q 183 -67 176 -81 q 279 -94 208 -72 q 361 -122 350 -115 q 321 -201 358 -131 q 244 -342 283 -272 q 200 -417 206 -411 q 167 -408 190 -417 q 128 -389 143 -400 z "},"u":{"ha":833,"x_min":-7,"x_max":832,"o":"m 304 267 q 333 169 304 199 q 413 139 363 139 q 481 144 444 139 q 521 153 506 149 l 522 536 q 495 542 515 538 q 456 550 475 546 q 429 556 436 554 l 426 647 q 450 649 438 649 l 475 649 q 501 650 489 650 l 524 650 l 714 656 l 725 650 l 719 125 q 750 120 728 124 q 794 115 772 117 q 825 111 817 113 l 832 21 q 807 19 821 19 q 778 17 793 18 l 750 14 q 724 11 736 13 l 532 -6 l 521 0 l 521 119 q 492 76 508 97 q 407 10 460 38 q 282 -17 354 -17 q 143 35 186 -17 q 100 206 100 86 l 104 531 q 73 535 96 532 q 28 542 50 539 q -3 547 6 546 l -7 639 q 15 640 3 639 q 40 642 28 640 q 73 643 57 643 q 103 644 89 643 l 293 656 l 304 650 l 304 267 z "},"ú":{"ha":833,"x_min":-7,"x_max":832,"o":"m 304 267 q 333 169 304 199 q 413 139 363 139 q 481 144 444 139 q 521 153 506 149 l 522 536 q 495 542 515 538 q 456 550 475 546 q 429 556 436 554 l 426 647 q 450 649 438 649 l 475 649 q 501 650 489 650 l 524 650 l 714 656 l 725 650 l 719 125 q 750 120 728 124 q 794 115 772 117 q 825 111 817 113 l 832 21 q 807 19 821 19 q 778 17 793 18 l 750 14 q 724 11 736 13 l 532 -6 l 521 0 l 521 119 q 492 76 508 97 q 407 10 460 38 q 282 -17 354 -17 q 143 35 186 -17 q 100 206 100 86 l 104 531 q 73 535 96 532 q 28 542 50 539 q -3 547 6 546 l -7 639 q 15 640 3 639 q 40 642 28 640 q 73 643 57 643 q 103 644 89 643 l 293 656 l 304 650 l 304 267 m 365 761 l 454 994 l 654 994 l 654 983 l 410 739 l 365 761 z "},"ŭ":{"ha":833,"x_min":-7,"x_max":832,"o":"m 304 267 q 333 169 304 199 q 413 139 363 139 q 481 144 444 139 q 521 153 506 149 l 522 536 q 495 542 515 538 q 456 550 475 546 q 429 556 436 554 l 426 647 q 450 649 438 649 l 475 649 q 501 650 489 650 l 524 650 l 714 656 l 725 650 l 719 125 q 750 120 728 124 q 794 115 772 117 q 825 111 817 113 l 832 21 q 807 19 821 19 q 778 17 793 18 l 750 14 q 724 11 736 13 l 532 -6 l 521 0 l 521 119 q 492 76 508 97 q 407 10 460 38 q 282 -17 354 -17 q 143 35 186 -17 q 100 206 100 86 l 104 531 q 73 535 96 532 q 28 542 50 539 q -3 547 6 546 l -7 639 q 15 640 3 639 q 40 642 28 640 q 73 643 57 643 q 103 644 89 643 l 293 656 l 304 650 l 304 267 m 599 972 q 549 802 594 865 q 421 739 503 739 q 293 802 339 739 q 243 972 247 865 l 310 983 q 350 903 321 928 q 421 878 379 878 q 493 903 464 878 q 532 983 522 928 l 599 972 z "},"ǔ":{"ha":833,"x_min":-7,"x_max":832,"o":"m 304 267 q 333 169 304 199 q 413 139 363 139 q 481 144 444 139 q 521 153 506 149 l 522 536 q 495 542 515 538 q 456 550 475 546 q 429 556 436 554 l 426 647 q 450 649 438 649 l 475 649 q 501 650 489 650 l 524 650 l 714 656 l 725 650 l 719 125 q 750 120 728 124 q 794 115 772 117 q 825 111 817 113 l 832 21 q 807 19 821 19 q 778 17 793 18 l 750 14 q 724 11 736 13 l 532 -6 l 521 0 l 521 119 q 492 76 508 97 q 407 10 460 38 q 282 -17 354 -17 q 143 35 186 -17 q 100 206 100 86 l 104 531 q 73 535 96 532 q 28 542 50 539 q -3 547 6 546 l -7 639 q 15 640 3 639 q 40 642 28 640 q 73 643 57 643 q 103 644 89 643 l 293 656 l 304 650 l 304 267 m 538 1017 l 610 972 l 449 739 l 388 739 l 232 972 l 299 1017 l 421 900 l 538 1017 z "},"û":{"ha":833,"x_min":-7,"x_max":832,"o":"m 304 267 q 333 169 304 199 q 413 139 363 139 q 481 144 444 139 q 521 153 506 149 l 522 536 q 495 542 515 538 q 456 550 475 546 q 429 556 436 554 l 426 647 q 450 649 438 649 l 475 649 q 501 650 489 650 l 524 650 l 714 656 l 725 650 l 719 125 q 750 120 728 124 q 794 115 772 117 q 825 111 817 113 l 832 21 q 807 19 821 19 q 778 17 793 18 l 750 14 q 724 11 736 13 l 532 -6 l 521 0 l 521 119 q 492 76 508 97 q 407 10 460 38 q 282 -17 354 -17 q 143 35 186 -17 q 100 206 100 86 l 104 531 q 73 535 96 532 q 28 542 50 539 q -3 547 6 546 l -7 639 q 15 640 3 639 q 40 642 28 640 q 73 643 57 643 q 103 644 89 643 l 293 656 l 304 650 l 304 267 m 538 728 l 421 844 l 299 728 l 232 772 l 388 1006 l 449 1006 l 610 772 l 538 728 z "},"ü":{"ha":833,"x_min":-7,"x_max":832,"o":"m 304 267 q 333 169 304 199 q 413 139 363 139 q 481 144 444 139 q 521 153 506 149 l 522 536 q 495 542 515 538 q 456 550 475 546 q 429 556 436 554 l 426 647 q 450 649 438 649 l 475 649 q 501 650 489 650 l 524 650 l 714 656 l 725 650 l 719 125 q 750 120 728 124 q 794 115 772 117 q 825 111 817 113 l 832 21 q 807 19 821 19 q 778 17 793 18 l 750 14 q 724 11 736 13 l 532 -6 l 521 0 l 521 119 q 492 76 508 97 q 407 10 460 38 q 282 -17 354 -17 q 143 35 186 -17 q 100 206 100 86 l 104 531 q 73 535 96 532 q 28 542 50 539 q -3 547 6 546 l -7 639 q 15 640 3 639 q 40 642 28 640 q 73 643 57 643 q 103 644 89 643 l 293 656 l 304 650 l 304 267 m 199 856 q 249 916 197 860 q 304 972 300 972 q 367 917 314 972 q 421 856 421 861 q 367 790 421 846 q 304 733 314 733 q 250 790 300 733 q 199 856 200 847 m 426 856 q 476 917 425 861 q 532 972 528 972 q 594 917 540 972 q 649 856 649 861 q 595 790 649 846 q 532 733 542 733 q 478 790 528 733 q 426 856 428 847 z "},"ù":{"ha":833,"x_min":-7,"x_max":832,"o":"m 304 267 q 333 169 304 199 q 413 139 363 139 q 481 144 444 139 q 521 153 506 149 l 522 536 q 495 542 515 538 q 456 550 475 546 q 429 556 436 554 l 426 647 q 450 649 438 649 l 475 649 q 501 650 489 650 l 524 650 l 714 656 l 725 650 l 719 125 q 750 120 728 124 q 794 115 772 117 q 825 111 817 113 l 832 21 q 807 19 821 19 q 778 17 793 18 l 750 14 q 724 11 736 13 l 532 -6 l 521 0 l 521 119 q 492 76 508 97 q 407 10 460 38 q 282 -17 354 -17 q 143 35 186 -17 q 100 206 100 86 l 104 531 q 73 535 96 532 q 28 542 50 539 q -3 547 6 546 l -7 639 q 15 640 3 639 q 40 642 28 640 q 73 643 57 643 q 103 644 89 643 l 293 656 l 304 650 l 304 267 m 476 761 l 432 739 l 188 983 l 188 994 l 388 994 l 476 761 z "},"ű":{"ha":833,"x_min":-7,"x_max":832,"o":"m 304 267 q 333 169 304 199 q 413 139 363 139 q 481 144 444 139 q 521 153 506 149 l 522 536 q 495 542 515 538 q 456 550 475 546 q 429 556 436 554 l 426 647 q 450 649 438 649 l 475 649 q 501 650 489 650 l 524 650 l 714 656 l 725 650 l 719 125 q 750 120 728 124 q 794 115 772 117 q 825 111 817 113 l 832 21 q 807 19 821 19 q 778 17 793 18 l 750 14 q 724 11 736 13 l 532 -6 l 521 0 l 521 119 q 492 76 508 97 q 407 10 460 38 q 282 -17 354 -17 q 143 35 186 -17 q 100 206 100 86 l 104 531 q 73 535 96 532 q 28 542 50 539 q -3 547 6 546 l -7 639 q 15 640 3 639 q 40 642 28 640 q 73 643 57 643 q 103 644 89 643 l 293 656 l 304 650 l 304 267 m 476 761 l 571 994 l 754 994 l 754 983 l 521 739 l 476 761 m 243 761 l 310 994 l 488 994 l 488 983 l 288 739 l 243 761 z "},"ū":{"ha":833,"x_min":-7,"x_max":832,"o":"m 304 267 q 333 169 304 199 q 413 139 363 139 q 481 144 444 139 q 521 153 506 149 l 522 536 q 495 542 515 538 q 456 550 475 546 q 429 556 436 554 l 426 647 q 450 649 438 649 l 475 649 q 501 650 489 650 l 524 650 l 714 656 l 725 650 l 719 125 q 750 120 728 124 q 794 115 772 117 q 825 111 817 113 l 832 21 q 807 19 821 19 q 778 17 793 18 l 750 14 q 724 11 736 13 l 532 -6 l 521 0 l 521 119 q 492 76 508 97 q 407 10 460 38 q 282 -17 354 -17 q 143 35 186 -17 q 100 206 100 86 l 104 531 q 73 535 96 532 q 28 542 50 539 q -3 547 6 546 l -7 639 q 15 640 3 639 q 40 642 28 640 q 73 643 57 643 q 103 644 89 643 l 293 656 l 304 650 l 304 267 m 243 878 l 599 878 l 599 761 l 243 761 l 243 878 z "},"ų":{"ha":833,"x_min":-7,"x_max":843,"o":"m 304 267 q 333 169 304 199 q 413 139 363 139 q 481 144 444 139 q 521 153 506 149 l 522 536 q 495 542 515 538 q 456 550 475 546 q 429 556 436 554 l 426 647 q 450 649 438 649 l 475 649 q 501 650 489 650 l 524 650 l 714 656 l 725 650 l 719 125 q 750 120 728 124 q 794 115 772 117 q 825 111 817 113 l 832 21 q 828 17 831 18 q 824 14 826 15 q 756 -63 781 -29 q 732 -129 732 -97 q 747 -171 732 -157 q 788 -185 761 -185 q 816 -181 801 -185 q 843 -174 831 -178 l 843 -229 q 793 -258 819 -247 q 732 -268 767 -268 q 631 -240 668 -268 q 593 -162 593 -212 q 653 -44 593 -107 q 717 11 683 -12 l 532 -6 l 521 0 l 521 119 q 492 76 508 97 q 407 10 460 38 q 282 -17 354 -17 q 143 35 186 -17 q 100 206 100 86 l 104 531 q 73 535 96 532 q 28 542 50 539 q -3 547 6 546 l -7 639 q 15 640 3 639 q 40 642 28 640 q 73 643 57 643 q 103 644 89 643 l 293 656 l 304 650 l 304 267 z "},"ů":{"ha":833,"x_min":-7,"x_max":832,"o":"m 304 267 q 333 169 304 199 q 413 139 363 139 q 481 144 444 139 q 521 153 506 149 l 522 536 q 495 542 515 538 q 456 550 475 546 q 429 556 436 554 l 426 647 q 450 649 438 649 l 475 649 q 501 650 489 650 l 524 650 l 714 656 l 725 650 l 719 125 q 750 120 728 124 q 794 115 772 117 q 825 111 817 113 l 832 21 q 807 19 821 19 q 778 17 793 18 l 750 14 q 724 11 736 13 l 532 -6 l 521 0 l 521 119 q 492 76 508 97 q 407 10 460 38 q 282 -17 354 -17 q 143 35 186 -17 q 100 206 100 86 l 104 531 q 73 535 96 532 q 28 542 50 539 q -3 547 6 546 l -7 639 q 15 640 3 639 q 40 642 28 640 q 73 643 57 643 q 103 644 89 643 l 293 656 l 304 650 l 304 267 m 421 722 q 306 763 351 722 q 260 872 260 803 q 306 982 260 942 q 421 1022 351 1022 q 536 982 490 1022 q 582 872 582 942 q 536 763 582 803 q 421 722 490 722 m 421 817 q 460 833 443 817 q 476 872 476 849 q 460 912 476 896 q 421 928 443 928 q 382 912 399 928 q 365 872 365 896 q 382 833 365 849 q 421 817 399 817 z "},"ũ":{"ha":833,"x_min":-7,"x_max":832,"o":"m 304 267 q 333 169 304 199 q 413 139 363 139 q 481 144 444 139 q 521 153 506 149 l 522 536 q 495 542 515 538 q 456 550 475 546 q 429 556 436 554 l 426 647 q 450 649 438 649 l 475 649 q 501 650 489 650 l 524 650 l 714 656 l 725 650 l 719 125 q 750 120 728 124 q 794 115 772 117 q 825 111 817 113 l 832 21 q 807 19 821 19 q 778 17 793 18 l 750 14 q 724 11 736 13 l 532 -6 l 521 0 l 521 119 q 492 76 508 97 q 407 10 460 38 q 282 -17 354 -17 q 143 35 186 -17 q 100 206 100 86 l 104 531 q 73 535 96 532 q 28 542 50 539 q -3 547 6 546 l -7 639 q 15 640 3 639 q 40 642 28 640 q 73 643 57 643 q 103 644 89 643 l 293 656 l 304 650 l 304 267 m 343 1000 q 419 974 392 1000 q 472 903 447 947 q 492 872 483 882 q 510 861 500 861 q 536 888 526 861 q 554 983 546 915 l 626 978 q 601 797 626 860 q 499 733 575 733 q 422 760 450 733 q 369 831 394 786 q 350 862 358 851 q 332 872 342 872 q 310 846 319 872 q 288 750 300 819 l 215 756 q 241 938 215 876 q 343 1000 267 1000 z "},"v":{"ha":782,"x_min":15,"x_max":761,"o":"m 742 644 l 761 644 l 761 553 q 759 552 760 553 q 757 551 758 551 q 729 543 746 549 q 693 531 713 538 l 446 -11 l 358 -11 q 314 103 339 44 q 260 222 289 161 l 81 531 q 48 542 71 535 q 15 553 25 550 l 15 644 l 386 644 l 386 553 q 369 546 382 551 q 344 536 356 540 q 328 531 332 532 l 388 394 q 392 386 390 390 q 396 378 394 382 q 432 310 411 343 q 460 267 446 286 l 571 531 q 554 538 567 532 l 528 547 q 510 553 514 551 l 510 644 l 742 644 z "},"w":{"ha":1156,"x_min":19,"x_max":1129,"o":"m 685 644 l 782 644 l 782 553 q 764 542 772 547 q 749 533 756 538 q 746 532 747 532 l 744 531 l 814 378 q 824 358 819 368 q 831 339 828 349 q 850 299 842 317 l 936 531 q 924 537 933 532 q 907 547 915 542 q 896 553 899 551 l 896 644 l 1129 644 l 1129 553 l 1128 553 q 1101 544 1119 550 q 1061 531 1083 538 l 846 -11 l 764 -11 q 754 16 758 3 q 744 43 750 29 q 692 178 703 150 l 585 383 l 435 -11 l 349 -11 q 331 42 340 15 q 311 94 322 68 q 292 140 301 118 q 274 183 283 163 l 85 531 q 52 542 75 535 q 19 553 29 550 l 19 644 l 372 644 l 372 553 q 359 547 369 551 q 340 537 349 542 q 328 531 331 532 l 392 383 q 436 292 415 329 l 517 514 l 508 531 q 503 542 507 535 q 497 553 499 550 l 497 644 l 685 644 z "},"ẃ":{"ha":1156,"x_min":19,"x_max":1129,"o":"m 685 644 l 782 644 l 782 553 q 764 542 772 547 q 749 533 756 538 q 746 532 747 532 l 744 531 l 814 378 q 824 358 819 368 q 831 339 828 349 q 850 299 842 317 l 936 531 q 924 537 933 532 q 907 547 915 542 q 896 553 899 551 l 896 644 l 1129 644 l 1129 553 l 1128 553 q 1101 544 1119 550 q 1061 531 1083 538 l 846 -11 l 764 -11 q 754 16 758 3 q 744 43 750 29 q 692 178 703 150 l 585 383 l 435 -11 l 349 -11 q 331 42 340 15 q 311 94 322 68 q 292 140 301 118 q 274 183 283 163 l 85 531 q 52 542 75 535 q 19 553 29 550 l 19 644 l 372 644 l 372 553 q 359 547 369 551 q 340 537 349 542 q 328 531 331 532 l 392 383 q 436 292 415 329 l 517 514 l 508 531 q 503 542 507 535 q 497 553 499 550 l 497 644 l 685 644 m 524 761 l 613 994 l 813 994 l 813 983 l 568 739 l 524 761 z "},"ŵ":{"ha":1156,"x_min":19,"x_max":1129,"o":"m 685 644 l 782 644 l 782 553 q 764 542 772 547 q 749 533 756 538 q 746 532 747 532 l 744 531 l 814 378 q 824 358 819 368 q 831 339 828 349 q 850 299 842 317 l 936 531 q 924 537 933 532 q 907 547 915 542 q 896 553 899 551 l 896 644 l 1129 644 l 1129 553 l 1128 553 q 1101 544 1119 550 q 1061 531 1083 538 l 846 -11 l 764 -11 q 754 16 758 3 q 744 43 750 29 q 692 178 703 150 l 585 383 l 435 -11 l 349 -11 q 331 42 340 15 q 311 94 322 68 q 292 140 301 118 q 274 183 283 163 l 85 531 q 52 542 75 535 q 19 553 29 550 l 19 644 l 372 644 l 372 553 q 359 547 369 551 q 340 537 349 542 q 328 531 331 532 l 392 383 q 436 292 415 329 l 517 514 l 508 531 q 503 542 507 535 q 497 553 499 550 l 497 644 l 685 644 m 696 728 l 579 844 l 457 728 l 390 772 l 546 1006 l 607 1006 l 768 772 l 696 728 z "},"ẅ":{"ha":1156,"x_min":19,"x_max":1129,"o":"m 685 644 l 782 644 l 782 553 q 764 542 772 547 q 749 533 756 538 q 746 532 747 532 l 744 531 l 814 378 q 824 358 819 368 q 831 339 828 349 q 850 299 842 317 l 936 531 q 924 537 933 532 q 907 547 915 542 q 896 553 899 551 l 896 644 l 1129 644 l 1129 553 l 1128 553 q 1101 544 1119 550 q 1061 531 1083 538 l 846 -11 l 764 -11 q 754 16 758 3 q 744 43 750 29 q 692 178 703 150 l 585 383 l 435 -11 l 349 -11 q 331 42 340 15 q 311 94 322 68 q 292 140 301 118 q 274 183 283 163 l 85 531 q 52 542 75 535 q 19 553 29 550 l 19 644 l 372 644 l 372 553 q 359 547 369 551 q 340 537 349 542 q 328 531 331 532 l 392 383 q 436 292 415 329 l 517 514 l 508 531 q 503 542 507 535 q 497 553 499 550 l 497 644 l 685 644 m 357 856 q 407 916 356 860 q 463 972 458 972 q 526 917 472 972 q 579 856 579 861 q 526 790 579 846 q 463 733 472 733 q 408 790 458 733 q 357 856 358 847 m 585 856 q 635 917 583 861 q 690 972 686 972 q 753 917 699 972 q 807 856 807 861 q 753 790 807 846 q 690 733 700 733 q 636 790 686 733 q 585 856 586 847 z "},"ẁ":{"ha":1156,"x_min":19,"x_max":1129,"o":"m 685 644 l 782 644 l 782 553 q 764 542 772 547 q 749 533 756 538 q 746 532 747 532 l 744 531 l 814 378 q 824 358 819 368 q 831 339 828 349 q 850 299 842 317 l 936 531 q 924 537 933 532 q 907 547 915 542 q 896 553 899 551 l 896 644 l 1129 644 l 1129 553 l 1128 553 q 1101 544 1119 550 q 1061 531 1083 538 l 846 -11 l 764 -11 q 754 16 758 3 q 744 43 750 29 q 692 178 703 150 l 585 383 l 435 -11 l 349 -11 q 331 42 340 15 q 311 94 322 68 q 292 140 301 118 q 274 183 283 163 l 85 531 q 52 542 75 535 q 19 553 29 550 l 19 644 l 372 644 l 372 553 q 359 547 369 551 q 340 537 349 542 q 328 531 331 532 l 392 383 q 436 292 415 329 l 517 514 l 508 531 q 503 542 507 535 q 497 553 499 550 l 497 644 l 685 644 m 635 761 l 590 739 l 346 983 l 346 994 l 546 994 l 635 761 z "},"x":{"ha":792,"x_min":22,"x_max":769,"o":"m 38 0 l 22 0 l 22 88 q 42 93 31 90 q 69 100 54 96 q 99 108 85 104 l 267 331 l 110 531 q 75 542 99 535 q 40 553 51 550 l 40 644 l 407 644 l 407 553 q 395 546 404 551 q 378 536 386 540 q 368 531 371 532 l 467 406 l 544 531 q 533 538 542 532 q 516 547 524 543 q 506 553 508 551 l 506 644 l 758 644 l 758 553 q 751 550 756 551 l 743 547 q 717 540 731 544 q 690 531 703 535 l 532 322 l 699 108 q 734 98 710 106 q 769 88 758 90 l 769 0 l 399 0 l 399 88 q 410 94 401 89 q 428 103 418 99 q 440 108 438 107 l 336 240 l 254 108 l 267 103 q 286 93 276 97 q 299 88 296 89 l 299 0 l 38 0 z "},"y":{"ha":782,"x_min":15,"x_max":761,"o":"m 446 -11 l 442 -22 q 371 -165 406 -108 q 286 -255 336 -221 q 168 -289 236 -289 q 121 -285 143 -289 q 82 -278 99 -282 l 82 -21 l 174 -21 q 181 -47 176 -35 q 188 -69 185 -58 q 196 -101 192 -87 q 204 -122 200 -114 q 251 -108 228 -125 q 306 -35 275 -92 q 340 40 322 -6 q 314 103 328 71 q 260 222 289 161 l 81 531 q 48 542 71 535 q 15 553 25 550 l 15 644 l 386 644 l 386 553 q 369 546 382 551 q 344 536 356 540 q 328 531 332 532 l 388 394 q 392 386 390 390 q 396 378 394 382 q 432 310 411 343 q 460 267 446 286 l 571 531 q 554 538 567 532 l 528 547 q 510 553 514 551 l 510 644 l 761 644 l 761 553 q 759 552 760 553 q 757 551 758 551 q 729 543 746 549 q 693 531 713 538 l 446 -11 z "},"ý":{"ha":782,"x_min":15,"x_max":761,"o":"m 446 -11 l 442 -22 q 371 -165 406 -108 q 286 -255 336 -221 q 168 -289 236 -289 q 121 -285 143 -289 q 82 -278 99 -282 l 82 -21 l 174 -21 q 181 -47 176 -35 q 188 -69 185 -58 q 196 -101 192 -87 q 204 -122 200 -114 q 251 -108 228 -125 q 306 -35 275 -92 q 340 40 322 -6 q 314 103 328 71 q 260 222 289 161 l 81 531 q 48 542 71 535 q 15 553 25 550 l 15 644 l 386 644 l 386 553 q 369 546 382 551 q 344 536 356 540 q 328 531 332 532 l 388 394 q 392 386 390 390 q 396 378 394 382 q 432 310 411 343 q 460 267 446 286 l 571 531 q 554 538 567 532 l 528 547 q 510 553 514 551 l 510 644 l 761 644 l 761 553 q 759 552 760 553 q 757 551 758 551 q 729 543 746 549 q 693 531 713 538 l 446 -11 m 331 761 l 419 994 l 619 994 l 619 983 l 375 739 l 331 761 z "},"ŷ":{"ha":782,"x_min":15,"x_max":761,"o":"m 446 -11 l 442 -22 q 371 -165 406 -108 q 286 -255 336 -221 q 168 -289 236 -289 q 121 -285 143 -289 q 82 -278 99 -282 l 82 -21 l 174 -21 q 181 -47 176 -35 q 188 -69 185 -58 q 196 -101 192 -87 q 204 -122 200 -114 q 251 -108 228 -125 q 306 -35 275 -92 q 340 40 322 -6 q 314 103 328 71 q 260 222 289 161 l 81 531 q 48 542 71 535 q 15 553 25 550 l 15 644 l 386 644 l 386 553 q 369 546 382 551 q 344 536 356 540 q 328 531 332 532 l 388 394 q 392 386 390 390 q 396 378 394 382 q 432 310 411 343 q 460 267 446 286 l 571 531 q 554 538 567 532 l 528 547 q 510 553 514 551 l 510 644 l 761 644 l 761 553 q 759 552 760 553 q 757 551 758 551 q 729 543 746 549 q 693 531 713 538 l 446 -11 m 503 728 l 386 844 l 264 728 l 197 772 l 353 1006 l 414 1006 l 575 772 l 503 728 z "},"ÿ":{"ha":782,"x_min":15,"x_max":761,"o":"m 446 -11 l 442 -22 q 371 -165 406 -108 q 286 -255 336 -221 q 168 -289 236 -289 q 121 -285 143 -289 q 82 -278 99 -282 l 82 -21 l 174 -21 q 181 -47 176 -35 q 188 -69 185 -58 q 196 -101 192 -87 q 204 -122 200 -114 q 251 -108 228 -125 q 306 -35 275 -92 q 340 40 322 -6 q 314 103 328 71 q 260 222 289 161 l 81 531 q 48 542 71 535 q 15 553 25 550 l 15 644 l 386 644 l 386 553 q 369 546 382 551 q 344 536 356 540 q 328 531 332 532 l 388 394 q 392 386 390 390 q 396 378 394 382 q 432 310 411 343 q 460 267 446 286 l 571 531 q 554 538 567 532 l 528 547 q 510 553 514 551 l 510 644 l 761 644 l 761 553 q 759 552 760 553 q 757 551 758 551 q 729 543 746 549 q 693 531 713 538 l 446 -11 m 164 856 q 214 916 163 860 q 269 972 265 972 q 333 917 279 972 q 386 856 386 861 q 333 790 386 846 q 269 733 279 733 q 215 790 265 733 q 164 856 165 847 m 392 856 q 442 917 390 861 q 497 972 493 972 q 560 917 506 972 q 614 856 614 861 q 560 790 614 846 q 497 733 507 733 q 443 790 493 733 q 392 856 393 847 z "},"ỳ":{"ha":782,"x_min":15,"x_max":761,"o":"m 446 -11 l 442 -22 q 371 -165 406 -108 q 286 -255 336 -221 q 168 -289 236 -289 q 121 -285 143 -289 q 82 -278 99 -282 l 82 -21 l 174 -21 q 181 -47 176 -35 q 188 -69 185 -58 q 196 -101 192 -87 q 204 -122 200 -114 q 251 -108 228 -125 q 306 -35 275 -92 q 340 40 322 -6 q 314 103 328 71 q 260 222 289 161 l 81 531 q 48 542 71 535 q 15 553 25 550 l 15 644 l 386 644 l 386 553 q 369 546 382 551 q 344 536 356 540 q 328 531 332 532 l 388 394 q 392 386 390 390 q 396 378 394 382 q 432 310 411 343 q 460 267 446 286 l 571 531 q 554 538 567 532 l 528 547 q 510 553 514 551 l 510 644 l 761 644 l 761 553 q 759 552 760 553 q 757 551 758 551 q 729 543 746 549 q 693 531 713 538 l 446 -11 m 442 761 l 397 739 l 153 983 l 153 994 l 353 994 l 442 761 z "},"z":{"ha":621,"x_min":50,"x_max":589,"o":"m 563 644 l 299 103 l 419 103 q 437 139 429 121 q 454 175 444 157 q 476 218 465 194 q 501 269 488 242 l 589 269 l 569 0 l 50 0 l 314 542 l 203 542 l 176 489 q 163 457 169 472 q 149 428 156 442 l 61 428 l 61 644 l 563 644 z "},"ź":{"ha":621,"x_min":50,"x_max":589,"o":"m 563 644 l 299 103 l 419 103 q 437 139 429 121 q 454 175 444 157 q 476 218 465 194 q 501 269 488 242 l 589 269 l 569 0 l 50 0 l 314 542 l 203 542 l 176 489 q 163 457 169 472 q 149 428 156 442 l 61 428 l 61 644 l 563 644 m 269 761 l 358 994 l 558 994 l 558 983 l 314 739 l 269 761 z "},"ž":{"ha":621,"x_min":50,"x_max":589,"o":"m 563 644 l 299 103 l 419 103 q 437 139 429 121 q 454 175 444 157 q 476 218 465 194 q 501 269 488 242 l 589 269 l 569 0 l 50 0 l 314 542 l 203 542 l 176 489 q 163 457 169 472 q 149 428 156 442 l 61 428 l 61 644 l 563 644 m 442 1017 l 514 972 l 353 739 l 292 739 l 136 972 l 203 1017 l 325 900 l 442 1017 z "},"ż":{"ha":621,"x_min":50,"x_max":589,"o":"m 563 644 l 299 103 l 419 103 q 437 139 429 121 q 454 175 444 157 q 476 218 465 194 q 501 269 488 242 l 589 269 l 569 0 l 50 0 l 314 542 l 203 542 l 176 489 q 163 457 169 472 q 149 428 156 442 l 61 428 l 61 644 l 563 644 m 192 861 q 253 928 192 867 q 319 989 314 989 q 360 960 328 989 q 426 898 393 931 q 458 861 458 865 q 427 819 458 853 q 362 753 396 785 q 319 722 328 722 q 283 755 315 722 q 221 820 250 788 q 192 861 192 853 z "},"α":{"ha":826,"x_min":40,"x_max":824,"o":"m 511 0 l 511 131 q 503 107 507 118 q 429 17 478 50 q 310 -17 381 -17 q 163 24 224 -17 q 72 139 103 64 q 40 317 40 214 q 78 499 40 422 q 194 619 117 576 q 383 661 271 661 q 531 640 460 661 q 615 604 575 626 l 704 650 l 717 644 l 711 125 q 742 120 719 124 q 786 115 764 117 q 817 111 808 113 l 824 21 q 799 19 813 19 q 769 17 785 18 l 742 14 q 715 11 728 13 l 524 -6 l 511 0 m 392 100 q 450 115 424 100 q 494 164 476 129 q 511 256 511 199 l 511 529 q 460 561 488 549 q 379 578 421 578 q 289 517 322 578 q 256 344 256 457 q 272 203 256 258 q 319 124 289 149 q 392 100 349 100 z "},"⓵":{"ha":1022,"x_min":42,"x_max":981,"o":"m 511 -36 q 268 24 375 -36 q 101 190 161 83 q 42 433 42 297 q 101 676 42 569 q 268 843 161 783 q 511 903 375 903 q 754 843 647 903 q 921 676 861 783 q 981 433 981 569 q 921 190 981 297 q 754 24 861 83 q 511 -36 647 -36 m 511 31 q 719 82 628 31 q 860 224 810 133 q 911 433 911 315 q 860 642 911 551 q 719 785 810 733 q 511 836 628 836 q 303 785 394 836 q 162 642 213 733 q 111 433 111 551 q 162 224 111 315 q 303 82 213 133 q 511 31 394 31 m 608 272 q 641 267 617 271 q 691 259 665 263 q 725 254 717 256 l 725 181 l 321 181 l 321 254 l 354 260 q 404 267 379 264 q 438 272 429 271 l 438 519 l 329 519 l 329 565 q 412 597 368 576 q 497 643 456 618 q 565 692 538 668 l 608 692 l 608 272 z "},"⓶":{"ha":1022,"x_min":42,"x_max":981,"o":"m 511 -36 q 268 24 375 -36 q 101 190 161 83 q 42 433 42 297 q 101 676 42 569 q 268 843 161 783 q 511 903 375 903 q 754 843 647 903 q 921 676 861 783 q 981 433 981 569 q 921 190 981 297 q 754 24 861 83 q 511 -36 647 -36 m 511 31 q 719 82 628 31 q 860 224 810 133 q 911 433 911 315 q 860 642 911 551 q 719 785 810 733 q 511 836 628 836 q 303 785 394 836 q 162 642 213 733 q 111 433 111 551 q 162 224 111 315 q 303 82 213 133 q 511 31 394 31 m 301 319 q 499 472 438 406 q 561 583 561 538 q 543 628 561 613 q 495 644 525 643 q 432 633 465 646 q 413 585 428 624 q 395 540 406 567 q 371 478 385 514 l 318 478 l 318 668 q 409 686 356 678 q 511 694 463 694 q 668 663 615 694 q 721 561 721 631 q 630 429 721 490 q 367 332 539 368 l 642 332 q 648 343 644 338 q 656 356 651 349 q 670 379 663 365 q 689 411 678 393 l 738 411 l 717 178 l 301 178 l 301 319 z "},"⓷":{"ha":1022,"x_min":42,"x_max":981,"o":"m 511 -36 q 268 24 375 -36 q 101 190 161 83 q 42 433 42 297 q 101 676 42 569 q 268 843 161 783 q 511 903 375 903 q 754 843 647 903 q 921 676 861 783 q 981 433 981 569 q 921 190 981 297 q 754 24 861 83 q 511 -36 647 -36 m 511 31 q 719 82 628 31 q 860 224 810 133 q 911 433 911 315 q 860 642 911 551 q 719 785 810 733 q 511 836 628 836 q 303 785 394 836 q 162 642 213 733 q 111 433 111 551 q 162 224 111 315 q 303 82 213 133 q 511 31 394 31 m 354 375 q 378 324 367 347 q 397 283 389 301 q 429 214 417 242 q 525 231 499 213 q 551 296 551 249 q 510 363 551 333 q 407 404 469 393 l 401 440 q 496 506 454 463 q 538 594 538 550 q 517 640 538 631 q 438 644 497 649 q 421 604 431 625 l 401 563 q 388 534 394 549 q 374 507 381 519 l 321 507 l 321 675 q 398 689 354 683 q 501 694 442 694 q 663 670 611 694 q 715 601 715 646 q 686 543 715 571 q 607 494 657 515 q 574 482 590 488 q 625 467 601 475 q 710 414 681 447 q 740 333 740 381 q 673 212 740 256 q 481 168 606 168 q 384 174 431 168 q 311 188 338 179 l 301 375 l 354 375 z "},"⓸":{"ha":1022,"x_min":42,"x_max":981,"o":"m 511 -36 q 268 24 375 -36 q 101 190 161 83 q 42 433 42 297 q 101 676 42 569 q 268 843 161 783 q 511 903 375 903 q 754 843 647 903 q 921 676 861 783 q 981 433 981 569 q 921 190 981 297 q 754 24 861 83 q 511 -36 647 -36 m 511 31 q 719 82 628 31 q 860 224 810 133 q 911 433 911 315 q 860 642 911 551 q 719 785 810 733 q 511 836 628 836 q 303 785 394 836 q 162 642 213 733 q 111 433 111 551 q 162 224 111 315 q 303 82 213 133 q 511 31 394 31 m 625 269 q 652 264 632 268 q 692 256 672 260 q 718 251 711 253 l 718 178 l 336 178 l 336 251 l 369 257 q 419 265 394 261 q 453 269 444 268 l 453 306 l 235 306 l 225 385 l 453 689 l 625 679 l 625 429 l 704 429 l 694 306 l 625 306 l 625 269 m 453 429 l 453 601 l 324 429 l 453 429 z "},"⓹":{"ha":1022,"x_min":42,"x_max":981,"o":"m 511 -36 q 268 24 375 -36 q 101 190 161 83 q 42 433 42 297 q 101 676 42 569 q 268 843 161 783 q 511 903 375 903 q 754 843 647 903 q 921 676 861 783 q 981 433 981 569 q 921 190 981 297 q 754 24 861 83 q 511 -36 647 -36 m 511 31 q 719 82 628 31 q 860 224 810 133 q 911 433 911 315 q 860 642 911 551 q 719 785 810 733 q 511 836 628 836 q 303 785 394 836 q 162 642 213 733 q 111 433 111 551 q 162 224 111 315 q 303 82 213 133 q 511 31 394 31 m 353 315 q 360 301 357 308 q 368 289 364 294 q 384 258 375 275 q 403 222 393 242 q 483 220 456 211 q 519 245 511 229 q 528 278 528 261 q 503 339 528 319 q 436 358 478 358 q 376 356 400 358 q 331 349 351 353 l 319 349 l 350 685 l 685 685 l 671 556 l 664 549 q 658 544 661 546 q 653 540 656 542 l 422 540 q 388 542 404 540 l 378 460 q 518 486 438 486 q 612 471 568 486 q 682 423 656 456 q 708 343 708 390 q 672 244 708 283 q 578 186 635 204 q 458 168 521 168 q 377 172 417 168 q 314 182 338 175 l 306 315 l 353 315 z "},"⓺":{"ha":1022,"x_min":42,"x_max":981,"o":"m 511 -36 q 268 24 375 -36 q 101 190 161 83 q 42 433 42 297 q 101 676 42 569 q 268 843 161 783 q 511 903 375 903 q 754 843 647 903 q 921 676 861 783 q 981 433 981 569 q 921 190 981 297 q 754 24 861 83 q 511 -36 647 -36 m 511 31 q 719 82 628 31 q 860 224 810 133 q 911 433 911 315 q 860 642 911 551 q 719 785 810 733 q 511 836 628 836 q 303 785 394 836 q 162 642 213 733 q 111 433 111 551 q 162 224 111 315 q 303 82 213 133 q 511 31 394 31 m 444 493 q 476 508 460 503 q 538 514 501 515 q 640 492 596 513 q 710 438 685 472 q 735 358 735 403 q 670 220 735 272 q 493 168 606 168 q 318 222 379 168 q 257 379 257 275 q 328 617 257 540 q 564 694 399 694 q 632 688 593 694 q 704 669 671 681 l 710 526 l 657 526 q 640 558 647 546 q 626 579 632 569 q 611 604 619 590 q 590 642 603 618 q 481 610 511 653 q 444 493 454 572 m 440 349 q 456 256 439 288 q 499 224 474 224 q 539 252 525 224 q 553 331 553 281 q 535 425 553 392 q 493 458 518 458 q 453 429 467 458 q 440 383 444 411 l 440 349 z "},"⓻":{"ha":1022,"x_min":42,"x_max":981,"o":"m 511 -36 q 268 24 375 -36 q 101 190 161 83 q 42 433 42 297 q 101 676 42 569 q 268 843 161 783 q 511 903 375 903 q 754 843 647 903 q 921 676 861 783 q 981 433 981 569 q 921 190 981 297 q 754 24 861 83 q 511 -36 647 -36 m 511 31 q 719 82 628 31 q 860 224 810 133 q 911 433 911 315 q 860 642 911 551 q 719 785 810 733 q 511 836 628 836 q 303 785 394 836 q 162 642 213 733 q 111 433 111 551 q 162 224 111 315 q 303 82 213 133 q 511 31 394 31 m 350 193 l 350 197 l 614 532 l 400 532 q 392 520 396 526 q 386 507 389 514 q 369 478 378 493 q 353 449 361 464 l 306 449 l 340 682 l 731 682 l 567 193 l 350 193 z "},"⓼":{"ha":1022,"x_min":42,"x_max":981,"o":"m 511 -36 q 268 24 375 -36 q 101 190 161 83 q 42 433 42 297 q 101 676 42 569 q 268 843 161 783 q 511 903 375 903 q 754 843 647 903 q 921 676 861 783 q 981 433 981 569 q 921 190 981 297 q 754 24 861 83 q 511 -36 647 -36 m 511 31 q 719 82 628 31 q 860 224 810 133 q 911 433 911 315 q 860 642 911 551 q 719 785 810 733 q 511 836 628 836 q 303 785 394 836 q 162 642 213 733 q 111 433 111 551 q 162 224 111 315 q 303 82 213 133 q 511 31 394 31 m 413 394 q 358 422 381 410 q 299 474 324 440 q 275 561 275 508 q 303 631 275 600 q 387 680 331 663 q 522 697 443 697 q 640 685 590 697 q 717 649 690 672 q 744 597 744 626 q 694 519 744 550 q 603 490 656 494 q 674 457 646 472 q 733 403 708 438 q 758 315 758 368 q 695 210 758 250 q 506 171 632 171 q 376 185 431 171 q 294 226 322 200 q 265 286 265 251 q 313 368 265 339 q 413 394 350 390 m 571 271 q 540 333 571 311 q 458 375 513 351 q 453 361 454 369 q 449 300 449 343 q 465 235 449 254 q 517 217 482 217 q 556 231 540 217 q 571 271 571 244 m 557 508 q 564 526 563 515 q 567 582 567 542 q 552 637 567 621 q 511 653 538 653 q 472 640 486 653 q 457 604 457 628 q 488 544 457 567 q 557 508 513 526 z "},"⓽":{"ha":1022,"x_min":42,"x_max":981,"o":"m 511 -36 q 268 24 375 -36 q 101 190 161 83 q 42 433 42 297 q 101 676 42 569 q 268 843 161 783 q 511 903 375 903 q 754 843 647 903 q 921 676 861 783 q 981 433 981 569 q 921 190 981 297 q 754 24 861 83 q 511 -36 647 -36 m 511 31 q 719 82 628 31 q 860 224 810 133 q 911 433 911 315 q 860 642 911 551 q 719 785 810 733 q 511 836 628 836 q 303 785 394 836 q 162 642 213 733 q 111 433 111 551 q 162 224 111 315 q 303 82 213 133 q 511 31 394 31 m 569 372 q 539 358 554 363 q 476 351 513 350 q 374 373 418 353 q 304 428 329 393 q 279 507 279 463 q 344 645 279 593 q 521 697 408 697 q 696 644 635 697 q 757 486 757 590 q 686 248 757 325 q 450 171 615 171 q 382 178 421 171 q 310 196 343 185 l 304 339 l 357 339 q 374 308 367 319 q 388 286 382 296 q 403 261 394 275 q 424 224 411 247 q 535 257 503 213 q 569 372 560 293 m 574 517 q 558 610 575 578 q 515 642 540 642 q 475 613 489 642 q 461 535 461 585 q 478 440 461 474 q 521 407 496 407 q 561 436 547 407 q 574 482 569 454 l 574 517 z "},"⓪":{"ha":1022,"x_min":42,"x_max":981,"o":"m 511 31 q 719 82 628 31 q 860 224 810 133 q 911 433 911 315 q 860 642 911 551 q 719 785 810 733 q 511 836 628 836 q 303 785 394 836 q 162 642 213 733 q 111 433 111 551 q 162 224 111 315 q 303 82 213 133 q 511 31 394 31 m 511 -36 q 268 24 375 -36 q 101 190 161 83 q 42 433 42 297 q 101 676 42 569 q 268 843 161 783 q 511 903 375 903 q 754 843 647 903 q 921 676 861 783 q 981 433 981 569 q 921 190 981 297 q 754 24 861 83 q 511 -36 647 -36 m 503 168 q 356 205 417 168 q 265 302 296 242 q 235 432 235 363 q 268 564 235 504 q 365 659 301 624 q 519 694 429 694 q 665 656 604 694 q 757 558 726 618 q 788 431 788 497 q 756 299 788 358 q 660 203 724 239 q 503 168 596 168 m 513 224 q 584 272 561 224 q 607 415 607 321 q 580 574 607 511 q 508 638 553 638 q 436 589 457 638 q 415 440 415 540 q 442 285 415 346 q 513 224 468 224 z "},"①":{"ha":1022,"x_min":42,"x_max":981,"o":"m 511 -36 q 268 24 375 -36 q 101 190 161 83 q 42 433 42 297 q 101 676 42 569 q 268 843 161 783 q 511 903 375 903 q 754 843 647 903 q 921 676 861 783 q 981 433 981 569 q 921 190 981 297 q 754 24 861 83 q 511 -36 647 -36 m 511 31 q 719 82 628 31 q 860 224 810 133 q 911 433 911 315 q 860 642 911 551 q 719 785 810 733 q 511 836 628 836 q 303 785 394 836 q 162 642 213 733 q 111 433 111 551 q 162 224 111 315 q 303 82 213 133 q 511 31 394 31 m 600 272 q 633 267 608 271 q 683 259 657 263 q 717 254 708 256 l 717 181 l 313 181 l 313 254 l 346 260 q 396 267 371 264 q 429 272 421 271 l 429 519 l 321 519 l 321 565 q 403 597 360 576 q 488 643 447 618 q 557 692 529 668 l 600 692 l 600 272 z "},"②":{"ha":1022,"x_min":42,"x_max":981,"o":"m 511 -36 q 268 24 375 -36 q 101 190 161 83 q 42 433 42 297 q 101 676 42 569 q 268 843 161 783 q 511 903 375 903 q 754 843 647 903 q 921 676 861 783 q 981 433 981 569 q 921 190 981 297 q 754 24 861 83 q 511 -36 647 -36 m 511 31 q 719 82 628 31 q 860 224 810 133 q 911 433 911 315 q 860 642 911 551 q 719 785 810 733 q 511 836 628 836 q 303 785 394 836 q 162 642 213 733 q 111 433 111 551 q 162 224 111 315 q 303 82 213 133 q 511 31 394 31 m 301 319 q 499 472 438 406 q 561 583 561 538 q 543 628 561 613 q 495 644 525 643 q 432 633 465 646 q 413 585 428 624 q 395 540 406 567 q 371 478 385 514 l 318 478 l 318 668 q 409 686 356 678 q 511 694 463 694 q 668 663 615 694 q 721 561 721 631 q 630 429 721 490 q 367 332 539 368 l 642 332 q 648 343 644 338 q 656 356 651 349 q 670 379 663 365 q 689 411 678 393 l 738 411 l 717 178 l 301 178 l 301 319 z "},"③":{"ha":1022,"x_min":42,"x_max":981,"o":"m 511 -36 q 268 24 375 -36 q 101 190 161 83 q 42 433 42 297 q 101 676 42 569 q 268 843 161 783 q 511 903 375 903 q 754 843 647 903 q 921 676 861 783 q 981 433 981 569 q 921 190 981 297 q 754 24 861 83 q 511 -36 647 -36 m 511 31 q 719 82 628 31 q 860 224 810 133 q 911 433 911 315 q 860 642 911 551 q 719 785 810 733 q 511 836 628 836 q 303 785 394 836 q 162 642 213 733 q 111 433 111 551 q 162 224 111 315 q 303 82 213 133 q 511 31 394 31 m 354 375 q 378 324 367 347 q 397 283 389 301 q 429 214 417 242 q 525 231 499 213 q 551 296 551 249 q 510 363 551 333 q 407 404 469 393 l 401 440 q 496 506 454 463 q 538 594 538 550 q 517 640 538 631 q 438 644 497 649 q 421 604 431 625 l 401 563 q 388 534 394 549 q 374 507 381 519 l 321 507 l 321 675 q 398 689 354 683 q 501 694 442 694 q 663 670 611 694 q 715 601 715 646 q 686 543 715 571 q 607 494 657 515 q 574 482 590 488 q 625 467 601 475 q 710 414 681 447 q 740 333 740 381 q 673 212 740 256 q 481 168 606 168 q 384 174 431 168 q 311 188 338 179 l 301 375 l 354 375 z "},"④":{"ha":1022,"x_min":42,"x_max":981,"o":"m 511 -36 q 268 24 375 -36 q 101 190 161 83 q 42 433 42 297 q 101 676 42 569 q 268 843 161 783 q 511 903 375 903 q 754 843 647 903 q 921 676 861 783 q 981 433 981 569 q 921 190 981 297 q 754 24 861 83 q 511 -36 647 -36 m 511 31 q 719 82 628 31 q 860 224 810 133 q 911 433 911 315 q 860 642 911 551 q 719 785 810 733 q 511 836 628 836 q 303 785 394 836 q 162 642 213 733 q 111 433 111 551 q 162 224 111 315 q 303 82 213 133 q 511 31 394 31 m 625 269 q 652 264 632 268 q 692 256 672 260 q 718 251 711 253 l 718 178 l 336 178 l 336 251 l 369 257 q 419 265 394 261 q 453 269 444 268 l 453 306 l 235 306 l 225 385 l 453 689 l 625 679 l 625 429 l 704 429 l 694 306 l 625 306 l 625 269 m 453 429 l 453 601 l 324 429 l 453 429 z "},"⑤":{"ha":1022,"x_min":42,"x_max":981,"o":"m 511 -36 q 268 24 375 -36 q 101 190 161 83 q 42 433 42 297 q 101 676 42 569 q 268 843 161 783 q 511 903 375 903 q 754 843 647 903 q 921 676 861 783 q 981 433 981 569 q 921 190 981 297 q 754 24 861 83 q 511 -36 647 -36 m 511 31 q 719 82 628 31 q 860 224 810 133 q 911 433 911 315 q 860 642 911 551 q 719 785 810 733 q 511 836 628 836 q 303 785 394 836 q 162 642 213 733 q 111 433 111 551 q 162 224 111 315 q 303 82 213 133 q 511 31 394 31 m 353 315 q 360 301 357 308 q 368 289 364 294 q 384 258 375 275 q 403 222 393 242 q 483 220 456 211 q 519 245 511 229 q 528 278 528 261 q 503 339 528 319 q 436 358 478 358 q 376 356 400 358 q 331 349 351 353 l 319 349 l 350 685 l 685 685 l 671 556 l 664 549 q 658 544 661 546 q 653 540 656 542 l 422 540 q 388 542 404 540 l 378 460 q 518 486 438 486 q 612 471 568 486 q 682 423 656 456 q 708 343 708 390 q 672 244 708 283 q 578 186 635 204 q 458 168 521 168 q 377 172 417 168 q 314 182 338 175 l 306 315 l 353 315 z "}}}
